<svg id="Calque_1" data-name="Calque 1" xmlns="http://www.w3.org/2000/svg" viewBox="0 0 113 97.43"><path d="M401.41,52.57,386.61,72l.78.48a8.7,8.7,0,0,0-4.87,4.71l8.53-2.3.28.34c-1.09,1.84-1.51,4-3.28,5.54a18.64,18.64,0,0,0-1.54,2c-1.33,1.48-2.73,2.89-4.05,4.37-.5.57-1.39,1-1,2.07a2.47,2.47,0,0,1-1.14.54c-3.72.42-7.47.65-11.17,1.2-5.13.76-10.29,1.55-15,3.93-1.86.94-3.63,2.09-5.46,3.11-3.1,1.73-6.24,3.43-9.34,5.19a9,9,0,0,0-1.41,1.23l.18.5c3.29.58,6.57,1.22,9.87,1.72a21.12,21.12,0,0,0,10-.46c3.11-1,6.21-2.11,9.42-2.94-1.54,1.1-3.07,2.21-4.63,3.28-1.17.81-2.33,1.63-3.56,2.32a25.6,25.6,0,0,1-4.32,2.08c-3.17,1-6.39,2-9.63,2.81-2.12.54-4.36.65-6.49,1.19-2.65.67-5.38,1-7.79,2.63-2.2,1.44-4.73,2.35-7,3.68-2,1.18-3.85,2.68-5.87,3.87-1.53.91-3.22,1.55-5,2.36-.29.62,0,1,.79,1.09a7.93,7.93,0,0,0,4.33-.4c4.92-1.91,9.88-3.71,14.82-5.57,4.2-1.57,8.39-3.14,12.57-4.74a6.28,6.28,0,0,0,1.19-.84l.24.23c-.28.29-.51.68-.84.84-2.38,1.13-4.75,2.3-7.19,3.29-3.71,1.52-7.46,2.93-11.22,4.33-2.28.84-4.6,1.55-6.9,2.35a8.88,8.88,0,0,0-1.38.76l.07.51c1.14.14,2.28.37,3.43.42,1.54.06,3.1-.08,4.64,0a29.25,29.25,0,0,0,11.37-2,37.59,37.59,0,0,0,9.39-5.33c.79-.56,1.34-1.44,2.08-2.07,2.67-2.22,5.38-4.39,8.06-6.61.25-.2.35-.57.55-.84.44-.58.89-1.15,1.34-1.73l.49.26c-.19.69-.34,1.4-.59,2.08-1,2.7-2.1,5.36-3,8.11-.72,2.31-.86,4.82-1.79,7-1,2.47-.43,5-.69,7.41a48.86,48.86,0,0,0,.12,6.62,5.88,5.88,0,0,0,.28,1.18c1.74-.68.61-2.69,2-3.49l-.21,1.2.24.28c.81-.74,1.61-1.47,2.41-2.22.11-.11.12-.39.24-.44,2.36-.93,2.29-3.33,3-5.17.67-1.63,1.63-3.24,1.33-5.17-.06-.36.63-.78.82-1.23,1.47-3.45,2.93-6.91,4.34-10.39.77-1.87,1.45-3.77,2.14-5.67a2.93,2.93,0,0,0,.27-1.51c-.37-1.71-.94-3.37-1.29-5.08a2.29,2.29,0,0,1,.38-1.72c1.7-2,3.48-3.91,5.29-5.8,1.27-1.32,2.71-2.49,3.95-3.85a20.47,20.47,0,0,0,1.53-2.53,18.62,18.62,0,0,1,1.39-1.64c.21.27.31.36.29.4-1.19,2.4-.81,4.91-.66,7.45.25,4,.31,8,.46,12,.05,1.19.13,2.38.2,3.56l.34.18a20,20,0,0,0,1.58-2.52c1.38-3.14,3.07-6.16,3.64-9.64.33-2,1.17-4,1.6-6a30.2,30.2,0,0,0,.39-4.15c.11-1.63.19-3.25.26-4.87a5.19,5.19,0,0,0-.07-2c-.64-1.57,0-2.84.7-4.14a27,27,0,0,1,2.5-4.44c1.09-1.27,2-3,3.78-3.44,2.17-.58,2.86-2.35,3.53-4.15.49-1.32.9-2.67,1.36-4,.24-.69.46-1.39.75-2.07.69-1.6,1.46-3.18,2.12-4.79.55-1.38,1-2.79,1.49-4.19Zm-35.76,55H366a6.14,6.14,0,0,1,0,1c-.64,3.36-1.21,6.74-2,10.08-.61,2.72-1.35,5.42-2.17,8.08-1.27,4.2-2.65,8.36-4,12.53-.08.26-.43.43-.65.64l-.31-.22C361.22,129.37,362.27,118.15,365.65,107.56Zm-20.22-4.36c9-1.51,17.52-4.68,26-7.84A49.53,49.53,0,0,1,345.43,103.2Z" transform="translate(-312.95 -52.57)"/><path d="M426,62.23c-2.69,2.28-5.42,4.51-8,6.86-1.7,1.52-3.19,3.26-4.84,4.84-1,1-2.16,1.87-3.26,2.77a63,63,0,0,0-6.19,5c-2.09,2.19-4.76,3.31-7.26,4.79a2.49,2.49,0,0,0-.87,1.07c-1.15,2.38-2.3,4.77-3.37,7.19a10,10,0,0,0-.41,2.07l.4.28a14.9,14.9,0,0,0,1.77-1.26c1.14-1.08,2.17-2.3,3.33-3.36,2.29-2.07,5.21-3.2,7.67-5s4.61-3.57,6.92-5.34c.45-.34,1-.56,1.46-.86,1.84-1.14,3.62-2.37,5.5-3.41,1.71-.94,2.07-2.72,2.92-4.19,1.16-2,2.23-4.06,3.34-6.1.31-.57.61-1.15.92-1.73Z" transform="translate(-312.95 -52.57)"/><path d="M392.27,52.57a21.68,21.68,0,0,1-5.36,6.2,4.66,4.66,0,0,0-.72.75q-1.69,2.1-3.36,4.21-2.34,3-4.65,6c-2.09,2.72-4.19,5.43-6.24,8.18a13.72,13.72,0,0,0-1,2,16.42,16.42,0,0,0,2-.18c1.81-.41,3.58-1,5.4-1.29a2.68,2.68,0,0,0,2.16-1.63c1-2.35,2.79-4,4.29-6,2-2.55,4-5.1,6-7.68,1.54-2,3.08-4,4.52-6.1,1-1.45,1.84-3,2.76-4.51Z" transform="translate(-312.95 -52.57)"/><path d="M426,53.62c-1.17,1-2.34,2-3.49,3s-2.13,2-3.27,3c-3.11,2.49-6.27,4.93-9.39,7.41-1,.83-2,1.78-3.06,2.55s-2.21,1.33-3.3,2a2.76,2.76,0,0,0-1,.9c-1.68,3.56-3.31,7.13-4.93,10.71-.1.22,0,.54,0,.81.31-.09.69-.08.9-.27,1.53-1.44,3-3,4.56-4.37s3.54-3,5.29-4.46c1.38-1.17,2.76-2.34,4.07-3.58A56.62,56.62,0,0,1,418.5,66a6.17,6.17,0,0,0,1.14-1.34,5.75,5.75,0,0,1,.54-.73c1.34-1.23,2.68-2.46,4.06-3.65A17.08,17.08,0,0,1,426,59.1Z" transform="translate(-312.95 -52.57)"/><path d="M426,75.8c-.43-.63-.85-1.27-1.27-1.9-.51.61-1,1.22-1.53,1.85-1.79,2.27-1.77,5-1.85,7.65-.05,1.81-.11,3.61,0,5.41.14,2.61.68,5.23.55,7.82-.09,1.74.4,3.4.29,5-.23,3.6.18,7.17.17,10.75a4.35,4.35,0,0,0,.25.74,9.31,9.31,0,0,0,1.34-1.29c.74-1.11,1.38-2.28,2.06-3.42Z" transform="translate(-312.95 -52.57)"/><path d="M410.29,52.57l-6.81,16,.41.37c.54-.37,1.1-.72,1.61-1.13,2.73-2.23,5.44-4.48,8.16-6.72a4.39,4.39,0,0,0,.4-.33l3.19-2.88c-.09-1.51-.42-3.46.61-5.27Z" transform="translate(-312.95 -52.57)"/><path d="M355.46,52.57c-1.11,1-2.24,1.87-3.32,2.85a1,1,0,0,0-.14.78,3.7,3.7,0,0,0,1.57.66,2.94,2.94,0,0,0,1.59-.51c2-1.21,4.31-1.5,6.52-2.06l6.83-1.72Z" transform="translate(-312.95 -52.57)"/><path d="M420.47,52.57c-.45,1.19-.91,2.38-1.37,3.58l.6.39q1.83-2,3.64-4Z" transform="translate(-312.95 -52.57)"/><path d="M418.77,83.36c-.39.69-.8,1.36-1.14,2.07-1.63,3.39-3.23,6.79-4.86,10.17-.14.29-.57.45-.7.74a6.28,6.28,0,0,0-.93,2.5c.06,2.3.39,4.59.63,6.89.19,1.86.4,3.73.6,5.6.14,1.32.26,2.64.42,4q.54,4.36,1.12,8.72a3.15,3.15,0,0,0,.39.8c.82-1,1.55-1.84,2.22-2.73.85-1.12,1.56-2.38,2.51-3.41s1.76-2.06,1.26-3.7a28.29,28.29,0,0,1-1.05-5.24c-.2-1.92-.13-3.88-.17-5.81,0-1.27,0-2.54,0-3.8,0-2.08-.05-4.17-.1-6.25,0-1.24-.17-2.47-.13-3.7.06-2,.22-4.09.33-6.13a2.91,2.91,0,0,0-.09-.58Z" transform="translate(-312.95 -52.57)"/><path d="M385.61,53.6l-4.4.44c-4,.39-8.08.68-12.09,1.23-2.74.37-5.43,1.13-8.15,1.7-3.71.79-7.43,1.56-11.15,2.37a2.18,2.18,0,0,0-1.08.62c-1,1.08-1.87,2.21-2.79,3.34a30.38,30.38,0,0,0-2,2.55c-.22.32-.14.84-.2,1.27a4.2,4.2,0,0,0,1.48.11c1.76-.54,3.49-1.16,5.22-1.8a19.74,19.74,0,0,1,3.09-1.24c2.57-.46,5.12-1.23,7.79-.93a3.23,3.23,0,0,0,1.55,0c2.06-.87,4.18-.39,6.27-.53,1.28-.09,2.51-1.08,3.73-1.74q3.76-2.07,7.5-4.22C382.09,55.75,383.73,54.73,385.61,53.6Z" transform="translate(-312.95 -52.57)"/><path d="M417.07,81.54c-.31.21-.62.4-.92.62-1.4,1-2.79,2.12-4.2,3.17-1.66,1.24-3.33,2.48-5,3.69a93,93,0,0,1-9,6c-2.09,1.16-4.18,2.34-6.18,3.65a3.72,3.72,0,0,0-1.22,1.9c-.8,2.45-1.5,4.93-2.2,7.41a2.34,2.34,0,0,0,.14,1,2.59,2.59,0,0,0,.81-.17c2.14-1.3,4.27-2.63,6.4-4a74,74,0,0,0,7.27-4.56,42.46,42.46,0,0,0,5.91-5.35,51.57,51.57,0,0,0,4.52-5.93c.73-1.12,1.32-2.33,2-3.48.44-.73,1-1.41,1.39-2.15a11.55,11.55,0,0,0,.62-1.5Z" transform="translate(-312.95 -52.57)"/><path d="M408.5,102.36c-.51,1-1,2-1.53,3-1.31,2.66-2.32,5.53-4,7.91-1.26,1.77-1.17,3.29-.9,5.15.37,2.49.42,5,.72,7.51.32,2.71.75,5.4,1.18,8.1.11.71.62.85,1.12.35,1.5-1.53,3-3.12,4.46-4.66a5.78,5.78,0,0,1,1.19-.95,2.52,2.52,0,0,0,1.3-3c-.64-3.13-1.32-6.27-1.8-9.43-.54-3.59-.89-7.2-1.27-10.81a29.51,29.51,0,0,1,0-3.12Z" transform="translate(-312.95 -52.57)"/><path d="M364.46,66c-.83.08-1.39.12-1.95.19-3.55.48-7.11.86-10.64,1.48-3.21.57-6.39,1.39-9.57,2.13a1.68,1.68,0,0,0-.8.61,38.51,38.51,0,0,0-5.57,8.83,46.18,46.18,0,0,1-2.77,4.8,3.64,3.64,0,0,0-.13.69c.59,0,1.09,0,1.58-.09,2.62-.26,5.25-.46,7.85-.84a3.53,3.53,0,0,0,1.94-1.14c1-1.17,1.9-2.49,2.79-3.69-2,.8-4.06,1.65-6.14,2.45-.15.06-.44-.25-.82-.49,1-.78,1.74-1.46,2.57-2,2.63-1.61,5.31-3.15,8-4.75,1.93-1.18,3.78-2.49,5.75-3.6,2.48-1.4,5.05-2.66,7.58-4C364.15,66.55,364.18,66.45,364.46,66Z" transform="translate(-312.95 -52.57)"/><path d="M386.69,55.17c-.83.55-1.65,1.14-2.5,1.66-1.62,1-3.3,1.91-4.89,2.94A52.78,52.78,0,0,0,373.15,64a67,67,0,0,0-5.38,5.66c-1.56,1.71-3.08,3.46-4.62,5.19-.06.07-.13.12-.18.19q-2.09,3-4.16,5.92a7.82,7.82,0,0,0-.4.87,8.43,8.43,0,0,0,1.83.2c2.22-.31,4.44-.67,6.64-1.1a2.24,2.24,0,0,0,1.33-.89c1.54-2.53,2.87-5.21,4.53-7.67,1.35-2,3.08-3.75,4.58-5.67.41-.53.49-1.31.87-1.86a18,18,0,0,1,1.95-2.32c2.08-2.12,4.21-4.2,6.3-6.31a3,3,0,0,0,.44-.86Z" transform="translate(-312.95 -52.57)"/><path d="M407.1,99.82c-.82.63-1.59,1.33-2.46,1.88-3.46,2.15-6.92,4.29-10.43,6.36-1.91,1.12-3.92,2-5.85,3.12a1.79,1.79,0,0,0-.87.91q-1,3.64-1.88,7.32c-.2.86.35,1.32,1.09.89,1.67-1,3.24-2.11,4.91-3.09,1.51-.9,3.06-1.74,4.65-2.5a14.89,14.89,0,0,0,6.6-5.78c1.06-1.8,1.87-3.75,2.83-5.63.55-1.09,1.17-2.15,1.76-3.22Z" transform="translate(-312.95 -52.57)"/><path d="M399,120.74c-.26.16-.42.2-.47.29-1.41,2.51-2.81,5-4.18,7.56a2.37,2.37,0,0,0-.33,1.23c.19,3.17.42,6.35.67,9.52.13,1.72.92,2.2,2.31,1.21,1.6-1.14,3.06-2.49,4.56-3.77.78-.66.43-1.45.22-2.26-.58-2.28-1.18-4.56-1.62-6.87-.36-1.84-.47-3.72-.72-5.59A8.16,8.16,0,0,0,399,120.74Z" transform="translate(-312.95 -52.57)"/><path d="M398.59,115.69c-.69.38-1.39.75-2.07,1.16-2.46,1.47-4.9,3-7.37,4.42-1.25.74-2.57,1.35-3.77,2.15a2.31,2.31,0,0,0-.72,1.44c-.42,2.3-.76,4.62-1.17,7.19a4.3,4.3,0,0,0,1.26-.38c2.28-1.54,4.63-3,6.76-4.73A21.72,21.72,0,0,0,398.59,115.69Z" transform="translate(-312.95 -52.57)"/><path d="M365.26,67.91c-.54.37-1.07.75-1.62,1.1-1.88,1.19-3.81,2.29-5.62,3.57a37.81,37.81,0,0,0-3.94,3.32c-1.7,1.58-3.3,3.25-5,4.87-.82.79-1.67,1.54-2.51,2.31l.25.48a40.57,40.57,0,0,1,4.79-.2c3.18.22,4.74-1.43,5.76-4.21a19.11,19.11,0,0,1,2.37-3.67c.69-1,1.31-2.14,2.09-3.12,1.14-1.44,2.38-2.8,3.58-4.19Z" transform="translate(-312.95 -52.57)"/><path d="M381.36,150c1.49-3.32,2.92-6.66,4.46-9.95s3.8-6.18,4.87-9.68l-5.6,3.74c-.69.47-1.73.79-2,1.44a14.78,14.78,0,0,0-.69,3.62c0,.25.06.52,0,.77-.34,2.05-.73,4.08-1,6.13-.2,1.28-.28,2.58-.42,3.88Z" transform="translate(-312.95 -52.57)"/><path d="M391.31,134.94c-2.3,4.72-4.48,9.17-6.6,13.51,2.19-1.22,4.47-2.43,6.69-3.74,1.09-.64,1.18-1.94.9-3.28-.38-1.77-.44-3.61-.66-5.41A6.61,6.61,0,0,0,391.31,134.94Z" transform="translate(-312.95 -52.57)"/></svg>