<svg id="Calque_1" data-name="Calque 1" xmlns="http://www.w3.org/2000/svg" viewBox="0 0 111.93 97.45"><path d="M101.85,47.7a22.17,22.17,0,0,0,1.44,4.06c1.51,2.56,2.09,5.46,3.32,8.08.94,2,.81,4.54,2.73,6,1,.75,2.17,1.23,3.21,1.9a4.31,4.31,0,0,1,1,1.09,14.17,14.17,0,0,1,2,3c.69,1.64,1.78,3.11,2.54,4.73a5.11,5.11,0,0,1,.09,2c0,1,0,2,.09,3a9.19,9.19,0,0,1,.16,1,20,20,0,0,0-.28,4.27c.48,2.9,1.38,5.74,1.94,8.63a37.64,37.64,0,0,0,3,8.36c.67,1.48,1.52,2.88,2.29,4.32l.45-.16c.07-1.16.17-2.33.22-3.49.14-3,.26-6.1.38-9.15.11-2.58.31-5.16.28-7.73a9.67,9.67,0,0,0-.89-2.78l.31-.26a14.79,14.79,0,0,1,1.39,1.59,15.42,15.42,0,0,0,2.43,3.27c2,1.81,3.6,4,5.41,6,.88,1,1.83,1.85,2.78,2.74.72.67.63,1.25.41,2.24-.5,2.34-1.75,4.57-.52,7.25,2.06,4.5,3.66,9.21,5.46,13.83.16.4.41.75.61,1.14,1.2,2.34,1.37,5,2.43,7.4.47,1.07.75,2.22,1.12,3.33,0,.08.1.18.17.19,1.62.37,2.17,2,3.4,2.84a10.57,10.57,0,0,0,1,.54l-.19-1.45.44-.1c.35,1.21.71,2.42,1.07,3.64l.6-.05a24.73,24.73,0,0,0,.39-3c0-2-.22-3.92-.14-5.87a21.46,21.46,0,0,0-.78-7.22c-1-3.31-1.87-6.65-2.92-9.94-.61-1.93-1.47-3.78-2.18-5.67a3.24,3.24,0,0,1,.06-1.07c.48.35.87.51,1.05.79,2,3.11,5.32,4.64,7.91,7,1,.9,1.84,1.93,2.79,2.85a21.08,21.08,0,0,0,2.45,2.1,33.06,33.06,0,0,0,14.14,5.71,51.9,51.9,0,0,0,7.89.07c1.16,0,2.32,0,3.48-.11a10.69,10.69,0,0,0,1.45-.24l.13-.4c-.43-.28-.82-.75-1.28-.82-3.83-.61-7.24-2.42-10.83-3.71q-5.78-2.1-11.45-4.48a33.27,33.27,0,0,1-4.09-2.42l.26-.43A10.07,10.07,0,0,0,164,113c3,1.11,5.92,2.15,8.87,3.25q5.09,1.9,10.17,3.86c3,1.14,5.94,2.4,9,3.38a10.49,10.49,0,0,0,3.71,0c.27,0,.51-.53.62-.66-2.73-1.63-5.23-3.15-7.75-4.63s-5.27-3.09-7.95-4.55a23.66,23.66,0,0,0-4.78-2.25c-3.31-1-6.7-1.6-10.06-2.39-2.85-.66-5.73-1.21-8.53-2a32.54,32.54,0,0,1-9.74-4.89c-1.8-1.29-3.68-2.46-5.55-3.71.82-.41,1.18-.32,2.68.42a38.17,38.17,0,0,0,3.76,1.68,26.51,26.51,0,0,0,14.5,1c2.77-.56,5.55-1,8.33-1.5l.18-.47A10.89,10.89,0,0,0,170,98.31c-2.18-1.3-4.38-2.58-6.6-3.81S159,92.17,156.76,91c-.85-.45-1.72-.88-2.57-1.33-3.43-1.8-7.18-2.48-10.95-3Q139,86,134.76,85.52c-1.92-.24-3.84-.4-5.76-.62-.61-.07-1.4,0-1.1-1.08.07-.29-.37-.75-.64-1.07a62.47,62.47,0,0,0-5.58-6.42c-1.56-1.39-2.19-3.17-3.18-4.81a2.65,2.65,0,0,1-.33-1.53l8.9,2.39c-1.39-2.23-2.78-3.92-5.09-4.77a2.36,2.36,0,0,1,.29-.31,2.28,2.28,0,0,1,.4-.17L107.86,47.7Zm50.54,87.17-.34.19c-.19-.14-.49-.24-.56-.43-.68-1.81-1.43-3.6-2-5.46-1.32-4.67-2.57-9.36-3.79-14.06-.76-2.91-1.46-5.83-2.12-8.75a24,24,0,0,1-.42-3c0-.22.22-.45.38-.77C147,113.31,148.08,124.52,152.39,134.87ZM164.16,98.3a3.2,3.2,0,0,1-.58.3,6.77,6.77,0,0,1-.78,0C156.65,98,150.6,97,145,94.28c-2.1-1-4.23-2-6.33-3a4,4,0,0,1-.89-.82c4.41,1.45,8.53,3.29,12.81,4.59S159.41,97.2,164.16,98.3Z" transform="translate(-84.36 -47.7)"/><path d="M111.25,47.7a43.35,43.35,0,0,0,5,7.32c1.46,1.55,2.44,3.54,3.71,5.27a70.56,70.56,0,0,0,5.42,6.94A22.79,22.79,0,0,1,128.76,72a3,3,0,0,0,2.18,1.62c2.15.38,4.28,1,6.42,1.44a6.27,6.27,0,0,0,1.14,0c-.69-1-1.19-1.79-1.72-2.54-1-1.48-2.05-3-3.12-4.41s-2-2.61-3-3.89c-1.62-2.06-3.21-4.14-4.9-6.14-1.46-1.71-3.09-3.28-4.55-5s-2.81-3.57-4.2-5.37Z" transform="translate(-84.36 -47.7)"/><path d="M91.41,47.7c1,1.78.72,3.69.61,5.19,3,2.61,5.85,5.1,8.73,7.58,1.24,1.07,2.51,2.11,3.79,3.13a4,4,0,0,0,.89.38l.38-.26L99,47.7Z" transform="translate(-84.36 -47.7)"/><path d="M140.75,47.7c2.54.6,5.11,1.1,7.61,1.81,2.32.66,4.56,1.58,6.86,2.33a2.12,2.12,0,0,0,1.43,0c1-.47.95-.85.07-1.55s-1.94-1.69-2.91-2.55Z" transform="translate(-84.36 -47.7)"/><path d="M85.93,47.7l3.64,4,.6-.4L88.8,47.7Z" transform="translate(-84.36 -47.7)"/><path d="M90.36,78.62c0,1.4,0,2.79,0,4.18,0,1,.2,2.1.21,3.14,0,2.65.11,5.3-.06,7.94-.08,1.24,0,2.5-.11,3.68-.1,1.55-.1,3.08-.09,4.63a17.33,17.33,0,0,1-.64,3.5c-.34,1.79-.78,3.58-1,5.39a3.1,3.1,0,0,0,.74,1.91c1.62,2.2,3.33,4.34,5,6.49.1.12.3.16.72.38.22-1.18.48-2.24.61-3.31.42-3.45.82-6.9,1.17-10.37s.65-7.05,1-10.58a9,9,0,0,0,.22-1.51,3.69,3.69,0,0,0-.45-2c-2.19-2.38-3-5.46-4.51-8.21-.93-1.74-1.73-3.55-2.6-5.33Z" transform="translate(-84.36 -47.7)"/><path d="M84.36,58.7c.28,2,.22,4.18.93,6a51.9,51.9,0,0,0,3.73,7,3.16,3.16,0,0,0,1,1c2,1.27,4,2.46,5.91,3.74q3.61,2.4,7.16,4.9c1.88,1.33,3.58,3,5.6,4,2.31,1.17,3.89,3.13,5.9,4.6A28.14,28.14,0,0,1,116.78,92c.1.09.32,0,.79.12a11.43,11.43,0,0,0-.49-2.3c-1-2.35-2.11-4.68-3.27-7a4.13,4.13,0,0,0-1.51-1.42c-1.8-1.12-3.73-2.06-5.46-3.28a64,64,0,0,1-5.6-4.52c-3-2.69-6-5.45-8.94-8.21-2.47-2.31-4.9-4.66-7.35-7Z" transform="translate(-84.36 -47.7)"/><path d="M123.83,49c.72.33,1.46.61,2.15,1,2.37,1.38,4.72,2.8,7.09,4.18,1.6.92,3.29,1.68,4.82,2.69,1.89,1.26,3.93.82,6,.85.33,0,.75-.13,1,0,1.28.82,2.68.41,4,.57,3,.33,6,.24,8.76,1.82a15.39,15.39,0,0,0,3.09.93c1,.31,1.92.75,2.91,1a10,10,0,0,0,1.9.12,4,4,0,0,0-.4-1.49c-1.19-1.52-2.48-3-3.73-4.45a6.87,6.87,0,0,0-.7-.89,4.2,4.2,0,0,0-1.43-.9q-4.45-1.11-9-2.08c-1.64-.36-3.3-.65-5-.93-4.48-.76-9-1.53-13.45-2.21-1.18-.18-2.41,0-3.62-.08-1.45-.09-2.89-.29-4.33-.44Z" transform="translate(-84.36 -47.7)"/><path d="M91.88,76.92a9,9,0,0,0,.53,1.4c1.32,2.22,2.59,4.48,4,6.61a48,48,0,0,0,3.7,4.6,29.76,29.76,0,0,0,4.08,4.09c2.47,1.84,5.15,3.39,7.74,5.07,1.36.89,2.7,1.81,4.07,2.69s2.68,1.73,4,2.57c.19.11.61.16.7,0a1,1,0,0,0,.22-.79c-.81-2.77-1.62-5.54-2.52-8.28a2.58,2.58,0,0,0-1-1.24c-1.08-.7-2.25-1.26-3.37-1.91-2.42-1.38-4.91-2.67-7.22-4.22-2.57-1.72-5-3.69-7.45-5.54-1.14-.84-2.35-1.61-3.48-2.47s-2-1.63-3-2.42a4,4,0,0,0-.77-.41Z" transform="translate(-84.36 -47.7)"/><path d="M100.28,97.56c0,1.34.09,2.7,0,4-.18,2-.52,4-.77,6-.18,1.39-.24,2.8-.48,4.18-.52,3-1.07,6-1.7,8.92a2.57,2.57,0,0,0,1.39,3.24,5.11,5.11,0,0,1,1.06.91c1.5,1.55,3,3.13,4.47,4.65.49.5,1,.35,1.1-.38.28-2.24.44-4.51.77-6.75s.89-4.44,1.19-6.68a18.55,18.55,0,0,0,.22-5.09c-.16-1.14-1.17-2.15-1.71-3.26-.77-1.55-1.4-3.17-2.2-4.71-.91-1.72-2-3.38-2.93-5.06Z" transform="translate(-84.36 -47.7)"/><path d="M168.82,75.7c-.41.92-.84,1-1.54.66-1.48-.78-3-1.49-4.52-2.22a1.09,1.09,0,0,0-.85,0c1.37,1.53,2.7,3.1,4.16,4.55.33.33,1.13.21,1.71.28,2.41.28,4.81.57,7.22.83.38,0,.76,0,1.44,0-.89-1.6-1.67-3-2.44-4.43-.47-.86-.89-1.76-1.4-2.6q-1.68-2.77-3.43-5.49a5.49,5.49,0,0,0-1.39-1.68,9.25,9.25,0,0,0-3-1.3c-4.74-1-9.49-1.81-14.25-2.65-1.53-.27-3.08-.4-4.63-.55a3.24,3.24,0,0,0-1,.29c1.22.7,2.28,1.32,3.35,1.9,2.63,1.43,5.3,2.78,7.88,4.28,2.41,1.39,4.73,2.93,7.07,4.43C165.07,73.19,166.91,74.44,168.82,75.7Z" transform="translate(-84.36 -47.7)"/><path d="M150.83,77c-7.09-11.62-16.23-20.67-28.67-26.56.79.82,1.41,1.48,2,2.13,2.23,2.28,4.49,4.53,6.68,6.85.28.3.06,1,.32,1.39,1.45,1.9,3,3.74,4.47,5.6a9.4,9.4,0,0,1,.9,1.1c1.51,2.56,2.95,5.16,4.51,7.68a2.62,2.62,0,0,0,1.6.92c2,.41,4.07.73,6.12,1A10.42,10.42,0,0,0,150.83,77Z" transform="translate(-84.36 -47.7)"/><path d="M84.63,49.93c0,1.55,0,3.09,0,4.64a1.8,1.8,0,0,0,.59,1.08c1.25,1.15,2.59,2.2,3.82,3.37a32.33,32.33,0,0,0,2.22,2.43,98.55,98.55,0,0,1,8.24,7.45c1.37,1.31,3,2.36,4.43,3.59,1.85,1.58,3.65,3.21,5.46,4.84.5.46.91,1,1.42,1.49.21.19.59.2.89.29a2.33,2.33,0,0,0,0-.91c-.55-1.23-1.2-2.41-1.75-3.63-1-2.2-1.85-4.47-3-6.59-.42-.78-1.44-1.23-2.21-1.82s-1.77-1.31-2.65-2c-1.14-.86-2.29-1.7-3.42-2.58Q96.64,60,94.58,58.32c-2.07-1.67-4.17-3.29-6.16-5-1.22-1.08-2.25-2.37-3.36-3.56Z" transform="translate(-84.36 -47.7)"/><path d="M101.8,95.25c.3.49.62,1,.88,1.49,1.21,2.37,2.27,4.84,3.64,7.12a11.68,11.68,0,0,0,3.21,3.63c2.43,1.67,5.11,3,7.64,4.48,1.21.73,2.31,1.66,3.48,2.45a12.3,12.3,0,0,0,1.83,1c.28.12.75.2.92.06a1.07,1.07,0,0,0,.24-.94c-.46-1.81-1.34-3.6-1.42-5.42-.16-3.29-3.11-3.14-4.86-4.44a36.13,36.13,0,0,0-3.66-2.28c-1.47-.82-3-1.44-4.46-2.35-1.95-1.24-3.77-2.67-5.65-4l-1.47-1Z" transform="translate(-84.36 -47.7)"/><path d="M84.62,69.26v1.13c0,11.31,0,22.62,0,33.92a8.82,8.82,0,0,0,.91,3.06c.14.33.69.5,1.34.93.08-1.77.15-3.19.22-4.61.1-2,.25-4,.29-6s-.07-3.8-.06-5.7c0-.72.15-1.43.2-2.15.19-3,.53-6,.49-9a39.23,39.23,0,0,0-.86-7.8c-.3-1.41-1.38-2.65-2.1-4Z" transform="translate(-84.36 -47.7)"/><path d="M110.11,115.93c-.15.93-.31,1.85-.47,2.78-.48,2.72-.92,5.45-1.44,8.17a35.13,35.13,0,0,1-.92,3.49c-.32,1.08.42,1.61,1.06,2.15,1.1.95,2.24,1.86,3.4,2.74a5.72,5.72,0,0,0,1.34.71c1,.43,1.46-.14,1.51-1.08.13-2.28.21-4.56.34-6.83a15.37,15.37,0,0,1,.23-1.79c.47-2.83-1.59-4.72-2.64-7a25.74,25.74,0,0,0-1.46-2.41c-.19-.31-.32-.65-.48-1Z" transform="translate(-84.36 -47.7)"/><path d="M125.82,127.36c-.44-2.72-.82-5-1.16-7.26a2.31,2.31,0,0,0-1.6-1.94,62,62,0,0,1-5.77-3.28c-2-1.19-3.84-2.46-5.77-3.66a5.28,5.28,0,0,0-1.16-.35c.42,1,.74,1.87,1.11,2.67a21.43,21.43,0,0,0,10,10.91,22,22,0,0,1,2.62,2.07A11.51,11.51,0,0,0,125.82,127.36Z" transform="translate(-84.36 -47.7)"/><path d="M162.66,78.26c-.67-.62-1.36-1.23-2-1.87-.86-.84-1.73-1.68-2.54-2.57a36.89,36.89,0,0,0-11.28-8.67,12.48,12.48,0,0,1-2.1-1.65,1.14,1.14,0,0,0-.89-.26c.95,1.15,1.95,2.27,2.86,3.45s1.7,2.28,2.45,3.48c1.4,2.23,2.69,4.52,4.1,6.73a2.57,2.57,0,0,0,1.51,1.17c2.52.33,5.06.49,7.6.72Z" transform="translate(-84.36 -47.7)"/><path d="M118.41,125.53a8.35,8.35,0,0,0,.48,1.61c1.74,3.17,3.62,6.28,5.24,9.51,1.33,2.62,2.37,5.4,3.55,8.1a2.11,2.11,0,0,0,.26.4l.36-.05c-.1-1.23-.18-2.47-.29-3.7-.07-.72-.15-1.44-.26-2.15s-.3-1.65-.45-2.48-.3-1.59-.43-2.39c-.2-1.22-.31-2.45-.6-3.65a2.09,2.09,0,0,0-.93-1c-1.85-1.17-3.73-2.29-5.59-3.44-.38-.24-.72-.54-1.08-.82Z" transform="translate(-84.36 -47.7)"/><path d="M117.83,130.42c-.11,1-.15,2-.33,3-.22,1.24-.53,2.47-.82,3.7a3.25,3.25,0,0,0,1.38,2.9c1.62.89,3.27,1.74,4.89,2.65a20,20,0,0,1,1.78,1.28c-2.29-4.68-4.46-9.13-6.63-13.58Z" transform="translate(-84.36 -47.7)"/></svg>