<svg id="Calque_1" data-name="Calque 1" xmlns="http://www.w3.org/2000/svg" viewBox="0 0 117.96 155.74"><path d="M379.33,159.58c-1,2.28-2,4.56-3.06,6.84-.86,1.91-1.77,3.8-2.6,5.72s-1.63,3.82-2.38,5.75a49.51,49.51,0,0,1-2.35,6.2c-2,3.66-3.1,7.65-4.43,11.55a5.36,5.36,0,0,1-1.37,2.17,1.83,1.83,0,0,0-.53,2.1c.34,1.11.83,2.18,1.18,3.29.53,1.67,1,3.38,1.52,5a28.44,28.44,0,0,0,1.15,2.66l.34-.09a10.51,10.51,0,0,0,.51-2.59c-.19-3.28,1-6.19,2.15-9.14,1-2.64,2-5.3,3.15-7.88a35,35,0,0,1,2.69-4.72,12.66,12.66,0,0,0,1.64-6.14,42.56,42.56,0,0,1,1.66-10.09c.31-.92.49-1.89.73-2.83Z" transform="translate(-261.37 -86.14)"/><path d="M379.33,194.56c-1.16.54-.66,1.68-.66,2.44,0,3.26.22,6.51.39,9.77a3.49,3.49,0,0,0,.27.85Z" transform="translate(-261.37 -86.14)"/><path d="M379.33,177.86c-.14,2.2-.33,4.4-.39,6.6-.06,1.84,0,3.69.09,5.53,0,.22.19.44.3.66Z" transform="translate(-261.37 -86.14)"/><path d="M379.33,210.23a36.74,36.74,0,0,0-.75,3.7c-.05.39.48.84.75,1.26Z" transform="translate(-261.37 -86.14)"/><path d="M374.78,230.22a13.45,13.45,0,0,0-1.82-1.8,26.73,26.73,0,0,0-3.12-1.69c-3.4-1.74-6.81-3.45-10.22-5.18-.27-.13-.54-.26-.82-.37-2.75-1.06-5.53-2.05-8.23-3.21a25.21,25.21,0,0,1-3.33-2.07l-.91-.58-.37.28c.53,1,1.1,1.94,1.58,2.94a7.31,7.31,0,0,1,.62,1.81c0,.26-.25.59-.39.88-.25-.13-.61-.2-.73-.41-1-1.66-2.88-2.68-3.18-4.78a1,1,0,0,0-.37-.52c-2.33-1.63-3-4.49-4.75-6.53-.28-.33-.25-.9-.41-1.35-.22-.61-.49-1.2-.74-1.8l-.57,0c-.26,1.45-.55,2.89-.76,4.35-.3,2.09-.49,4.21-.8,6.3-.27,1.79-.07,2,1.67,2.56a51.72,51.72,0,0,1,7.67,2.62c2.45,1.19,5,2,7.53,3s4.63,2.15,7,3.13c2.09.87,4.25,1.57,6.47,2.39l.48-1.34c3.11,4.4,8.26,5.23,12.18,8.1l.38-.33c-.27-1.37-.53-2.75-.83-4.11-.46-2.05-1.08-4.07-1.4-6.14-.42-2.76-.67-5.55-.9-8.34-.25-3.19-.58-6.39-.55-9.59,0-4.48.36-9,.6-13.43,0-.5.4-1,.42-1.48a4.83,4.83,0,0,0-.34-1.41c-.38.27-.94.45-1.12.82a17.77,17.77,0,0,0-.7,2.21c-.45,1.31-1,2.59-1.4,3.9-.9,2.8-1.76,5.6-2.61,8.41-.39,1.33-.59,2.72-1.1,4-1.21,3,.21,5.4,1.62,7.88s2.65,5.11,4,7.67a6.5,6.5,0,0,1,.58,1c.17.6.24,1.24.35,1.86Z" transform="translate(-261.37 -86.14)"/><path d="M355.13,124.7c-2.63,5.31-4,10.86-5.26,16.42a62.65,62.65,0,0,0-1.72,15.06,2,2,0,0,1-.1.64c-.66,1.93.19,3.58.89,5.29.61,1.52,1.11,3.08,1.67,4.62a9.79,9.79,0,0,0,.52,1c.26-.9.48-1.49.61-2.1.53-2.58.91-5.2,1.58-7.74.93-3.46,2-6.87,3.14-10.27.87-2.62,1.94-5.17,2.91-7.77q1.17-3.15,2.29-6.33a.87.87,0,0,0,0-.71C359.48,130.09,357.31,127.41,355.13,124.7Z" transform="translate(-261.37 -86.14)"/><path d="M354.92,178.33c1.41-4.45,2.67-8.84,4.18-13.13a66.74,66.74,0,0,1,3-6.29c.39-.81.75-1.63,1.13-2.45,1-2.12,1.93-4.3,3.08-6.34,1-1.79,2.29-3.43,3.46-5.13.42-.61.68-1.15.1-1.85-2-2.52-4-5.07-6.3-7.93-.37.89-.63,1.48-.87,2.08-1.15,3-2.32,6-3.45,8.94-.37,1-.68,2-1,3-.54,1.77-1.05,3.54-1.57,5.31-1.08,3.67-2.12,7.35-3.25,11-.3,1-.36,2.19-1.71,2.53a.83.83,0,0,0-.29.73c1.07,3.1,2.17,6.18,3.27,9.26A1.84,1.84,0,0,0,354.92,178.33Z" transform="translate(-261.37 -86.14)"/><path d="M371.38,225.42c-1.64-2.1-2.26-4.54-4.28-6.13a26.74,26.74,0,0,1-2.26-2.67,88.21,88.21,0,0,0-6.5-6.33,66,66,0,0,0-6.51-4.23c-1.81-1.16-3.6-2.33-5.42-3.47-.65-.4-1.39-.66-2-1.08q-3.67-2.41-7.31-4.88c-.66-.45-1.31-.92-2-1.4-.22,1.35,1.12,3.65,3.17,5.43-1.34,1.88.58,3,1.29,4.28,1,1.84,2.43,3.44,3.58,5.2,1,1.59,2.79,1.72,4.31,2.38,2.06.89,4.09,1.87,6.14,2.78,1.53.67,3.1,1.22,4.6,1.93.58.28,1,.89,1.55,1.25,1.92,1.26,3.84,2.53,5.81,3.71C367.35,223.26,369.22,224.22,371.38,225.42Z" transform="translate(-261.37 -86.14)"/><path d="M345.75,153.7c.71-4.34,1.37-8.56,2.08-12.77a62.84,62.84,0,0,1,1.29-6.56c.66-2.41,1.55-4.76,2.44-7.09.49-1.27,1.2-2.45,1.75-3.7a1.26,1.26,0,0,0,0-1.07c-1.93-2.54-3.92-5-6-7.72-.72,2.57-1.35,4.94-2.07,7.28-.57,1.85-1.36,3.64-1.89,5.51-.79,2.81-1.44,5.66-2.14,8.5a22,22,0,0,1-.54,2.27c-.73,2,.49,3.72,1.07,5.45,1.05,3.18,2.42,6.25,3.67,9.36A3.38,3.38,0,0,0,345.75,153.7Z" transform="translate(-261.37 -86.14)"/><path d="M364.1,211.39c-.57-1.5-1.18-3-1.7-4.51-1.13-3.32-4.46-4.78-6.26-7.51-.53-.79-1.21-.92-1.87-1.32-1-.64-2-1.4-3-2.13-1.43-1.06-2.81-2.18-4.26-3.22s-3.22-2.2-4.85-3.28c-.89-.59-1.86-1.06-2.71-1.7-1.58-1.18-3.09-2.44-4.64-3.67a7.45,7.45,0,0,0-1.13-.83c-.75-.41-1.48,0-1.4.78.22,2.32.55,4.63.82,6.95.14,1.21,1,1.72,2,2.17a35.83,35.83,0,0,1,6.26,3.76,40.56,40.56,0,0,0,4.61,2.6c1.8,1,3.6,2,5.36,3.14,2,1.24,4,2.5,5.93,3.86,1.7,1.21,3.31,2.57,4.95,3.87.54.42,1.06.84,1.59,1.27Z" transform="translate(-261.37 -86.14)"/><path d="M378,153.41l-5.88-7.51c-.27.45-.5.79-.68,1.15-2,3.76-4,7.5-5.94,11.31-1.17,2.33-2.11,4.78-3.16,7.17-.92,2.13-1.86,4.26-2.78,6.39-.17.4-.22.84-.37,1.24-.92,2.39-2,4.74-2.73,7.17a6.34,6.34,0,0,0,.22,2.87,8,8,0,0,0,.78,1.67c.68-1.57,1.27-3,1.94-4.43.57-1.21,1.18-2.4,1.84-3.56,1.41-2.47,2.85-4.92,4.3-7.36.76-1.26,1.54-2.51,2.36-3.72,1.41-2.07,2.84-4.13,4.32-6.16a23.9,23.9,0,0,1,1.94-2.22C375.34,156.13,376.57,154.87,378,153.41Z" transform="translate(-261.37 -86.14)"/><path d="M351.14,175.79a5.61,5.61,0,0,0-.13-1.32c-.66-1.72-1.35-3.44-2.1-5.12a3.64,3.64,0,0,0-1-1.32c-2.09-1.75-4.16-3.54-6.37-5.14a57.41,57.41,0,0,0-5.93-4.12c-2.31-1.27-4.37-3-6.55-4.48s-4.53-3.08-6.79-4.63c-.8-.56-1.27-.39-1.38.54a1.58,1.58,0,0,0,0,.65c.79,2.44,1.59,4.88,2.42,7.3a1.27,1.27,0,0,0,.7.6,61.87,61.87,0,0,1,9.36,5.18c3.06,2,6.22,3.79,9.25,5.8,2,1.32,3.82,2.87,5.75,4.28C349.18,174.6,350.06,175.1,351.14,175.79Z" transform="translate(-261.37 -86.14)"/><path d="M324.18,161a4.2,4.2,0,0,0-.1,1.39c.83,2.26,1.65,4.54,2.66,6.74.25.54,1.17.8,1.8,1.16,2.36,1.33,4.74,2.63,7.1,4,2,1.13,4,2.28,6,3.42,0,0,.11,0,.12.05.93,1.74,2.95,2,4.34,3.09s2.77,1.78,4.11,2.74c1,.73,1.94,1.58,2.88,2.39a15.82,15.82,0,0,0,2.68,2,7.94,7.94,0,0,0-.33-1.4,45.46,45.46,0,0,0-3-6.7,13.39,13.39,0,0,0-3.86-3.54c-2.39-1.65-4.89-3.13-7.39-4.59-3.3-1.94-6.7-3.69-9.95-5.7-2.13-1.33-4.06-3-6.09-4.46C324.88,161.37,324.63,161.23,324.18,161Z" transform="translate(-261.37 -86.14)"/><path d="M338.8,135.54c.3-1.35.58-2.71.93-4,.63-2.42,1.2-4.85,2-7.21,1-3,2.19-6,3.29-9,0-.08,0-.19.08-.25,1.42-1.64.25-2.8-.73-4l-4.17-5.13c-.41,1.21-.79,2.21-1.1,3.22-.79,2.58-1.52,5.18-2.33,7.75-.75,2.39-1.62,4.75-2.32,7.15a3.55,3.55,0,0,0,.05,2.14c1.11,3,2.33,5.86,3.51,8.79a3.38,3.38,0,0,0,.35.52Z" transform="translate(-261.37 -86.14)"/><path d="M347.19,164.18c-.8-2.2-1.46-4.11-2.2-6a11.5,11.5,0,0,0-1.51-3.11,12.05,12.05,0,0,0-3-2.55c-2.33-1.47-4.76-2.78-7.12-4.2-.69-.42-1.22-1.11-1.92-1.51-1.88-1.08-3.86-2-5.7-3.12-1.54-1-2.9-2.2-4.4-3.22a7,7,0,0,0-1.86-.62,6.49,6.49,0,0,0-.16,1.74c.23,1.36.59,2.7.93,4a1.5,1.5,0,0,0,.46.88c2,1.12,4,2.15,6,3.3,1.16.67,2.19,1.56,3.34,2.27,1.81,1.12,3.69,2.14,5.5,3.28a32.28,32.28,0,0,1,2.75,2.06c2.15,1.69,4.27,3.41,6.42,5.09C345.41,163,346.14,163.47,347.19,164.18Z" transform="translate(-261.37 -86.14)"/><path d="M312.34,216.9a10.74,10.74,0,0,0,.47,1.71c1.16,2.35,2.31,4.7,3.57,7,1.64,3,3.39,5.9,5.08,8.84a10.13,10.13,0,0,1,.61,1.29c.79,2,2.85,1.9,4.37,2.66a38.16,38.16,0,0,0,3.89,1.51,4,4,0,0,0,1.12-.07,25.21,25.21,0,0,0-1.84-2.23,11.43,11.43,0,0,1-2.44-4.35c-1.69-4.35-3.49-8.66-5.13-13-.79-2.12-2.52-2.65-4.39-2.92C316,217.05,314.34,217,312.34,216.9Z" transform="translate(-261.37 -86.14)"/><path d="M303.22,216.46c-.77,0-1.55,0-2.33,0-.4,0-1.06,0-1.14.2a1.71,1.71,0,0,0,.06,1.35c1,1.66,2.17,3.23,3.2,4.88.77,1.23,1.38,2.56,2.12,3.8.64,1.08,1.37,2.1,2.05,3.15a6.9,6.9,0,0,1,1.24,2.05c.32,1.48,1.47,1.56,2.52,1.81,1.87.44,3.78.76,5.66,1.2.36.09.6.63,1,.78a4.2,4.2,0,0,0,1.29.12c-.08-.39-.05-.87-.27-1.14a46.08,46.08,0,0,1-7.73-14.54c-.52-1.48-1.28-2.93-3.37-3a23.44,23.44,0,0,1-4.23-.89Z" transform="translate(-261.37 -86.14)"/><path d="M313.68,188.51c-.46-1.71-.86-3-1.18-4.39a69.66,69.66,0,0,1-1.75-11.43,61.73,61.73,0,0,1-.46-6.94c0-.41-.58-.9-1-1.27a18.5,18.5,0,0,0-2.07-1.78,28,28,0,0,1-4.75-4,1.19,1.19,0,0,0-.86-.21,2.18,2.18,0,0,0-.4,1.27c.31,1.51.77,3,1.11,4.51.37,1.67.62,3.38,1,5.05.6,2.54,1.29,5.06,1.95,7.59a8.51,8.51,0,0,1,.34.83c.5,3.22,2.86,5.25,4.78,7.56.71.86,1.49,1.67,2.25,2.49A9.22,9.22,0,0,0,313.68,188.51Z" transform="translate(-261.37 -86.14)"/><path d="M314.45,236.88a17.9,17.9,0,0,1-2.08-.25c-1.86-.46-3.68-1.1-5.56-1.44a44.09,44.09,0,0,0-6.77-.83,63.55,63.55,0,0,0-7.42.35c-1.47.13-2.9.53-4.37.71-1.88.23-3.78.35-5.66.56a12,12,0,0,0-1.65.39l-.14.41a13.12,13.12,0,0,0,1.71,1.63,31.39,31.39,0,0,0,4.79,2.91,6.47,6.47,0,0,0,3.47.34c3-.46,5.9-1.16,8.85-1.74,4.06-.8,8.13-1.6,12.2-2.35a13.62,13.62,0,0,1,1.68.06,4.12,4.12,0,0,0,1-.31Z" transform="translate(-261.37 -86.14)"/><path d="M343.56,241.79c-.45-.58-.74-.93-1-1.3-1.47-2.14-2.91-4.29-4.38-6.42-.42-.6-.95-1.12-1.32-1.75-1.53-2.62-3-5.28-4.54-7.9a16.08,16.08,0,0,0-2.43-3.66,11.27,11.27,0,0,0-3.58-1.85,19.16,19.16,0,0,0-3-.65,7.58,7.58,0,0,0,.34,1.56c1.9,3.67,3.79,7.34,5.76,11,1.18,2.19,2.4,4.38,3.77,6.45a47.86,47.86,0,0,0,3.36,4.17,1.08,1.08,0,0,0,.65.37C339.23,241.81,341.25,241.79,343.56,241.79Z" transform="translate(-261.37 -86.14)"/><path d="M319.94,195c.13-1.33.25-2.43.35-3.53.27-2.83.53-5.66.8-8.49.19-2,.39-4,.63-6,.21-1.77-.87-2.9-2-3.9-2.23-1.95-4.57-3.78-7.1-5.84a3.73,3.73,0,0,0-.26,1.17c.18,1.49.44,3,.66,4.45s.36,2.79.59,4.17c.46,2.73.89,5.47,1.47,8.17.47,2.22,1.16,4.4,1.75,6.6a1,1,0,0,0,.18.47C317.89,193.08,318.79,193.93,319.94,195Z" transform="translate(-261.37 -86.14)"/><path d="M361.75,196.52c.44-1.49.86-3.05,1.36-4.59.56-1.73,1.14-3.45,1.78-5.14.87-2.3,1.79-4.59,2.72-6.86,1.14-2.78,2.27-5.56,3.48-8.31,1.51-3.44,3-6.87,4.69-10.24a34.23,34.23,0,0,1,2.31-3.38,3.17,3.17,0,0,0,.21-1.14c-.42.07-1,0-1.25.23a17.49,17.49,0,0,0-2.16,2.62c-1.59,2.46-3.15,4.94-4.62,7.47-1.18,2-2.18,4.17-3.3,6.24-.32.58-.81,1.07-1.18,1.62-.92,1.39-1.84,2.79-2.71,4.21-1.52,2.47-3,4.94-4.48,7.46a2,2,0,0,0-.05,1.5C359.57,191,360.67,193.74,361.75,196.52Z" transform="translate(-261.37 -86.14)"/><path d="M359.88,199.34c.07-.15.15-.25.13-.3-1.15-2.44-1.95-5-3.95-7.06a48.45,48.45,0,0,0-8.87-7.37c-2.46-1.55-4.61-3.62-7.43-4.7-1.62-.61-3-1.9-4.46-2.88s-3.14-2.05-4.7-3.1c-.63-.42-1.2-.92-1.84-1.31a2.54,2.54,0,0,0-.94-.17c0,.28,0,.57,0,.85.11,2.45,1.81,4.06,3.26,5.7.77.86,2.11,1.19,3.13,1.85,1.93,1.23,3.81,2.53,5.72,3.8.47.3,1,.55,1.42.86,1.26.87,2.49,1.77,3.76,2.62s2.78,1.73,4.12,2.67c1.74,1.22,3.47,2.47,5.12,3.8C356.21,196.12,358,197.74,359.88,199.34Z" transform="translate(-261.37 -86.14)"/><path d="M323.93,177.09c-.17,1.29-.42,2.56-.5,3.83-.23,3.76-.36,7.53-.59,11.28-.26,4.6.47,8.92,3.29,12.71.54.72,1.05,1.47,1.74,2.45,0-1.63,0-3,0-4.28a38.57,38.57,0,0,1,1.42-10.35,8.76,8.76,0,0,0-.14-3.13c-.2-1.54-.53-3-.75-4.59-.18-1.24-.24-2.49-.41-3.74C327.8,179.85,325.51,177.42,323.93,177.09Z" transform="translate(-261.37 -86.14)"/><path d="M354.07,241.82c-1.15-1.51-2.12-2.81-3.11-4.09-2.45-3.14-4.91-6.26-7.36-9.4a1.86,1.86,0,0,1-.34-.55c-1.11-3.17-3.64-4.53-6.65-5.37a24.14,24.14,0,0,1-2.73-1.28,3.14,3.14,0,0,0-1.07-.06,3.34,3.34,0,0,0,.23,1.17c1.17,1.74,2.39,3.44,3.6,5.15,2.22,3.14,4.45,6.26,6.64,9.41,1,1.37,1.76,2.84,2.78,4.16a2.58,2.58,0,0,0,1.72.82C349.8,241.88,351.82,241.82,354.07,241.82Z" transform="translate(-261.37 -86.14)"/><path d="M310,187.81a58.71,58.71,0,0,0-4.8-4.41,29.73,29.73,0,0,0-4.84-2.55c-1.95-.95-3.92-1.84-5.89-2.72a18,18,0,0,0-2-.73c-2.64-.82-5.26-1.73-7.94-2.39-1.41-.36-1.7.13-1.11,1.42.85,1.83,1.68,3.68,2.67,5.43a2.82,2.82,0,0,0,1.7,1.16c2.29.48,4.61.8,6.92,1.18.08,0,.17.07.25.06,2.34-.27,4.41,1,6.64,1.31s4.51,1.55,6.76,2.35a13.53,13.53,0,0,0,1.43.34Z" transform="translate(-261.37 -86.14)"/><path d="M302.09,175.76c-.23-1.21-.49-2.41-.69-3.62-.27-1.56-.47-3.13-.73-4.69-.24-1.35-.6-2.67-.77-4a35.08,35.08,0,0,1-.27-4.58,4.48,4.48,0,0,0-2.95-3.83c-1.32-.32-2.68-.48-4-.76-.79-.17-1.06.15-1,.87.25,1.92.44,3.85.81,5.74s.9,3.92,1.45,5.85a7.75,7.75,0,0,0,3.17,4.51c1.58,1.08,2.76,2.75,4.12,4.16.17.18.36.34.54.5Z" transform="translate(-261.37 -86.14)"/><path d="M332.74,121.8c.77-2.83,1.38-5.33,2.13-7.79a36.63,36.63,0,0,1,1.66-4.2c.72-1.66,1.54-3.27,2.26-4.93a1.09,1.09,0,0,0-.24-.91c-1.43-1.63-2.87-3.24-4.38-4.8-.4-.41-1-.54-1.33.28s-.54,1.64-.84,2.44c-1.1,2.92-2.25,5.83-3.3,8.77a2.85,2.85,0,0,0,0,1.89C330,115.58,331.31,118.57,332.74,121.8Z" transform="translate(-261.37 -86.14)"/><path d="M272.31,146a11.83,11.83,0,0,0,2,2.67,66.57,66.57,0,0,1,9.92,9.65c1.92,2.14,4,4.12,6,6.2a6.2,6.2,0,0,1,.75,1.24l.38-.1a4.18,4.18,0,0,0-.09-1.13,26.91,26.91,0,0,1-1.47-9.37c0-2.11-.59-2.92-2.49-3.78-1.35-.62-2.65-1.37-4-2-.29-.15-.68-.09-1-.21-1.52-.55-3-1.12-4.52-1.68l-5.1-1.93Z" transform="translate(-261.37 -86.14)"/><path d="M318.06,128.54c.07,1,.09,1.68.16,2.35a19.26,19.26,0,0,1,.29,2.92c-.13,2.41,1.28,3.53,3.21,4.52,3.16,1.62,6.21,3.44,9.3,5.19,1.93,1.1,3.86,2.18,5.74,3.36.74.46,1.3,1.21,2,1.74a22.64,22.64,0,0,0,2.19,1.23c0-2-1.18-3-2.18-4a24.77,24.77,0,0,1-2.23-2.1,19.18,19.18,0,0,0-4.87-4.29c-1.43-1-2.69-2.24-4-3.37-1-.88-2.09-1.77-3.17-2.61-1.25-1-2.56-1.86-3.8-2.85-.33-.26-.4-.86-.74-1.13A10.33,10.33,0,0,0,318.06,128.54Z" transform="translate(-261.37 -86.14)"/><path d="M362.81,241.82c-1-1.91-2-3.7-2.92-5.49-.79-1.48-1.59-2.94-2.36-4.43-.21-.41-.3-.88-.51-1.3s-.38-.77-.68-.88c-1.37-.54-2.83-.89-4.17-1.48-2.53-1.13-5-2.39-7.52-3.57a6.35,6.35,0,0,0-1.34-.2c1.48,1.91,2.72,3.55,4,5.17,2.54,3.18,5.1,6.34,7.64,9.53.23.29.34.69.56,1a3.33,3.33,0,0,0,3.38,1.67A34.14,34.14,0,0,1,362.81,241.82Z" transform="translate(-261.37 -86.14)"/><path d="M289.13,216.9c1.22,2.06,2.4,4,3.51,6,.71,1.26,1.29,2.6,2,3.88a10.08,10.08,0,0,0,1.61,2.48,5.77,5.77,0,0,0,2.18.9c1.9.64,3.81,1.27,5.73,1.87a6.9,6.9,0,0,0,1.22.2l.29-.29c-.42-.68-.84-1.36-1.27-2-1.62-2.58-3.31-5.12-4.85-7.74-.82-1.4-1.34-3-2.11-4.4a1.92,1.92,0,0,0-1.24-1c-2.12-.17-4.25-.18-6.38-.23C289.66,216.5,289.52,216.66,289.13,216.9Z" transform="translate(-261.37 -86.14)"/><path d="M317.39,94.3a9.48,9.48,0,0,0-.61,6.11,49.79,49.79,0,0,1,.64,7.74,2.47,2.47,0,0,0,1.19,2.11c1.08.79,2.08,1.69,3.14,2.5.75.57,1.6,1,2.31,1.62,1,.87,1.9,1.86,2.86,2.77a11.9,11.9,0,0,0,1.25.86,8.05,8.05,0,0,0-1.16-4.17q-1.69-3.54-3.37-7.08c-.17-.36-.33-.71-.5-1.06-1.19-2.38-2.37-4.76-3.57-7.14C318.86,97.13,318.12,95.72,317.39,94.3Z" transform="translate(-261.37 -86.14)"/><path d="M332.83,129.33c0-.55.09-.85,0-1-.91-1.69-1.28-3.66-2.77-5.06-2-1.85-3.8-3.86-5.79-5.69s-4.27-3.69-6.7-5.77c-.12,1.14-.25,1.87-.27,2.61a17.26,17.26,0,0,0,.12,3.22,3.74,3.74,0,0,0,1,2.23c1.67,1.24,3.55,2.18,5.29,3.33,1.36.89,2.58,2,3.93,2.89C329.23,127.14,330.91,128.13,332.83,129.33Z" transform="translate(-261.37 -86.14)"/><path d="M329,213.89c-.48-.89-.66-1.71-1.16-2a67.86,67.86,0,0,0-6.29-3.9c-1.53-.81-3.25-1.25-4.85-1.93s-3-1.43-4.59-2.06c-.75-.31-1.6-.37-2.38-.65-1.67-.58-3.35-1.15-4.95-1.88-1.36-.62-2.59-1.5-3.92-2.19a23.4,23.4,0,0,0-2.58-1.08c-.16-.06-.54,0-.56.08a.86.86,0,0,0,0,.69c1.46,1.9,2.75,3.89,4.94,5.2,1.59.95,3.36.68,4.93,1.42a23.68,23.68,0,0,0,2.84.76c2,.66,4,1.34,6,2.09.89.34,1.69.92,2.56,1.31,2.92,1.34,5.86,2.64,8.8,3.94A7.59,7.59,0,0,0,329,213.89Z" transform="translate(-261.37 -86.14)"/><path d="M299,176.67a7.94,7.94,0,0,0-.75-1c-2.3-2.15-4.53-4.41-7-6.36-1-.77-2.5-.8-3.74-1.25-1.42-.52-2.77-1.23-4.21-1.67a23,23,0,0,0-3.81-.65,1.08,1.08,0,0,0-.37.8c.68,1.94,1.37,3.87,2.2,5.74.15.34.92.51,1.43.59,1.61.23,3.26.23,4.84.58,2.7.6,5.37,1.37,8,2.14a23.16,23.16,0,0,1,2.15,1A4.48,4.48,0,0,0,299,176.67Z" transform="translate(-261.37 -86.14)"/><path d="M327.25,109.22c.4-1.24.63-2.14,1-3,1.07-2.73,2.21-5.44,3.25-8.18a1.55,1.55,0,0,0-.13-1.36,17.18,17.18,0,0,0-5.36-4c-.82-.32-1.29-.3-1.52.65-.33,1.38-.71,2.74-1.09,4.11a3.49,3.49,0,0,1-.4,1.08c-.72,1-.25,1.86.22,2.78,1.12,2.18,2.16,4.39,3.25,6.59C326.61,108.27,326.85,108.59,327.25,109.22Z" transform="translate(-261.37 -86.14)"/><path d="M324.37,206.51a14.61,14.61,0,0,0-2.47-2.91c-2.86-2-5.86-3.75-8.83-5.56a5.08,5.08,0,0,0-1.43-.35c-1.91-.52-4.07-.66-5.67-1.67-2.18-1.38-4.64-1.2-6.87-2.07-1.21-.47-2.43-.93-3.67-1.32a16.19,16.19,0,0,0-2.2-.36,40.38,40.38,0,0,0,2.13,3.58c.19.26,1,0,1.45.15,3.44,1.07,6.89,2.1,10.29,3.29,2.13.74,4.17,1.78,6.28,2.6,1.45.56,3,.85,4.43,1.49,2.17,1,4.25,2.15,6.37,3.24Z" transform="translate(-261.37 -86.14)"/><path d="M261.37,219.52c2.3.5,4.61.94,6.89,1.54s4.52,1.39,6.79,2.07,4.64,1.38,7.28,2.16c-.94-1.42-1.66-2.47-2.33-3.55-.78-1.27-1.51-2.58-2.28-3.85s-2.28-1.16-3.53-1.08a49.68,49.68,0,0,0-5.56.7c-1.08.2-2.1.83-3.22.14a.82.82,0,0,0-.63,0c-1.08.48-2.15,1-3.23,1.48Z" transform="translate(-261.37 -86.14)"/><path d="M318.17,197.22c-2-2-3.39-4.11-6-5.13a62,62,0,0,0-10.76-3.4c-2.1-.41-4.22-.77-6.29-1.31a23.74,23.74,0,0,1-3-1.32,20.59,20.59,0,0,0-2.31-.72c-1-.25-1.17.42-.81,1,1,1.59,1.67,3.44,4.16,3.53,1.83.07,3.63.87,5.46,1.26s4,.73,6,1.12c.89.18,1.75.43,2.63.67a34.63,34.63,0,0,1,10.21,4.34C317.54,197.3,317.64,197.26,318.17,197.22Z" transform="translate(-261.37 -86.14)"/><path d="M337.45,140.85a9.68,9.68,0,0,0-2.12-5.16,29.2,29.2,0,0,0-4-4.38c-2.45-2-5.15-3.6-7.74-5.37l-.84-.59L318.2,122c-1,2.66-.19,4.39,2.06,5.58a27.53,27.53,0,0,1,3.12,2.16c1.43,1,2.84,2.06,4.26,3.09,2,1.45,4.08,2.87,6.06,4.37.57.43.89,1.17,1.41,1.68C335.84,139.59,336.66,140.2,337.45,140.85Z" transform="translate(-261.37 -86.14)"/><path d="M292.55,228.23c-1-1.76-1.9-3.35-2.77-5-.32-.59-.53-1.25-.81-1.87-.66-1.49-1.27-3-2.05-4.43-.2-.35-1-.52-1.51-.54-1.66,0-3.33,0-5,.07-.87,0-1.12.88-.5,1.73s1.2,1.39,1.66,2.16c.93,1.55,1.71,3.18,2.63,4.72a3.6,3.6,0,0,0,1.47,1.6c2,.68,4.13,1.15,6.2,1.68C292,228.43,292.2,228.32,292.55,228.23Z" transform="translate(-261.37 -86.14)"/><path d="M294,231.8a22,22,0,0,0-3.28-1.42,37.55,37.55,0,0,0-6.29-1.13c-2.26-.15-4.55.11-6.83.15-1,0-2-.07-3-.09a17.36,17.36,0,0,0-1.91,0,5,5,0,0,0-1,.34c.17.36.25.87.54,1.06a50.23,50.23,0,0,0,6,3.73c.81.39,2.09-.13,3.13-.34,2.3-.45,4.57-1,6.87-1.44,1.26-.24,2.55-.28,3.83-.41l1.94-.21Z" transform="translate(-261.37 -86.14)"/><path d="M288.26,165.64a5.6,5.6,0,0,0-.65-1c-1.42-1.44-2.88-2.86-4.33-4.29-.64-.63-1.25-1.3-1.91-1.92-1.11-1-2.36-1.88-3.05-3.4-.33-.73-1.53-1-2.18-1.69-1.06-1.06-2-2.28-3-3.38a4.66,4.66,0,0,0-1.15-.68c-.1.47-.4,1-.26,1.4a19.16,19.16,0,0,0,1.66,3.33c.75,1.16,1.79,2.13,2.49,3.32a10.63,10.63,0,0,1,1.35,3.42c.39,2.11.55,2.29,2.69,2.69a18.37,18.37,0,0,1,6.76,2.32,4.47,4.47,0,0,0,1.35.35Z" transform="translate(-261.37 -86.14)"/><path d="M333.25,214.44c.34-1.68.66-3.37,1-5.05.33-1.51.76-3,1-4.54a4.7,4.7,0,0,0-.22-2.1c-.54-1.67-1.17-3.31-1.8-4.95s-1.27-3.14-1.9-4.71l-.38,0c-.19.65-.66,1.35-.55,1.95.56,3,.08,6,.18,9a64.59,64.59,0,0,0,.79,8,8.93,8.93,0,0,0,1.35,2.59Z" transform="translate(-261.37 -86.14)"/><path d="M359.6,231.51c.53.73,1.11,1.43,1.59,2.19q2.24,3.56,4.39,7.16c.36.59.69,1,1.5,1,1.12-.07,2.25,0,3.48,0a14.66,14.66,0,0,0-1.78-5.39c-.94-2.05-2.69-2.81-4.66-3.42a30.63,30.63,0,0,1-3.37-1.5c-.27-.12-.55-.21-.82-.31Z" transform="translate(-261.37 -86.14)"/><path d="M321.54,96.83c.57-1.69,1.17-3.37,1.69-5.08A2.45,2.45,0,0,0,321.89,89a56.91,56.91,0,0,0-5.13-2.89c-1.44,1.36-1.65,2.43-.55,4,1.38,2,2.87,3.95,4.29,5.95a8,8,0,0,1,.64,1.28Z" transform="translate(-261.37 -86.14)"/><path d="M278,226.22a5.29,5.29,0,0,0-.82-.42c-2.77-.86-5.53-1.76-8.32-2.53a5.1,5.1,0,0,1-2.74-1.45c-.42-.46-1.49-.33-2.26-.47l-.88-.17c-.3-.05-.61-.08-.91-.12,0,.41-.21,1,0,1.19A12.41,12.41,0,0,0,264,224a35.26,35.26,0,0,1,3.76,2.84,2.89,2.89,0,0,0,3.47.77,10.58,10.58,0,0,1,5.51-.62,3.75,3.75,0,0,0,1.3-.32Z" transform="translate(-261.37 -86.14)"/><path d="M326.26,216c-1-.41-2-.86-3-1.24-1.7-.64-3.45-1.17-5.13-1.86-2.53-1-5-2.15-7.53-3.26-.41-.18-.76-.49-1.17-.7a5.47,5.47,0,0,0-.9-.26c0,.31-.19.69-.07.94a34.74,34.74,0,0,0,1.85,3.52,1.84,1.84,0,0,0,1.21.74c2.77.29,5.57.37,8.32.78a33.06,33.06,0,0,1,4.63,1.46c.53.17,1.09.24,1.64.36Z" transform="translate(-261.37 -86.14)"/><path d="M326.37,241.72c-3.36-1.86-7.11-1.34-10.66-1.48s-7.12.66-10.68,1.06l0,.42Z" transform="translate(-261.37 -86.14)"/><path d="M378,239l-6.82-3.13a5.56,5.56,0,0,0,.27,1.14c.78,1.39,1.6,2.76,2.38,4.15.33.58.73.92,1.34.41C376.11,240.8,377,240,378,239Z" transform="translate(-261.37 -86.14)"/><path d="M329.77,216.91l-2.8-.67-.15.51,2.77.8Z" transform="translate(-261.37 -86.14)"/></svg>