<svg id="Calque_1" data-name="Calque 1" xmlns="http://www.w3.org/2000/svg" viewBox="0 0 114.15 155.8"><path d="M114.58,186.57c.5-1.08.86-1.76,1.12-2.48.76-2.1,1.49-4.22,2.21-6.33a1.1,1.1,0,0,0,0-.51c-.51-4.95-.73-9.94-1.63-14.82a146.39,146.39,0,0,0-3.72-14.18,39.58,39.58,0,0,0-2-4.72c-1.34,1.63-2.68,3.24-4,4.86-.76.94-1.52,1.88-2.23,2.87a1.5,1.5,0,0,0-.3,1.1c1.58,4.34,3.28,8.64,4.79,13,1.14,3.25,2.15,6.56,3,9.9.83,3.16,1.41,6.4,2.12,9.6C114.08,185.32,114.29,185.74,114.58,186.57Z" transform="translate(-90.11 -104.87)"/><path d="M102.16,154c-1.66,2.07-3,3.84-4.46,5.56-2.53,3-2.45,3-.35,6.32,1.43,2.28,2.55,4.75,3.84,7.13,1.1,2,2.36,4,3.32,6.06,1.12,2.42,2.07,4.93,2.95,7.45,1,3,1.93,6,2.85,9a12.83,12.83,0,0,1,.26,2,12.43,12.43,0,0,0,.77-1.43c1-2.77,1.91-5.54,2.81-8.32a1.35,1.35,0,0,0-.28-1,11.24,11.24,0,0,1-1.55-2.17c-.91-2.69-1.65-5.44-2.46-8.16-.94-3.21-1.82-6.44-2.87-9.61-.89-2.71-2-5.35-3-8-.35-.92-.68-1.85-1-2.78C102.75,155.5,102.53,155,102.16,154Z" transform="translate(-90.11 -104.87)"/><path d="M119.37,234.23a11.27,11.27,0,0,0-2.77,1.48c-1.53,1.53-3.62,1.68-5.4,2.55-4,2-8.1,3.76-12.14,5.66-2,.94-4,1.9-5.9,3-.62.35-1,1.06-1.61,1.53a5.69,5.69,0,0,1-1.21.6v4.7c3.53-1.25,6.69-2.84,9.06-6l.49,1.47c1.12-.49,2.16-1,3.24-1.42,3.07-1.22,6.16-2.44,9.25-3.61,2.27-.86,4.57-1.61,6.82-2.5,1.58-.62,3.07-1.46,4.65-2.09s3.21-1.17,4.85-1.65,1.74-.73,1.53-2.29c-.39-2.83-.72-5.67-1.11-8.5-.11-.79-.33-1.57-.51-2.35l-.36-.06c-.24.32-.64.61-.69.95-.31,2.1-1.88,3.53-2.7,5.32a10.56,10.56,0,0,1-2.54,3.23,1.49,1.49,0,0,0-.53.73c-.28,2.12-2.26,3.1-3.19,4.78-.11.19-.49.24-.75.36-.12-.3-.43-.67-.34-.9.43-1.11.95-2.19,1.46-3.28.22-.48.47-.94.71-1.41Z" transform="translate(-90.11 -104.87)"/><path d="M130.59,214.06c-1.53,1.06-3,2.16-4.58,3.17-2.06,1.34-4.19,2.58-6.25,3.92-1.28.83-2.44,1.84-3.74,2.64-1.83,1.13-3.84,2-5.58,3.24-2.34,1.68-4.4,3.77-6.76,5.41s-3.2,4.07-5.15,5.73-2.61,4-4.28,6.1c2.16-1.19,4-2.15,5.8-3.22a44.64,44.64,0,0,0,5.9-3.8c2.23-1.85,5-2.43,7.47-3.72,2.21-1.16,4.66-1.83,6.92-2.91a7.15,7.15,0,0,0,2.51-2.13c1.68-2.23,3.2-4.58,4.75-6.9a1.15,1.15,0,0,0,.1-1c-.53-1,.11-1.59.79-2.14C129.85,217.36,130.16,215.71,130.59,214.06Z" transform="translate(-90.11 -104.87)"/><path d="M118.27,133.77c-1.67,2.08-3.24,4.2-5,6.17-1.2,1.36-1,2.39-.19,4a44.43,44.43,0,0,1,4.23,12.56c.7,3.85,1.14,7.74,1.7,11.62,0,.08,0,.17,0,.26.29,1.33.58,2.67.88,4a1.22,1.22,0,0,0,.3-.36c1.25-3.11,2.5-6.22,3.72-9.34a19.22,19.22,0,0,0,1.11-3.31,6.09,6.09,0,0,0-.17-2.54c-.61-2.59-1.26-5.17-2-7.74-1.44-5-2.94-10-4.42-15C118.48,134,118.39,133.91,118.27,133.77Z" transform="translate(-90.11 -104.87)"/><path d="M101.86,230.47c1-.78,1.86-1.6,2.83-2.34,1.74-1.32,3.47-2.67,5.28-3.88,2.87-1.92,5.76-3.81,8.72-5.59,1.64-1,3.45-1.72,5.16-2.61.49-.26.87-.71,1.35-1,1.88-1.09,3.74-2.22,5.67-3.21a3.26,3.26,0,0,0,1.84-2.62c.29-2.1.49-4.22.66-6.33a.87.87,0,0,0-1.45-.81c-1.64,1.24-3.19,2.61-4.79,3.92a18.17,18.17,0,0,1-1.73,1.3c-1.35.82-2.8,1.5-4.1,2.39-2.33,1.61-4.53,3.41-6.9,5-1.32.87-2.2,2.37-4,2.59-.58.06-1.06,1-1.58,1.51q-2.33,2.4-4.63,4.83a2.1,2.1,0,0,0-.46.58c-.28.66-.55,1.33-.77,2-.45,1.37-.86,2.74-1.29,4.11Z" transform="translate(-90.11 -104.87)"/><path d="M99.14,229.71a17.87,17.87,0,0,0,1.08-2.14c1-2.84,1.87-5.71,2.77-8.58a2.26,2.26,0,0,0-.44-2.36,12.91,12.91,0,0,1-1.86-3.64c-1.06-2.83-2-5.71-3-8.56-.26-.7-.79-1.3-1.08-2q-2.57-6.1-5.06-12.24c-.4-1-.65-2-1.15-3.09a5.2,5.2,0,0,0-.12.87c0,5.39-.06,10.78,0,16.17a7.3,7.3,0,0,0,.92,2.78c1.17,2.48,2.59,4.86,3.62,7.41,1.44,3.58,3.08,7.13,3.52,11,.16,1.4.24,2.8.35,4.2Z" transform="translate(-90.11 -104.87)"/><path d="M93.56,164.78c-1.06,1.34-2.08,2.57-3,3.85a1.85,1.85,0,0,0-.26,1,14.77,14.77,0,0,1,0,2.21c-.58,2.67,1,4.29,2.66,6a32,32,0,0,1,2.46,3.26c.49.65,1,1.29,1.48,1.93a22,22,0,0,1,1.84,2.5c1.17,2.11,2.19,4.3,3.33,6.42a31.27,31.27,0,0,0,3.23,5.53c1.55,1.83,1.73,4.22,3,6.2.33-.72.58-1.35.91-1.93.85-1.52-.06-2.87-.53-4.18q-2.09-5.82-4.43-11.55c-1-2.37-2.16-4.65-3.29-7-1.42-2.89-2.85-5.76-4.33-8.62C95.67,168.55,94.64,166.76,93.56,164.78Z" transform="translate(-90.11 -104.87)"/><path d="M114.53,194.8c1.85-1.46,3.42-2.79,5.08-4,1.81-1.3,3.68-2.51,5.56-3.7,1.52-1,3.1-1.8,4.63-2.72,1.17-.71,2.27-1.54,3.46-2.21,2.87-1.59,5.81-3.07,8.63-4.74.57-.34.87-1.3,1.11-2,.56-1.66,1-3.35,1.48-5a4,4,0,0,0,.26-1.49c-.11-.75-.57-1.12-1.26-.47-2.86,2.72-6.43,4.37-9.73,6.45-1.62,1-3.11,2.23-4.69,3.33-2.22,1.56-4.53,3-6.68,4.66-1.79,1.37-3.43,2.94-5.09,4.47a3.58,3.58,0,0,0-.68,1.23c-.67,1.58-1.35,3.16-2,4.76A5.82,5.82,0,0,0,114.53,194.8Z" transform="translate(-90.11 -104.87)"/><path d="M141.27,179.9c-1.4,1-2.83,1.89-4.19,2.91a28.42,28.42,0,0,1-6.17,4,29.31,29.31,0,0,0-3.39,2c-1,.6-2.09,1.13-3.12,1.73a46.26,46.26,0,0,1-4.05,2.44,24.79,24.79,0,0,0-6.32,4.8,8.26,8.26,0,0,0-1.55,2.58c-.84,1.79-1.62,3.62-2.39,5.44a4.83,4.83,0,0,0-.15,1.17c1.76-1.49,3.26-2.86,4.86-4.09,1.34-1,2.81-1.86,4.2-2.83s3-2.21,4.54-3.25c1-.67,2.06-1.2,3.08-1.81,1.65-1,3.27-2,4.94-2.92,1.95-1.1,3.91-2.2,5.92-3.19a3.11,3.11,0,0,0,1.85-2c.56-1.76,1.41-3.43,2.06-5.17a7.42,7.42,0,0,0,.22-1.78Z" transform="translate(-90.11 -104.87)"/><path d="M125.46,124.67c-2,2.54-3.73,4.78-5.44,7.06a1.29,1.29,0,0,0,0,1c1.49,4.13,3.1,8.22,4.48,12.38.84,2.52,1.3,5.15,2,7.73a12.67,12.67,0,0,0,.58,1.51l.37,0c.31-.78.6-1.56.92-2.33.91-2.2,1.86-4.38,2.72-6.59a3.78,3.78,0,0,0-.1-3.37,13.41,13.41,0,0,1-1-2.87c-.43-1.6-.73-3.24-1.2-4.83s-1.11-3.06-1.64-4.6c-.31-.89-.54-1.82-.82-2.73C126,126.4,125.8,125.72,125.46,124.67Z" transform="translate(-90.11 -104.87)"/><path d="M118.84,182.88c1.33-1.09,2.63-2.23,4-3.27,1.67-1.25,3.5-2.3,5.06-3.66,2.25-2,4.89-3.26,7.38-4.81s4.78-3,7.18-4.42c.81-.49,1.68-.89,2.5-1.36a.93.93,0,0,0,.38-.51c.38-1.69.81-3.37,1.09-5.07.19-1.13-.35-1.5-1.37-1a10.65,10.65,0,0,0-2.24,1.52,21.57,21.57,0,0,1-6.56,4,8.85,8.85,0,0,0-2.91,1.87c-1.72,1.71-4,2.36-6,3.62a41.06,41.06,0,0,0-4.7,3.48c-1.82,1.59-2,4.07-2.94,6.14a30.81,30.81,0,0,0-1.07,3.29Z" transform="translate(-90.11 -104.87)"/><path d="M153.36,235.72c-2.12.16-3.94.29-5.75.44-3,.26-3.87,2.45-4.74,4.83-1,2.57-2.2,5-3.24,7.57a32.72,32.72,0,0,0-1.59,4.62c-.44,1.8-1.83,2.88-2.86,4.25-.25.33-.53.64-1,1.2a3.84,3.84,0,0,0,1.17.09c2.11-.78,4.23-1.55,6.31-2.42a3.38,3.38,0,0,0,1.54-1.24q3.12-5.28,6.1-10.65c1.24-2.25,2.35-4.57,3.5-6.87A17,17,0,0,0,153.36,235.72Z" transform="translate(-90.11 -104.87)"/><path d="M166.12,235.31c-2.11,0-3.92-.1-5.72,0a8.58,8.58,0,0,0-3.69.9,5,5,0,0,0-1.9,2.68,58.9,58.9,0,0,1-5.14,11.14,34.08,34.08,0,0,1-2.67,3.5,2.83,2.83,0,0,0-.23,1c.39,0,1,.19,1.16,0,1.38-1.45,3.36-1.09,5-1.74.62-.24,1.36-.16,2-.35a2.9,2.9,0,0,0,2.37-1.85,22.87,22.87,0,0,1,2.45-4c2-3.2,4-6.39,6-9.62A5.48,5.48,0,0,0,166.12,235.31Z" transform="translate(-90.11 -104.87)"/><path d="M163.79,177.08c-.45.37-.91.73-1.35,1.1-1.7,1.41-3.23,3.1-5.12,4.17-2.37,1.34-2,3.28-1.91,5.3a11.76,11.76,0,0,1-.16,1.77c-.12,1-.22,2.06-.38,3.08-.44,2.83-.83,5.67-1.37,8.49-.34,1.8-.91,3.57-1.37,5.35a3.43,3.43,0,0,0,0,.72c.24-.06.45-.05.53-.14,2.13-2.5,4.39-4.9,6.31-7.55.9-1.24,1.19-2.93,1.68-4.45A58.93,58.93,0,0,0,163,184.24a49.71,49.71,0,0,1,1.25-4.87,13.49,13.49,0,0,0,.13-2.12Z" transform="translate(-90.11 -104.87)"/><path d="M184.73,255.11l-3.15-.44c-2.28-.32-4.55-.69-6.84-.92-2.51-.26-5-.53-7.55-.54a59.55,59.55,0,0,0-7.05.52c-.91.1-1.76.65-2.67.84-1.93.39-3.88.67-5.82,1-.15,0-.28.17-.68.42a4.7,4.7,0,0,0,1,.47c3,.41,6.11.67,9.13,1.22,4.59.84,9.14,1.91,13.73,2.83a6.44,6.44,0,0,0,6.19-2,23.09,23.09,0,0,1,3-2.14,4.45,4.45,0,0,0,.66-.76Z" transform="translate(-90.11 -104.87)"/><path d="M142.07,237.11a30.17,30.17,0,0,1-3.34.83c-3.13.46-4,3.19-5.39,5.34-.85,1.29-1.49,2.71-2.28,4-1.49,2.54-2.95,5.11-4.56,7.58-1,1.56-2.27,3-3.42,4.44-.28.35-.54.72-1,1.29,2.26,0,4.26.12,6.23-.06a3.23,3.23,0,0,0,1.79-1.34,32.51,32.51,0,0,0,3.07-4.41c2.15-3.95,4.15-8,6.25-12,.68-1.29,1.52-2.5,2.25-3.78a12.69,12.69,0,0,0,.67-1.61Z" transform="translate(-90.11 -104.87)"/><path d="M145.77,213.79c1.1-1,2-1.92,2.94-2.81a.77.77,0,0,0,.13-.36c.85-3.42,1.81-6.83,2.52-10.28.47-2.27.55-4.61.89-6.91.31-2.11.76-4.21,1.1-6.32a4.21,4.21,0,0,0-.3-1.28c-1.75,1.57-3.29,3-4.84,4.32-1,.85-1.92,1.73-3,2.48A3.31,3.31,0,0,0,144,196c.37,3.6.89,7.19,1.26,10.79.18,1.8.18,3.62.28,5.43C145.57,212.68,145.68,213.16,145.77,213.79Z" transform="translate(-90.11 -104.87)"/><path d="M90.61,247a22,22,0,0,1,.94-2.29c1.77-3.26,3.63-6.47,5.34-9.76a3.93,3.93,0,0,0,.27-2.38c-.4-2.12-1-4.21-1.49-6.31-.44-1.72-.85-3.45-1.41-5.13-.82-2.45-1.79-4.85-2.66-7.29a18.8,18.8,0,0,0-1-2.7c0,6,0,11.91,0,17.87s-.27,11.93-.42,17.9Z" transform="translate(-90.11 -104.87)"/><path d="M105.81,218.17a8.25,8.25,0,0,0,1.48-1.18c1.92-2.42,4.57-3.9,7-5.6s4.85-3.34,7.26-5c2.05-1.45,4.06-3,6.13-4.4a33.93,33.93,0,0,1,5.13-3.27,10.61,10.61,0,0,0,3-2.33c1.34-1.29,1.64-2.9,2.1-4.5,0-.17-.05-.55-.13-.56a1.25,1.25,0,0,0-.84.07c-.8.54-1.53,1.2-2.35,1.72-1.8,1.14-3.64,2.23-5.46,3.35-.52.32-1,.69-1.53,1-1.8,1.09-3.61,2.15-5.4,3.24a3.73,3.73,0,0,0-.67.59,6.77,6.77,0,0,1-2.46,1.81,15,15,0,0,0-3.76,2.54c-1.58,1.29-3,2.74-4.59,4C108.09,211.86,106.8,214.87,105.81,218.17Z" transform="translate(-90.11 -104.87)"/><path d="M90.43,177.91c-.79,3.21,1,5.42,2.07,7.84,1.21,2.72,2.34,5.47,3.51,8.21.69,1.61,1.4,3.21,2,4.83,1.34,3.33,2.73,6.63,3.94,10,.71,2,1.11,4,1.66,6.08a5.53,5.53,0,0,0,.35.79c.5-1.56.91-2.91,1.37-4.25.41-1.17.83-2.33,1.33-3.46s.84-1.92-.14-3.05a25.48,25.48,0,0,1-2.28-3.91c-1.43-2.37-3-4.68-4.35-7.06-1.27-2.17-2.34-4.44-3.63-6.6C94.45,184.22,92.47,181.17,90.43,177.91Z" transform="translate(-90.11 -104.87)"/><path d="M137.67,225.88c2.28-2.75,4.26-5.47,4.82-9.08a37.55,37.55,0,0,0,0-9.65c-.22-2.28-.12-4.59-.24-6.88-.08-1.45-.3-2.89-.46-4.34l-.41-.16a11.52,11.52,0,0,0-1.44,1.12,6.72,6.72,0,0,0-1.77,2.15,30.89,30.89,0,0,0-.89,4.42c-.35,1.85-.76,3.69-1,5.55a7,7,0,0,0,.06,2.32c.47,2.68,1.15,5.32,1.49,8a35.34,35.34,0,0,1-.09,5.14C137.66,225,137.67,225.41,137.67,225.88Z" transform="translate(-90.11 -104.87)"/><path d="M111.59,260.64c2.47,0,4.68.12,6.87-.07.63-.06,1.31-.9,1.76-1.53,1.36-1.87,2.63-3.81,3.92-5.73,1.86-2.79,3.68-5.61,5.57-8.38.87-1.28,1.87-2.47,2.76-3.74a4.78,4.78,0,0,0,.43-1.24,3,3,0,0,0-1.17,0c-2.42,1-4.85,2.07-7.18,3.28-.62.32-.89,1.28-1.36,1.93-1.93,2.65-3.84,5.32-5.81,7.94C115.55,255.58,113.64,258,111.59,260.64Z" transform="translate(-90.11 -104.87)"/><path d="M155.45,207.06a7.11,7.11,0,0,0,1.47-.13c2.29-.83,4.54-1.75,6.85-2.53a26.16,26.16,0,0,1,3-.53c1.39-.29,2.68-1,4.19-.87a13,13,0,0,0,2.77-.48,29,29,0,0,1,3.9-.62,2.22,2.22,0,0,0,2.07-1.26c.91-1.75,1.75-3.54,2.58-5.33.61-1.32.36-1.72-1-1.49a33.64,33.64,0,0,0-3.94,1.05c-1.79.55-3.59,1.07-5.32,1.76-2,.78-3.92,1.69-5.83,2.62-1.75.85-3.46,1.77-5.14,2.74a12.79,12.79,0,0,0-2.36,1.71C157.59,204.66,156.68,205.74,155.45,207.06Z" transform="translate(-90.11 -104.87)"/><path d="M164,194.85a9.46,9.46,0,0,1,.87-1.11c1.49-1.43,3.07-2.78,4.49-4.27a8.94,8.94,0,0,0,2-2.85,29.82,29.82,0,0,0,2.21-10c0-.9.32-1.79.36-2.69,0-.29-.41-.89-.56-.86-2.4.33-4.9.53-6.74,2.35a3.24,3.24,0,0,0-.56,1.9c-.2,2.34-.22,4.7-.51,7-.26,2.15-.76,4.28-1.18,6.41-.26,1.29-.55,2.57-.82,3.85Z" transform="translate(-90.11 -104.87)"/><path d="M132.94,140.73c.92-2.23,1.68-4.17,2.51-6.08.48-1.14,1-2.26,1.6-3.35.74-1.38-.31-2.41-.7-3.51-1-2.73-2.36-5.3-3-8.16-.54-2.31-.8-2.38-2.47-.84a50.31,50.31,0,0,0-3.72,4,1.16,1.16,0,0,0-.2,1c1.2,2.81,2.63,5.54,3.67,8.4C131.55,134.82,132.1,137.58,132.94,140.73Z" transform="translate(-90.11 -104.87)"/><path d="M174.52,184.5c1.26-1.33,2.55-2.65,3.79-4,2.3-2.51,4.49-5.14,6.89-7.56,1.88-1.9,4.05-3.5,6-5.32a27.25,27.25,0,0,0,2.42-3.07,6,6,0,0,0-1.26.08c-2.21.89-4.4,1.81-6.59,2.72-.16.06-.3.23-.46.24-2.63.08-4.65,1.8-7,2.68a3.55,3.55,0,0,0-2.49,3.76,23.6,23.6,0,0,1-1.45,9.37,4,4,0,0,0-.11,1Z" transform="translate(-90.11 -104.87)"/><path d="M147,147.42,145.37,149c-.18.17-.34.36-.53.52-2.47,2-4.94,4.08-7.44,6.08-2.08,1.65-4.23,3.22-6.33,4.85a11.88,11.88,0,0,0-1.08,1c-1.37,1.41-2.78,2.77-4.07,4.25a15.92,15.92,0,0,0-1.45,2.43l.47.46c1-.62,2-1.21,2.94-1.86.61-.42,1.12-1,1.75-1.37q3.92-2.4,7.88-4.72c1.52-.88,3.11-1.63,4.64-2.48s2.78-1.59,4.15-2.42a1.17,1.17,0,0,0,.48-.71c.2-1.54.32-3.09.52-4.62.06-.46.37-.89.39-1.35a5.4,5.4,0,0,0-.24-1.36Z" transform="translate(-90.11 -104.87)"/><path d="M121.93,243.32a4.31,4.31,0,0,0-1,.29,37.57,37.57,0,0,1-8.88,4c-.93.24-1.83.59-2.73.92a1,1,0,0,0-.46.45c-1,2-2,4.06-3,6.08-.79,1.55-1.6,3.1-2.44,4.63-.15.27-.49.43-.64.92a48.19,48.19,0,0,0,5.64-.08c.65-.07,1.3-.94,1.8-1.56,2.24-2.81,4.44-5.64,6.64-8.48,1.77-2.28,3.53-4.58,5.29-6.87Z" transform="translate(-90.11 -104.87)"/><path d="M160.33,251.08c.65-.16,1.31-.28,1.95-.47a47.75,47.75,0,0,0,6.44-2c.94-.43,1.56-1.68,2.15-2.66,1.22-2,2.34-4.09,3.47-6.15.65-1.2,1.3-2.42,1.86-3.67.37-.82-.38-.87-.85-.86-1.54,0-3.07.17-4.6.14-1.95,0-2.29.64-3.23,2.43-1.5,2.84-2.94,5.72-4.54,8.51-.87,1.51-2,2.87-3,4.3Z" transform="translate(-90.11 -104.87)"/><path d="M137.83,136.68c.41-.34.84-.67,1.25-1L143,132.2c.19-.16.46-.24.66-.4,1.28-1,2.57-2.05,3.81-3.13a2,2,0,0,0,.68-1.13c.2-2.2.31-4.4.47-6.6a15.53,15.53,0,0,1,.27-2,8.57,8.57,0,0,0-.55-6c-.94,1.89-1.77,3.54-2.58,5.19-.89,1.81-1.78,3.61-2.64,5.43-1.23,2.6-2.41,5.23-3.63,7.83-.57,1.21-1.23,2.38-1.77,3.6a8,8,0,0,0-.34,1.56Z" transform="translate(-90.11 -104.87)"/><path d="M132.88,148.34c2.15-1.55,4-2.92,5.85-4.21,1.24-.86,2.56-1.59,3.83-2.4,1.69-1.07,3.38-2.14,5-3.27a1.37,1.37,0,0,0,.57-1c.06-2.13,0-4.27,0-6.4l-.32-.24c-2.07,1.74-4.15,3.46-6.2,5.23-1.31,1.13-2.6,2.28-3.83,3.49a18.63,18.63,0,0,0-5,7.67A4.68,4.68,0,0,0,132.88,148.34Z" transform="translate(-90.11 -104.87)"/><path d="M137.11,232.63c1.37-.59,2.73-1.19,4.1-1.76a60.23,60.23,0,0,0,6.67-2.75,25.52,25.52,0,0,1,4.64-2.07,65.15,65.15,0,0,1,8.29-2.36c3-.55,4.52-2.7,6.24-4.75a2.78,2.78,0,0,0,.29-.57c.21-.43.41-.87.61-1.3a3.94,3.94,0,0,0-1.3.15c-1.53.74-3,1.69-4.54,2.33-2.52,1-5.12,1.9-7.68,2.84-.67.24-1.36.41-2,.69-3,1.3-6,2.5-8.91,4a47.15,47.15,0,0,0-5.83,3.67c-.47.33-.61,1.13-.9,1.71Z" transform="translate(-90.11 -104.87)"/><path d="M166.75,195.51a3.6,3.6,0,0,0,1.14-.12,20.65,20.65,0,0,1,7.63-2.37c1.21-.13,2.37-.61,3.58-.83s2.63-.37,4-.5a1.59,1.59,0,0,0,1.6-1.19c.54-1.66,1.21-3.28,1.81-4.91.29-.79.06-1.19-.82-1-1.3.22-2.6.12-3.84,1a10.69,10.69,0,0,1-3.93,1.32,9,9,0,0,0-4.83,2.42c-1.83,1.85-3.83,3.52-5.74,5.29A4.15,4.15,0,0,0,166.75,195.51Z" transform="translate(-90.11 -104.87)"/><path d="M138.48,127.71c.19-.15.47-.26.55-.46.83-1.8,1.59-3.62,2.43-5.41.37-.78.91-1.47,1.28-2.25a2.43,2.43,0,0,0,.26-1.47c-.52-2-1.21-3.85-1.74-5.79-.29-1-.76-1.14-1.69-.74a18.38,18.38,0,0,0-5.33,4,1.19,1.19,0,0,0-.19,1c1.33,3.6,2.71,7.19,4.09,10.77C138.18,127.51,138.32,127.57,138.48,127.71Z" transform="translate(-90.11 -104.87)"/><path d="M141.3,225.37c3.29-1.51,6.44-3,9.64-4.38,1.62-.7,3.49-.9,5-1.79,2.24-1.34,4.75-1.8,7.12-2.69a62.69,62.69,0,0,1,6.83-1.75c.22,0,.54-.09.63-.25.6-1,1.16-2,1.9-3.38a17.53,17.53,0,0,0-2.15.32c-1.82.55-3.6,1.23-5.42,1.74-1.28.35-3,.07-3.83.84-1.48,1.44-3.62.76-5,2.12-.26.26-.87.16-1.32.22-2.82.42-5,2.15-7.31,3.58a27.84,27.84,0,0,0-3.7,2.54A20.82,20.82,0,0,0,141.3,225.37Z" transform="translate(-90.11 -104.87)"/><path d="M204.26,238.06c-1.2-.54-2.3-1.06-3.42-1.56a.61.61,0,0,0-.38,0c-2.91.56-5.65-.86-8.52-.79-1.4,0-3-.51-3.95,1-.85,1.28-1.54,2.66-2.35,4-.65,1.06-1.36,2.07-2.24,3.39Z" transform="translate(-90.11 -104.87)"/><path d="M148,216.17a31.2,31.2,0,0,1,3.44-1.9c1.85-.76,3.78-1.35,5.68-2a29.82,29.82,0,0,1,2.95-1c1.27-.28,2.59-.37,3.88-.64,3.23-.67,6.46-1.41,9.69-2.1.86-.19,3.18-2.92,3.06-3.79,0-.25-.6-.67-.8-.61-1.48.41-2.93.94-4.39,1.42s-2.76,1-4.17,1.33c-4,1.07-8,2-11.94,3.17a13.82,13.82,0,0,0-7.24,5.26c-.14.19-.24.4-.37.6Z" transform="translate(-90.11 -104.87)"/><path d="M147.54,140.73c-1.69,1.28-3.17,2.49-4.74,3.56s-3,1.73-4.4,2.68a28.36,28.36,0,0,0-2.26,1.87c-.88.71-1.82,1.36-2.67,2.12a17.92,17.92,0,0,0-5.46,8.29c0,.09.07.22.16.46a11.34,11.34,0,0,0,2.3-1.91,13.34,13.34,0,0,1,4-3.5c2-1.39,3.9-3,5.88-4.46s3.85-2.64,5.73-4S148.22,143.59,147.54,140.73Z" transform="translate(-90.11 -104.87)"/><path d="M173.22,247.28a18.17,18.17,0,0,0,2-.41c1.83-.61,3.67-1.19,5.44-2a2.74,2.74,0,0,0,1.12-1.59c.73-2.29,2.27-4.05,3.65-5.92a5.94,5.94,0,0,0,.59-1.61,5.68,5.68,0,0,0-1.46-.48,37.16,37.16,0,0,0-4.22-.09,2.18,2.18,0,0,0-2.06,1.54c-1.49,3.35-3.29,6.56-5,9.84A3.37,3.37,0,0,0,173.22,247.28Z" transform="translate(-90.11 -104.87)"/><path d="M171.67,250.85l4,.66,10.7,1.81c1.79.31,3-.87,4.27-1.73.77-.51,1.53-1,2.26-1.58a3.4,3.4,0,0,0,1-.95c.11-.18-.14-.84-.28-.85a16.28,16.28,0,0,0-2.42-.1c-1.14,0-2.28.08-3.42.08a29.45,29.45,0,0,1-4.7-.08c-2.72-.41-5.22.48-7.78,1a21.78,21.78,0,0,0-3.61,1.45Z" transform="translate(-90.11 -104.87)"/><path d="M177.71,185l2.09-.84a34,34,0,0,1,3.28-1.31c1.32-.39,2.74-.48,4-.93a2.23,2.23,0,0,0,1.25-1.48,15.77,15.77,0,0,1,3.47-7.16,20.74,20.74,0,0,0,2.15-4.32c.09-.2-.14-.66-.35-.84s-.59.09-.77.28c-.87.89-1.66,1.86-2.54,2.74-.71.72-1.49,1.38-2.25,2-.23.19-.57.3-.72.54-2.06,3.27-5.32,5.43-7.73,8.36-.44.53-1.09.88-1.58,1.38a5.18,5.18,0,0,0-.64,1Z" transform="translate(-90.11 -104.87)"/><path d="M134.39,211.92c-.14.15-.35.28-.41.47-.55,1.61-1,3.25-1.63,4.86-.51,1.41-1.17,2.77-1.65,4.2a5,5,0,0,0-.27,2.32c.46,2.59,1.07,5.16,1.61,7.73.13.58.22,1.17.32,1.75l.44.17c.49-.81,1.31-1.57,1.42-2.43a63.25,63.25,0,0,0,.78-10.17c-.08-2.17.13-4.29.17-6.44a17.25,17.25,0,0,0-.3-2.45Z" transform="translate(-90.11 -104.87)"/><path d="M105.69,250c-1,.49-2,1-3.08,1.47a4.93,4.93,0,0,1-1.07.44,6.19,6.19,0,0,0-4.79,3.63c-.67,1.62-1.27,3.28-2,5.15,1.63,0,2.93.07,4.21-.05a1.63,1.63,0,0,0,1.07-.93,35.52,35.52,0,0,1,5.55-8.56,3.83,3.83,0,0,0,.4-.84Z" transform="translate(-90.11 -104.87)"/><path d="M144.55,116.26a7.49,7.49,0,0,1,.62-1.31c1.41-2,2.91-3.93,4.29-6,1.1-1.6.88-2.69-.66-4.13l-3.65,2.38a12.16,12.16,0,0,0-2.24,1.58,2.17,2.17,0,0,0-.44,1.75c.45,1.72,1.09,3.4,1.65,5.09Z" transform="translate(-90.11 -104.87)"/><path d="M188.5,245.84a14.4,14.4,0,0,1,6.91.77,2.32,2.32,0,0,0,2-.55,19.53,19.53,0,0,1,4.83-3.59,3.93,3.93,0,0,0,1.51-1.82c.27-.59,0-1.07-.89-.77a26.29,26.29,0,0,1-2.93.62c-.13,0-.28,0-.37.07-3.23,2.4-7.14,3-10.86,4-.34.1-.61.45-.92.68Z" transform="translate(-90.11 -104.87)"/><path d="M139.55,235.36a22.44,22.44,0,0,0,4.29-1.18c2.22-1.1,4.56-1.16,6.9-1.35,1.16-.09,2.32-.09,3.48-.11s1.36-1.11,1.83-1.81a13.43,13.43,0,0,0,1.2-2.54.94.94,0,0,0-.09-.81c-.14-.13-.57-.07-.8,0-1.44.7-2.84,1.46-4.27,2.16-1.86.91-3.69,1.88-5.61,2.64-1.68.66-3.47,1-5.19,1.6a16.46,16.46,0,0,0-1.91.89Z" transform="translate(-90.11 -104.87)"/><path d="M160.36,260.58c-5.65-2.31-11.71-1.45-17.73-1.14a18,18,0,0,0-3.4.8l.06.34Z" transform="translate(-90.11 -104.87)"/><path d="M94.19,254.92a29.8,29.8,0,0,0-3,1.18c-.85.43-1.39,3.51-.76,4.19a1.2,1.2,0,0,0,1.06.09c1-1.69,1.94-3.43,2.88-5.16C94.38,255.18,94.28,255.08,94.19,254.92Z" transform="translate(-90.11 -104.87)"/><path d="M138.7,235.07l-2.8.68.15.59,2.79-.71Z" transform="translate(-90.11 -104.87)"/></svg>