<svg id="Calque_1" data-name="Calque 1" xmlns="http://www.w3.org/2000/svg" viewBox="0 0 501.56 299.75"><path d="M15.88.2a21.7,21.7,0,0,0,1.44,4.06c1.51,2.56,2.09,5.46,3.32,8.08.94,2,.8,4.53,2.73,6,1,.75,2.16,1.23,3.21,1.9a4.15,4.15,0,0,1,1,1.09,14.36,14.36,0,0,1,2,3c.69,1.65,1.77,3.12,2.54,4.73a5.33,5.33,0,0,1,.09,2c0,1,0,2,.09,3a9,9,0,0,1,.16,1,19.41,19.41,0,0,0-.28,4.27c.48,2.9,1.38,5.73,1.94,8.63a38,38,0,0,0,3,8.36c.67,1.48,1.52,2.88,2.29,4.31l.44-.15c.08-1.16.17-2.33.23-3.49.14-3.05.25-6.1.38-9.15.11-2.58.31-5.16.28-7.74a9.93,9.93,0,0,0-.89-2.77l.31-.26a14.79,14.79,0,0,1,1.39,1.59A15.68,15.68,0,0,0,44,42c2,1.8,3.6,4,5.41,6,.88,1,1.83,1.85,2.77,2.74.73.67.63,1.24.42,2.24-.5,2.34-1.75,4.56-.52,7.24,2.06,4.5,3.66,9.22,5.46,13.84a11.28,11.28,0,0,0,.61,1.13c1.19,2.34,1.37,5,2.43,7.41.46,1.07.75,2.22,1.12,3.33a.32.32,0,0,0,.17.19c1.62.36,2.16,2,3.4,2.84.28.19.59.32,1,.54L66,88l.43-.1,1.08,3.65.6,0a25.27,25.27,0,0,0,.39-3c0-2-.22-3.92-.14-5.87a21.44,21.44,0,0,0-.78-7.22c-1-3.31-1.87-6.66-2.92-10-.61-1.92-1.47-3.77-2.18-5.67-.09-.23,0-.54.06-1.06.48.35.87.5,1,.79,2,3.11,5.32,4.64,7.91,7,1,.9,1.83,1.93,2.79,2.85a22.25,22.25,0,0,0,2.45,2.1A33.18,33.18,0,0,0,90.9,77.21a50.64,50.64,0,0,0,7.89.06c1.16,0,2.32,0,3.47-.1a14.14,14.14,0,0,0,1.45-.24l.13-.4c-.42-.29-.81-.75-1.27-.82-3.83-.61-7.24-2.42-10.83-3.72q-5.79-2.08-11.45-4.48A32.47,32.47,0,0,1,76.2,65.1l.26-.43a10.45,10.45,0,0,0,1.52.87c3,1.1,5.91,2.15,8.86,3.25q5.1,1.9,10.18,3.85c3,1.14,5.93,2.41,9,3.38a10,10,0,0,0,3.71,0c.27,0,.51-.53.62-.66-2.73-1.63-5.23-3.15-7.75-4.62s-5.27-3.09-7.95-4.55A23.63,23.63,0,0,0,89.84,64c-3.31-.95-6.7-1.61-10.06-2.39-2.85-.66-5.73-1.21-8.53-2a32.54,32.54,0,0,1-9.74-4.89c-1.8-1.29-3.68-2.47-5.55-3.71.81-.41,1.18-.32,2.68.42A37.15,37.15,0,0,0,62.4,53a26.51,26.51,0,0,0,14.5,1c2.76-.56,5.55-1,8.33-1.5l.18-.48A10.26,10.26,0,0,0,84,50.81c-2.18-1.3-4.37-2.58-6.6-3.81s-4.39-2.34-6.6-3.5c-.85-.45-1.72-.88-2.57-1.33a34,34,0,0,0-10.95-3c-2.82-.41-5.65-.78-8.48-1.13-1.92-.23-3.85-.39-5.77-.61-.61-.07-1.39,0-1.09-1.09.07-.28-.37-.74-.65-1.06a59.23,59.23,0,0,0-5.57-6.42c-1.56-1.39-2.2-3.17-3.18-4.81a2.65,2.65,0,0,1-.33-1.53l8.9,2.39C39.7,22.65,38.32,21,36,20.1c.14-.15.2-.25.29-.3a2.28,2.28,0,0,1,.4-.17L21.89.2ZM66.41,87.37l-.33.19c-.19-.14-.49-.24-.56-.43-.68-1.81-1.43-3.6-2-5.46C62.24,77,61,72.3,59.76,67.61c-.75-2.91-1.45-5.83-2.12-8.76a25.54,25.54,0,0,1-.41-3c0-.22.22-.46.38-.77C61,65.81,62.1,77,66.41,87.37ZM78.19,50.79c-.43.23-.5.3-.58.3a5.08,5.08,0,0,1-.78,0c-6.16-.55-12.2-1.57-17.83-4.31-2.1-1-4.23-2-6.33-3a4,4,0,0,1-.89-.81c4.41,1.45,8.53,3.28,12.81,4.59S73.44,49.69,78.19,50.79Z" transform="translate(1.61 -0.2)"/><path d="M475.4.2,460.61,19.6l.77.48a8.7,8.7,0,0,0-4.87,4.71l8.53-2.3.28.34c-1.09,1.84-1.51,4-3.28,5.54a18.64,18.64,0,0,0-1.54,2c-1.33,1.48-2.73,2.89-4,4.37-.51.57-1.4,1-1.06,2.07a2.47,2.47,0,0,1-1.14.54c-3.72.42-7.47.65-11.17,1.2-5.13.76-10.29,1.55-15,3.93-1.86.94-3.63,2.09-5.45,3.11-3.11,1.74-6.25,3.43-9.34,5.19A9.14,9.14,0,0,0,411.88,52l.18.5c3.29.58,6.57,1.22,9.87,1.72a21.12,21.12,0,0,0,10-.46c3.11-1,6.21-2.11,9.43-2.94-1.55,1.1-3.08,2.21-4.64,3.28-1.17.81-2.33,1.63-3.56,2.32a25.24,25.24,0,0,1-4.32,2.08c-3.17,1.05-6.39,2-9.62,2.81-2.13.54-4.37.65-6.5,1.19-2.65.67-5.38,1-7.79,2.63-2.2,1.44-4.73,2.36-7,3.68-2,1.18-3.85,2.68-5.87,3.88-1.53.9-3.22,1.54-5,2.35-.29.62,0,1,.79,1.09a7.84,7.84,0,0,0,4.33-.4c4.92-1.9,9.88-3.71,14.83-5.56,4.19-1.58,8.38-3.15,12.56-4.75a6.28,6.28,0,0,0,1.19-.84l.24.23c-.28.29-.51.68-.84.84C417.77,66.82,415.4,68,413,69c-3.71,1.52-7.46,2.93-11.22,4.33-2.28.84-4.6,1.55-6.9,2.35a9.37,9.37,0,0,0-1.38.76l.07.51c1.14.15,2.28.37,3.43.42,1.54.06,3.1-.08,4.65,0a29.4,29.4,0,0,0,11.36-2,37.83,37.83,0,0,0,9.4-5.33c.78-.56,1.33-1.44,2.07-2.07,2.67-2.22,5.38-4.39,8.06-6.61.25-.2.35-.57.55-.84.44-.58.89-1.15,1.34-1.72l.49.25c-.19.7-.34,1.4-.58,2.08-1,2.7-2.11,5.37-3,8.11-.72,2.31-.86,4.83-1.79,7-1,2.47-.43,5-.69,7.41a50.73,50.73,0,0,0,.12,6.63,6.56,6.56,0,0,0,.28,1.17c1.74-.68.61-2.69,2-3.49l-.21,1.2.24.28c.81-.74,1.61-1.47,2.41-2.22.12-.11.12-.39.24-.44,2.36-.93,2.29-3.33,3-5.17.67-1.63,1.63-3.23,1.33-5.17-.05-.36.63-.77.82-1.23,1.47-3.45,2.93-6.91,4.34-10.39.77-1.87,1.45-3.77,2.14-5.67a3,3,0,0,0,.28-1.51c-.38-1.71-.94-3.37-1.3-5.08a2.3,2.3,0,0,1,.38-1.72c1.7-2,3.48-3.91,5.29-5.8,1.27-1.32,2.71-2.49,4-3.84a22.86,22.86,0,0,0,1.54-2.54,16.91,16.91,0,0,1,1.38-1.64c.21.27.31.37.29.4-1.19,2.4-.81,4.91-.66,7.45.25,4,.31,8,.47,12,0,1.19.12,2.38.19,3.56l.34.18a19,19,0,0,0,1.58-2.52C460.74,55,462.43,52,463,48.47c.33-2,1.17-4,1.6-6a30.06,30.06,0,0,0,.39-4.15c.11-1.63.19-3.25.26-4.87a5.19,5.19,0,0,0-.07-2c-.64-1.57,0-2.83.7-4.14a27,27,0,0,1,2.5-4.44c1.09-1.27,2-3,3.78-3.44,2.17-.57,2.87-2.35,3.53-4.15.49-1.32.9-2.67,1.36-4,.24-.69.46-1.39.75-2.07.69-1.6,1.46-3.17,2.12-4.79.55-1.37,1-2.79,1.49-4.19Zm-35.76,55H440a6.14,6.14,0,0,1,0,1c-.63,3.36-1.21,6.74-2,10.08-.61,2.72-1.35,5.42-2.17,8.08-1.27,4.2-2.65,8.36-4,12.53-.08.26-.43.43-.65.64l-.31-.22C435.21,77,436.26,65.78,439.64,55.19Zm-20.21-4.36c9-1.51,17.52-4.68,26-7.84A49.5,49.5,0,0,1,419.43,50.83Z" transform="translate(1.61 -0.2)"/><path d="M500,217.66q-1.53,3.42-3.07,6.84c-.86,1.9-1.76,3.79-2.6,5.71s-1.62,3.82-2.37,5.75a47.63,47.63,0,0,1-2.36,6.21c-2,3.66-3.09,7.64-4.42,11.55a5.5,5.5,0,0,1-1.37,2.17,1.84,1.84,0,0,0-.54,2.1c.35,1.11.83,2.18,1.18,3.29.54,1.67,1,3.37,1.53,5,.3.91.76,1.77,1.14,2.66l.35-.1a10.32,10.32,0,0,0,.5-2.58c-.19-3.28,1-6.2,2.16-9.14,1-2.64,2-5.31,3.14-7.88a36.17,36.17,0,0,1,2.7-4.72,12.89,12.89,0,0,0,1.64-6.15,42.06,42.06,0,0,1,1.66-10.08c.3-.92.49-1.89.73-2.84Z" transform="translate(1.61 -0.2)"/><path d="M500,9.86c-2.69,2.28-5.41,4.51-8,6.86-1.7,1.53-3.19,3.26-4.84,4.84-1,1-2.16,1.87-3.26,2.77a61.69,61.69,0,0,0-6.18,5c-2.1,2.19-4.77,3.32-7.27,4.79a2.49,2.49,0,0,0-.87,1.07c-1.15,2.38-2.29,4.77-3.37,7.2a9.77,9.77,0,0,0-.41,2.06l.4.28a13.83,13.83,0,0,0,1.77-1.26c1.14-1.08,2.17-2.3,3.34-3.35,2.28-2.08,5.2-3.21,7.66-5s4.61-3.57,6.93-5.34c.44-.34,1-.56,1.45-.86,1.84-1.14,3.62-2.37,5.5-3.41,1.71-.94,2.07-2.72,2.92-4.19,1.16-2,2.23-4.06,3.34-6.1l.92-1.72Z" transform="translate(1.61 -0.2)"/><path d="M25.28.2a42.77,42.77,0,0,0,5,7.32c1.46,1.54,2.44,3.53,3.71,5.26a72.15,72.15,0,0,0,5.41,7,22.41,22.41,0,0,1,3.34,4.75A2.93,2.93,0,0,0,45,26.11c2.15.38,4.27,1,6.41,1.44a7.61,7.61,0,0,0,1.15,0c-.69-1-1.19-1.79-1.72-2.55-1-1.47-2.06-3-3.12-4.4s-2-2.61-3-3.9c-1.62-2.05-3.21-4.13-4.91-6.13-1.45-1.72-3.09-3.29-4.54-5S32.42,2,31,.2Z" transform="translate(1.61 -0.2)"/><path d="M466.26.2a21.68,21.68,0,0,1-5.36,6.2,5.11,5.11,0,0,0-.72.75c-1.12,1.4-2.25,2.8-3.36,4.21q-2.34,3-4.65,6c-2.09,2.72-4.19,5.44-6.24,8.18a12.88,12.88,0,0,0-1,2,16.81,16.81,0,0,0,2-.18c1.8-.41,3.58-1,5.39-1.29a2.68,2.68,0,0,0,2.16-1.63c1-2.34,2.79-4.05,4.3-6,2-2.56,4-5.11,6-7.69,1.53-2,3.07-4,4.51-6.1,1-1.45,1.84-3,2.76-4.51Z" transform="translate(1.61 -0.2)"/><path d="M500,1.25c-1.17,1-2.34,2-3.49,3s-2.13,2-3.27,3c-3.11,2.49-6.27,4.93-9.39,7.41-1,.83-2,1.78-3.06,2.55s-2.21,1.33-3.3,2a2.78,2.78,0,0,0-1,.91c-1.68,3.55-3.31,7.12-4.93,10.7-.1.22,0,.54,0,.81.31-.08.69-.08.9-.27,1.54-1.44,3-3,4.56-4.37s3.54-3,5.29-4.46c1.38-1.17,2.76-2.34,4.07-3.58a56.62,56.62,0,0,1,6.15-5.33,6.17,6.17,0,0,0,1.14-1.34,5.75,5.75,0,0,1,.54-.73c1.34-1.23,2.68-2.46,4.06-3.65A17.08,17.08,0,0,1,500,6.73Z" transform="translate(1.61 -0.2)"/><path d="M500,23.44l-1.27-1.91c-.51.62-1,1.22-1.53,1.85-1.79,2.27-1.77,5-1.84,7.65-.06,1.81-.11,3.61,0,5.41.14,2.61.68,5.23.55,7.82-.09,1.74.4,3.4.29,5-.22,3.6.19,7.17.17,10.75a4.35,4.35,0,0,0,.25.74,9.31,9.31,0,0,0,1.34-1.29c.74-1.11,1.38-2.28,2.06-3.42Z" transform="translate(1.61 -0.2)"/><path d="M5.44.2c1,1.78.72,3.68.61,5.19,3,2.6,5.85,5.1,8.72,7.58C16,14,17.28,15.07,18.56,16.1a3.78,3.78,0,0,0,.9.37l.37-.25L13,.2Z" transform="translate(1.61 -0.2)"/><path d="M484.28.2l-6.81,16,.41.37c.54-.37,1.1-.72,1.61-1.13,2.73-2.23,5.45-4.48,8.17-6.72.13-.11.27-.21.39-.33l3.19-2.88C491.15,4,490.82,2,491.85.2Z" transform="translate(1.61 -0.2)"/><path d="M54.78.2C57.32.79,59.89,1.29,62.39,2c2.32.66,4.56,1.58,6.86,2.32a2.07,2.07,0,0,0,1.43,0c1-.47.95-.85.07-1.55S68.81,1.05,67.84.2Z" transform="translate(1.61 -0.2)"/><path d="M429.45.2c-1.11,1-2.24,1.88-3.32,2.85a1,1,0,0,0-.14.78,3.69,3.69,0,0,0,1.58.66A2.93,2.93,0,0,0,429.15,4c2-1.21,4.31-1.5,6.52-2.06L442.51.2Z" transform="translate(1.61 -0.2)"/><path d="M500,252.64c-1.17.54-.66,1.68-.66,2.44,0,3.25.22,6.51.38,9.76a3.39,3.39,0,0,0,.28.85Z" transform="translate(1.61 -0.2)"/><path d="M0,.2l3.64,4,.6-.4L2.83.2Z" transform="translate(1.61 -0.2)"/><path d="M494.46.2c-.45,1.19-.91,2.38-1.37,3.58l.6.4,3.64-4Z" transform="translate(1.61 -0.2)"/><path d="M500,235.93c-.14,2.21-.33,4.41-.4,6.61-.05,1.84,0,3.68.09,5.53a2,2,0,0,0,.31.66Z" transform="translate(1.61 -0.2)"/><path d="M500,268.3a37,37,0,0,0-.76,3.71c0,.38.49.83.76,1.25Z" transform="translate(1.61 -0.2)"/><path d="M495.4,288.3a13.44,13.44,0,0,0-1.82-1.8,28.38,28.38,0,0,0-3.12-1.7q-5.1-2.6-10.22-5.17a6.79,6.79,0,0,0-.83-.37c-2.74-1.07-5.52-2.05-8.22-3.21a24.57,24.57,0,0,1-3.33-2.07l-.92-.58-.36.28c.53,1,1.09,1.93,1.58,2.93a7.09,7.09,0,0,1,.61,1.82c.05.26-.24.58-.38.88-.25-.14-.62-.2-.73-.41-1-1.67-2.89-2.68-3.19-4.78a.86.86,0,0,0-.37-.52c-2.33-1.64-3-4.49-4.74-6.54-.28-.32-.25-.9-.41-1.34-.23-.61-.5-1.2-.75-1.81l-.56,0c-.26,1.45-.56,2.9-.76,4.35-.3,2.1-.49,4.21-.81,6.31-.27,1.79-.07,2,1.68,2.56a51.6,51.6,0,0,1,7.66,2.62c2.46,1.19,5,2,7.54,3,2.38.88,4.62,2.15,7,3.12,2.09.87,4.24,1.58,6.47,2.39l.48-1.33c3.1,4.4,8.25,5.23,12.18,8.1l.38-.34c-.28-1.37-.53-2.74-.84-4.11-.45-2.05-1.07-4.07-1.39-6.13-.42-2.76-.68-5.55-.9-8.34-.26-3.19-.58-6.4-.55-9.59,0-4.48.35-9,.59-13.43,0-.5.4-1,.42-1.49a4.82,4.82,0,0,0-.33-1.4c-.39.26-.94.45-1.13.82a17.74,17.74,0,0,0-.69,2.21c-.45,1.3-1,2.58-1.41,3.9-.89,2.79-1.76,5.6-2.6,8.41-.4,1.32-.6,2.72-1.11,4-1.21,3,.21,5.41,1.63,7.89s2.64,5.11,4,7.67a6.82,6.82,0,0,1,.57,1c.18.61.24,1.24.36,1.87Z" transform="translate(1.61 -0.2)"/><path d="M23,225.81c.5-1.08.86-1.76,1.12-2.48.76-2.1,1.49-4.21,2.21-6.32a1.11,1.11,0,0,0,.05-.51c-.51-4.95-.74-9.95-1.63-14.83A146.2,146.2,0,0,0,21,187.5a40.42,40.42,0,0,0-2-4.73c-1.34,1.63-2.68,3.24-4,4.86-.76.94-1.52,1.89-2.23,2.87a1.51,1.51,0,0,0-.3,1.1c1.58,4.35,3.28,8.65,4.79,13,1.13,3.26,2.15,6.57,3,9.9.83,3.17,1.41,6.4,2.12,9.6C22.48,224.56,22.69,225,23,225.81Z" transform="translate(1.61 -0.2)"/><path d="M475.74,182.78c-2.63,5.31-4,10.85-5.26,16.42a63,63,0,0,0-1.72,15.06,1.69,1.69,0,0,1-.09.63c-.67,1.93.19,3.59.88,5.3.62,1.51,1.11,3.08,1.67,4.62a9.69,9.69,0,0,0,.53,1c.26-.9.48-1.49.6-2.1.53-2.58.91-5.19,1.59-7.73.92-3.46,2-6.88,3.13-10.27.88-2.62,1.95-5.18,2.91-7.77.79-2.1,1.55-4.22,2.3-6.34a.88.88,0,0,0,0-.7C480.09,188.16,477.92,185.49,475.74,182.78Z" transform="translate(1.61 -0.2)"/><path d="M10.56,193.26c-1.66,2.07-3,3.84-4.46,5.56-2.53,3-2.45,3-.35,6.31,1.43,2.29,2.55,4.76,3.84,7.13,1.09,2,2.36,4,3.32,6.07,1.12,2.42,2.07,4.93,2.95,7.45,1,3,1.93,6,2.85,9a12.83,12.83,0,0,1,.26,2,14.39,14.39,0,0,0,.77-1.42c1-2.77,1.91-5.54,2.81-8.33a1.34,1.34,0,0,0-.28-1,11.55,11.55,0,0,1-1.55-2.17c-.91-2.69-1.65-5.44-2.46-8.17-1-3.2-1.82-6.43-2.87-9.61-.89-2.7-2-5.34-3-8-.35-.93-.68-1.86-1-2.78C11.15,194.74,10.93,194.19,10.56,193.26Z" transform="translate(1.61 -0.2)"/><path d="M475.54,236.4c1.4-4.45,2.67-8.83,4.18-13.13a64.09,64.09,0,0,1,3-6.28c.39-.81.75-1.64,1.14-2.45,1-2.12,1.92-4.3,3.08-6.34,1-1.79,2.28-3.44,3.46-5.14.41-.6.67-1.14.1-1.85-2-2.51-4-5.07-6.31-7.92-.37.88-.63,1.47-.86,2.07q-1.74,4.47-3.46,8.95c-.37,1-.68,2-1,2.95-.53,1.76-1,3.54-1.56,5.31-1.08,3.67-2.13,7.34-3.25,11-.3,1-.36,2.2-1.71,2.54-.16,0-.36.53-.29.73,1.06,3.09,2.17,6.17,3.27,9.26A1.48,1.48,0,0,0,475.54,236.4Z" transform="translate(1.61 -0.2)"/><path d="M27.77,273.47A11.3,11.3,0,0,0,25,275c-1.53,1.52-3.62,1.67-5.4,2.54-4,2-8.1,3.76-12.14,5.67-2,.93-4,1.9-5.9,3-.62.34-1,1.06-1.61,1.52a6.24,6.24,0,0,1-1.21.61V293c3.53-1.25,6.69-2.83,9.06-6l.49,1.47c1.12-.49,2.16-1,3.24-1.42,3.07-1.22,6.16-2.44,9.25-3.62,2.26-.86,4.57-1.6,6.82-2.49,1.58-.62,3.07-1.47,4.65-2.09s3.21-1.17,4.85-1.65,1.74-.74,1.53-2.3c-.39-2.83-.72-5.67-1.11-8.5-.11-.79-.34-1.56-.51-2.34l-.36-.06c-.24.31-.64.6-.69.95-.31,2.1-1.88,3.52-2.7,5.31a10.44,10.44,0,0,1-2.54,3.23,1.58,1.58,0,0,0-.53.73c-.28,2.12-2.26,3.1-3.19,4.78-.11.2-.49.25-.75.36-.12-.3-.43-.67-.34-.89.43-1.12.95-2.2,1.46-3.28.22-.48.47-.94.71-1.41Z" transform="translate(1.61 -0.2)"/><path d="M39,253.31c-1.53,1.06-3,2.16-4.58,3.17-2.06,1.34-4.19,2.58-6.25,3.92-1.28.83-2.45,1.84-3.74,2.64-1.83,1.13-3.84,2-5.58,3.24-2.34,1.68-4.4,3.76-6.76,5.41s-3.2,4.07-5.15,5.72-2.61,4-4.28,6.11c2.16-1.19,4-2.16,5.8-3.22a46.37,46.37,0,0,0,5.9-3.8c2.23-1.86,5-2.44,7.47-3.73,2.21-1.15,4.66-1.83,6.92-2.9a7.15,7.15,0,0,0,2.51-2.13c1.68-2.24,3.2-4.58,4.75-6.9a1.17,1.17,0,0,0,.1-1c-.53-1,.11-1.58.79-2.13C38.25,256.6,38.56,255,39,253.31Z" transform="translate(1.61 -0.2)"/><path d="M492,283.49c-1.65-2.1-2.26-4.54-4.28-6.13a28.09,28.09,0,0,1-2.27-2.66,84.33,84.33,0,0,0-6.5-6.33,66.7,66.7,0,0,0-6.51-4.24c-1.8-1.16-3.6-2.33-5.42-3.46-.65-.41-1.39-.67-2-1.09-2.45-1.6-4.88-3.24-7.31-4.87-.66-.45-1.3-.93-2-1.41-.21,1.36,1.13,3.65,3.18,5.43-1.35,1.89.58,3,1.28,4.28,1,1.85,2.43,3.44,3.59,5.2,1,1.59,2.79,1.73,4.3,2.38,2.07.9,4.09,1.88,6.15,2.78,1.52.67,3.1,1.23,4.6,1.94.58.27,1,.88,1.54,1.25,1.92,1.26,3.84,2.52,5.81,3.7C488,281.34,489.83,282.3,492,283.49Z" transform="translate(1.61 -0.2)"/><path d="M492.76,31c-.39.69-.8,1.37-1.14,2.07-1.63,3.39-3.23,6.79-4.86,10.17-.14.29-.57.45-.7.74a6.28,6.28,0,0,0-.93,2.5c.07,2.3.39,4.59.63,6.89.19,1.87.4,3.73.6,5.6.14,1.32.26,2.64.42,3.95q.54,4.36,1.12,8.72c0,.2.18.37.39.8.82-1,1.55-1.84,2.22-2.73.85-1.12,1.56-2.38,2.51-3.41s1.76-2.05,1.27-3.7a27.51,27.51,0,0,1-1.06-5.24c-.2-1.92-.13-3.87-.16-5.81,0-1.27,0-2.54,0-3.8,0-2.08-.05-4.17-.1-6.25,0-1.23-.17-2.47-.13-3.7.06-2,.22-4.09.33-6.13a2.91,2.91,0,0,0-.09-.58Z" transform="translate(1.61 -0.2)"/><path d="M4.39,31.12c0,1.39,0,2.79,0,4.18,0,1.05.2,2.09.21,3.14,0,2.65.11,5.3-.06,7.93-.08,1.25,0,2.51-.11,3.69-.11,1.55-.1,3.07-.09,4.63a17.82,17.82,0,0,1-.64,3.49c-.34,1.8-.78,3.59-1,5.4a3.17,3.17,0,0,0,.73,1.91c1.63,2.2,3.34,4.34,5,6.49.1.12.29.16.72.38.22-1.18.48-2.24.61-3.31.42-3.45.82-6.91,1.17-10.37s.65-7.06,1-10.59a8.73,8.73,0,0,0,.22-1.51c-.06-.7,0-1.59-.46-2-2.18-2.39-3-5.47-4.5-8.22-.93-1.74-1.74-3.55-2.6-5.32Z" transform="translate(1.61 -0.2)"/><path d="M-1.61,11.19c.28,2,.22,4.19.93,6a50.71,50.71,0,0,0,3.73,7,3,3,0,0,0,1,1c2,1.26,4,2.46,5.91,3.74q3.62,2.4,7.16,4.9c1.88,1.32,3.57,3,5.6,4C25,39,26.62,41,28.63,42.46c.8.59,1.44,1.38,2.18,2,.1.1.32.06.79.13a12.28,12.28,0,0,0-.49-2.31c-1-2.34-2.11-4.67-3.28-6.95A4.06,4.06,0,0,0,26.32,34c-1.8-1.13-3.72-2.06-5.45-3.28a64,64,0,0,1-5.6-4.52c-3-2.69-6-5.45-8.94-8.21C3.86,15.64,1.43,13.29-1,11Z" transform="translate(1.61 -0.2)"/><path d="M466.37,211.78c.7-4.35,1.37-8.56,2.08-12.77a66.27,66.27,0,0,1,1.28-6.57c.66-2.4,1.56-4.75,2.45-7.09.48-1.27,1.2-2.45,1.75-3.69a1.29,1.29,0,0,0,0-1.07c-1.94-2.54-3.93-5.05-6-7.73-.73,2.58-1.35,4.95-2.07,7.28-.58,1.86-1.37,3.65-1.89,5.52-.8,2.81-1.44,5.66-2.14,8.49-.19.76-.28,1.55-.54,2.27-.73,2,.48,3.72,1.06,5.46,1.06,3.17,2.43,6.24,3.67,9.36A4.44,4.44,0,0,0,466.37,211.78Z" transform="translate(1.61 -0.2)"/><path d="M26.66,173c-1.66,2.08-3.24,4.19-5,6.17-1.2,1.36-1,2.39-.19,4a44.43,44.43,0,0,1,4.23,12.56c.7,3.85,1.14,7.75,1.7,11.62a2,2,0,0,0,0,.26l.87,4a1.08,1.08,0,0,0,.31-.36c1.25-3.11,2.5-6.22,3.72-9.34a19.22,19.22,0,0,0,1.11-3.31,6.09,6.09,0,0,0-.17-2.54c-.61-2.59-1.26-5.18-2-7.74-1.44-5-2.94-10-4.42-15C26.88,173.21,26.79,173.16,26.66,173Z" transform="translate(1.61 -0.2)"/><path d="M10.26,269.71c.94-.78,1.86-1.6,2.83-2.34,1.74-1.32,3.47-2.66,5.28-3.88,2.86-1.92,5.76-3.8,8.72-5.58,1.64-1,3.45-1.73,5.16-2.62.49-.25.87-.7,1.35-1,1.88-1.1,3.74-2.22,5.67-3.21a3.26,3.26,0,0,0,1.84-2.62c.29-2.1.49-4.22.66-6.33a.86.86,0,0,0-1.45-.81c-1.64,1.24-3.19,2.61-4.79,3.91a15.32,15.32,0,0,1-1.73,1.3c-1.36.83-2.8,1.51-4.1,2.4-2.33,1.61-4.53,3.41-6.9,5-1.32.87-2.2,2.37-4,2.58-.58.07-1.06,1-1.58,1.51l-4.63,4.83a2.14,2.14,0,0,0-.46.59c-.28.66-.55,1.32-.77,2-.45,1.36-.86,2.74-1.29,4.11Z" transform="translate(1.61 -0.2)"/><path d="M484.72,269.47c-.57-1.5-1.19-3-1.7-4.51-1.14-3.33-4.47-4.79-6.27-7.51-.52-.8-1.21-.92-1.86-1.32-1-.65-2-1.4-3-2.13-1.42-1.07-2.81-2.19-4.26-3.22s-3.21-2.21-4.84-3.28c-.89-.59-1.86-1.06-2.71-1.7-1.58-1.18-3.1-2.45-4.65-3.67a7.61,7.61,0,0,0-1.12-.84c-.76-.4-1.48,0-1.41.78.23,2.33.56,4.64.83,7,.14,1.21,1,1.72,2,2.17A35.51,35.51,0,0,1,462,255a41.37,41.37,0,0,0,4.61,2.59c1.8,1,3.61,2.05,5.37,3.14,2,1.24,4,2.5,5.92,3.86,1.71,1.22,3.31,2.58,5,3.87l1.58,1.27Z" transform="translate(1.61 -0.2)"/><path d="M37.86,1.53c.72.33,1.46.61,2.14,1,2.38,1.37,4.73,2.8,7.1,4.17,1.6.92,3.29,1.69,4.82,2.7,1.89,1.26,3.93.82,5.95.85.33,0,.75-.14,1,0,1.28.82,2.68.41,4,.56,3,.34,6,.24,8.76,1.83a15.86,15.86,0,0,0,3.09.93c1,.31,1.92.74,2.91,1a9.16,9.16,0,0,0,1.9.12,4.3,4.3,0,0,0-.4-1.49c-1.2-1.52-2.48-3-3.73-4.44a7.05,7.05,0,0,0-.7-.89A4.23,4.23,0,0,0,73.29,7c-3-.74-6-1.42-9-2.08-1.65-.35-3.3-.64-5-.92-4.48-.76-9-1.53-13.45-2.21-1.19-.18-2.42,0-3.62-.08C40.85,1.6,39.41,1.4,38,1.24Z" transform="translate(1.61 -0.2)"/><path d="M459.6,1.23l-4.4.44c-4,.39-8.08.68-12.09,1.23-2.74.37-5.43,1.13-8.15,1.7-3.71.79-7.43,1.56-11.15,2.37a2.11,2.11,0,0,0-1.07.62c-1,1.08-1.88,2.21-2.8,3.34a32.1,32.1,0,0,0-2,2.55c-.22.32-.14.84-.2,1.27a4.2,4.2,0,0,0,1.48.11c1.76-.54,3.49-1.16,5.22-1.8a20.77,20.77,0,0,1,3.09-1.24c2.57-.46,5.12-1.23,7.79-.92a3.36,3.36,0,0,0,1.55-.06c2.06-.87,4.18-.39,6.27-.53,1.28-.09,2.51-1.08,3.73-1.74,2.51-1.38,5-2.79,7.5-4.22C456.08,3.38,457.72,2.36,459.6,1.23Z" transform="translate(1.61 -0.2)"/><path d="M498.59,211.49,492.71,204c-.27.45-.5.79-.69,1.15-2,3.77-4,7.5-5.94,11.31-1.16,2.34-2.1,4.78-3.15,7.18-.93,2.13-1.87,4.25-2.78,6.39-.17.39-.22.84-.38,1.24-.92,2.38-1.95,4.73-2.72,7.17a6.42,6.42,0,0,0,.21,2.86,8,8,0,0,0,.78,1.67c.69-1.56,1.28-3,1.95-4.42.56-1.21,1.18-2.4,1.84-3.56q2.12-3.71,4.3-7.36c.75-1.26,1.53-2.51,2.36-3.73,1.41-2.07,2.84-4.12,4.31-6.15a24.08,24.08,0,0,1,1.94-2.22C496,214.21,497.18,213,498.59,211.49Z" transform="translate(1.61 -0.2)"/><path d="M491.06,29.17c-.31.21-.62.4-.92.62-1.4,1.05-2.79,2.12-4.2,3.17-1.66,1.24-3.33,2.48-5,3.69a93,93,0,0,1-9,6c-2.09,1.16-4.18,2.34-6.18,3.65a3.72,3.72,0,0,0-1.22,1.9c-.8,2.45-1.5,4.93-2.2,7.41a2.34,2.34,0,0,0,.14,1,2.34,2.34,0,0,0,.81-.17c2.14-1.3,4.27-2.63,6.4-3.94a76.06,76.06,0,0,0,7.27-4.57,41.3,41.3,0,0,0,5.91-5.35,51.57,51.57,0,0,0,4.52-5.93c.73-1.12,1.32-2.33,2-3.48.44-.73,1-1.41,1.39-2.15a11.55,11.55,0,0,0,.62-1.5Z" transform="translate(1.61 -0.2)"/><path d="M5.91,29.42a8,8,0,0,0,.53,1.39c1.32,2.23,2.59,4.48,4,6.62A45.28,45.28,0,0,0,14.18,42a28.75,28.75,0,0,0,4.08,4.1C20.73,48,23.41,49.51,26,51.19c1.36.89,2.7,1.8,4.07,2.69s2.67,1.73,4,2.56c.19.12.6.16.7.06a1,1,0,0,0,.21-.8c-.8-2.76-1.62-5.53-2.51-8.27a2.63,2.63,0,0,0-1.05-1.24c-1.09-.7-2.25-1.27-3.37-1.91-2.42-1.39-4.91-2.67-7.22-4.22-2.57-1.72-5-3.7-7.45-5.54-1.14-.85-2.35-1.61-3.48-2.47s-2-1.63-3-2.43a4.7,4.7,0,0,0-.77-.41Z" transform="translate(1.61 -0.2)"/><path d="M7.54,269a17.87,17.87,0,0,0,1.08-2.14c1-2.85,1.87-5.71,2.77-8.58a2.24,2.24,0,0,0-.45-2.36,13.15,13.15,0,0,1-1.85-3.64c-1.06-2.84-2-5.72-3-8.56-.26-.7-.79-1.3-1.08-2-1.71-4.08-3.4-8.15-5.06-12.25-.41-1-.65-2-1.15-3.09a5.34,5.34,0,0,0-.13.88c0,5.39,0,10.78,0,16.16a7.24,7.24,0,0,0,.92,2.78c1.17,2.49,2.59,4.87,3.62,7.41,1.44,3.59,3.07,7.13,3.52,11,.16,1.39.24,2.8.35,4.2Z" transform="translate(1.61 -0.2)"/><path d="M482.49,50c-.51,1-1,2-1.53,2.95-1.31,2.66-2.32,5.53-4,7.91-1.27,1.77-1.18,3.29-.91,5.15.37,2.49.42,5,.72,7.51.32,2.71.75,5.41,1.18,8.1.11.71.62.85,1.12.35,1.51-1.53,3-3.11,4.46-4.66a5.78,5.78,0,0,1,1.19-1,2.51,2.51,0,0,0,1.3-2.94c-.64-3.14-1.32-6.28-1.8-9.44-.53-3.58-.89-7.2-1.27-10.8a29.7,29.7,0,0,1,0-3.13Z" transform="translate(1.61 -0.2)"/><path d="M14.3,50.05c0,1.35.1,2.71,0,4-.18,2-.52,4-.77,6-.18,1.39-.24,2.8-.48,4.18-.52,3-1.07,6-1.7,8.92a2.57,2.57,0,0,0,1.39,3.24,4.82,4.82,0,0,1,1.06.91c1.49,1.55,3,3.13,4.47,4.65.49.5,1,.35,1.1-.38.28-2.25.44-4.51.77-6.75s.88-4.44,1.19-6.68a19,19,0,0,0,.22-5.09c-.16-1.14-1.17-2.15-1.72-3.26-.76-1.55-1.39-3.18-2.19-4.71-.91-1.72-2-3.38-2.93-5.06Z" transform="translate(1.61 -0.2)"/><path d="M2,204c-1.06,1.33-2.08,2.57-3,3.84a1.85,1.85,0,0,0-.26,1,14.9,14.9,0,0,1,0,2.22c-.58,2.67,1,4.29,2.66,6a33.11,33.11,0,0,1,2.46,3.26l1.48,1.94a22,22,0,0,1,1.84,2.5c1.16,2.1,2.18,4.29,3.33,6.41a31,31,0,0,0,3.23,5.54c1.55,1.83,1.73,4.21,3,6.19.33-.71.58-1.34.91-1.92.85-1.53-.06-2.87-.53-4.18-1.39-3.88-2.86-7.74-4.43-11.55-1-2.37-2.16-4.66-3.29-7Q7.21,213.93,5,209.63C4.07,207.8,3,206,2,204Z" transform="translate(1.61 -0.2)"/><path d="M82.85,28.2c-.42.92-.84,1-1.54.66-1.48-.79-3-1.49-4.52-2.22a1,1,0,0,0-.85,0c1.37,1.53,2.7,3.1,4.16,4.54.33.34,1.12.22,1.71.29l7.22.83c.37,0,.76,0,1.43,0L88,27.85c-.48-.87-.89-1.76-1.4-2.6Q85,22.48,83.2,19.76a5.37,5.37,0,0,0-1.4-1.68,9.1,9.1,0,0,0-3-1.3c-4.74-1-9.49-1.81-14.25-2.65-1.53-.27-3.08-.41-4.63-.56a3.23,3.23,0,0,0-1,.3c1.22.69,2.27,1.31,3.35,1.9,2.62,1.43,5.3,2.77,7.88,4.27,2.4,1.4,4.73,2.94,7.07,4.44C79.1,25.69,80.94,26.94,82.85,28.2Z" transform="translate(1.61 -0.2)"/><path d="M438.45,13.6c-.83.08-1.39.12-1.95.2-3.55.47-7.11.85-10.64,1.47-3.21.57-6.39,1.39-9.57,2.13a1.61,1.61,0,0,0-.79.61,38.64,38.64,0,0,0-5.58,8.83,48,48,0,0,1-2.76,4.8,2.94,2.94,0,0,0-.14.69c.59,0,1.09,0,1.58-.08,2.62-.27,5.25-.47,7.86-.85a3.54,3.54,0,0,0,1.93-1.14c1-1.17,1.9-2.49,2.79-3.69-2,.8-4.05,1.65-6.14,2.45-.15.06-.43-.25-.82-.49a30.54,30.54,0,0,1,2.57-2c2.63-1.62,5.31-3.16,8-4.76,1.93-1.18,3.78-2.49,5.75-3.6,2.48-1.4,5.05-2.66,7.58-4C438.14,14.18,438.17,14.08,438.45,13.6Z" transform="translate(1.61 -0.2)"/><path d="M22.93,234.05c1.85-1.47,3.42-2.79,5.08-4s3.68-2.52,5.56-3.71c1.51-.95,3.1-1.79,4.63-2.72,1.17-.71,2.27-1.54,3.46-2.2,2.87-1.6,5.81-3.07,8.63-4.74a3.85,3.85,0,0,0,1.11-2c.56-1.65,1-3.34,1.48-5a4,4,0,0,0,.26-1.49c-.11-.75-.57-1.13-1.26-.47-2.86,2.72-6.43,4.37-9.73,6.44-1.62,1-3.11,2.24-4.69,3.34-2.22,1.56-4.53,3-6.68,4.66-1.79,1.37-3.43,2.94-5.09,4.46a3.54,3.54,0,0,0-.68,1.24c-.67,1.57-1.35,3.15-2,4.75A5.91,5.91,0,0,0,22.93,234.05Z" transform="translate(1.61 -0.2)"/><path d="M471.75,233.86a5.21,5.21,0,0,0-.12-1.32c-.67-1.72-1.35-3.43-2.1-5.12a4,4,0,0,0-1-1.32c-2.1-1.74-4.16-3.54-6.37-5.13a58.6,58.6,0,0,0-5.93-4.13,76,76,0,0,1-6.56-4.48c-2.25-1.55-4.53-3.07-6.78-4.63-.8-.55-1.27-.39-1.39.55a1.77,1.77,0,0,0,0,.65c.79,2.44,1.58,4.87,2.42,7.3a1.33,1.33,0,0,0,.69.6A62.8,62.8,0,0,1,454,222c3.06,2,6.21,3.8,9.24,5.81,2,1.32,3.83,2.87,5.75,4.28C469.8,232.68,470.68,233.18,471.75,233.86Z" transform="translate(1.61 -0.2)"/><path d="M49.67,219.14c-1.4,1-2.83,1.89-4.19,2.92a28,28,0,0,1-6.17,4,30.9,30.9,0,0,0-3.39,2c-1,.6-2.09,1.12-3.12,1.73-1.36.8-2.63,1.78-4,2.44a24.57,24.57,0,0,0-6.32,4.8,8.26,8.26,0,0,0-1.55,2.58c-.84,1.79-1.62,3.61-2.39,5.43a4.92,4.92,0,0,0-.15,1.18c1.76-1.49,3.26-2.87,4.86-4.1,1.34-1,2.81-1.86,4.2-2.82s3-2.21,4.54-3.26c1-.66,2.06-1.2,3.08-1.8,1.65-1,3.27-2,4.94-2.93,1.95-1.1,3.91-2.19,5.92-3.19a3.07,3.07,0,0,0,1.85-1.95c.56-1.77,1.41-3.44,2.06-5.18a7.33,7.33,0,0,0,.22-1.77Z" transform="translate(1.61 -0.2)"/><path d="M444.8,219c-.05.6-.23,1.05-.1,1.39.83,2.27,1.65,4.55,2.66,6.74.25.55,1.16.81,1.79,1.16,2.37,1.33,4.74,2.64,7.1,4,2,1.12,4,2.28,6,3.42,0,0,.1,0,.12,0,.93,1.74,2.94,2,4.33,3.09s2.77,1.78,4.11,2.73c1,.73,1.94,1.58,2.89,2.4a15.55,15.55,0,0,0,2.68,2,8.93,8.93,0,0,0-.33-1.4,46.53,46.53,0,0,0-3-6.7,13.46,13.46,0,0,0-3.87-3.55c-2.38-1.64-4.88-3.12-7.38-4.59-3.3-1.93-6.71-3.69-9.95-5.7-2.13-1.32-4.07-3-6.09-4.45C445.5,219.45,445.24,219.31,444.8,219Z" transform="translate(1.61 -0.2)"/><path d="M33.86,163.91c-2,2.55-3.73,4.78-5.44,7.06a1.31,1.31,0,0,0,0,1.05c1.49,4.13,3.1,8.21,4.48,12.38.84,2.51,1.3,5.15,2,7.72a12,12,0,0,0,.58,1.51l.37,0c.3-.78.6-1.56.92-2.33.91-2.2,1.86-4.38,2.72-6.6a3.78,3.78,0,0,0-.1-3.37,13.14,13.14,0,0,1-1-2.86c-.44-1.6-.73-3.25-1.2-4.84s-1.11-3-1.64-4.59c-.31-.9-.54-1.82-.82-2.73C34.44,165.65,34.2,165,33.86,163.91Z" transform="translate(1.61 -0.2)"/><path d="M459.41,193.62c.31-1.35.58-2.71.93-4.06.63-2.41,1.21-4.84,2-7.21,1-3,2.19-6,3.3-9,0-.08,0-.19.07-.25,1.43-1.64.25-2.8-.73-4L460.81,164c-.42,1.21-.79,2.21-1.1,3.22-.79,2.58-1.53,5.18-2.34,7.75-.75,2.39-1.61,4.74-2.32,7.15a3.63,3.63,0,0,0,.06,2.14c1.11,2.95,2.32,5.86,3.51,8.78a3.58,3.58,0,0,0,.34.52Z" transform="translate(1.61 -0.2)"/><path d="M460.68,2.8c-.83.55-1.65,1.14-2.5,1.66-1.62,1-3.3,1.91-4.89,2.94a54.94,54.94,0,0,0-6.15,4.24,67.18,67.18,0,0,0-5.38,5.67c-1.56,1.7-3.08,3.45-4.62,5.18-.06.07-.13.12-.18.19-1.39,2-2.78,3.94-4.15,5.92a6.14,6.14,0,0,0-.41.87,8.43,8.43,0,0,0,1.83.2c2.23-.31,4.44-.67,6.64-1.1a2.2,2.2,0,0,0,1.33-.89c1.54-2.53,2.88-5.21,4.53-7.66,1.35-2,3.08-3.76,4.58-5.68.41-.53.49-1.31.87-1.86a18,18,0,0,1,1.95-2.32c2.08-2.12,4.21-4.2,6.3-6.31a3,3,0,0,0,.44-.86Z" transform="translate(1.61 -0.2)"/><path d="M64.86,29.53C57.77,17.91,48.63,8.85,36.19,3c.79.83,1.41,1.49,2,2.14,2.24,2.28,4.5,4.53,6.69,6.85.28.3.06,1,.32,1.39,1.45,1.9,3,3.74,4.47,5.59a9.49,9.49,0,0,1,.9,1.11c1.51,2.56,3,5.16,4.51,7.68a2.6,2.6,0,0,0,1.6.91c2,.42,4.07.74,6.12,1A10.42,10.42,0,0,0,64.86,29.53Z" transform="translate(1.61 -0.2)"/><path d="M467.8,222.26c-.8-2.21-1.46-4.12-2.19-6a11.72,11.72,0,0,0-1.51-3.12,12.54,12.54,0,0,0-3-2.55c-2.32-1.47-4.76-2.77-7.11-4.19-.7-.42-1.23-1.11-1.93-1.52-1.87-1.07-3.86-2-5.69-3.12-1.54-1-2.9-2.2-4.41-3.22a7.25,7.25,0,0,0-1.86-.61,6.89,6.89,0,0,0-.16,1.73c.24,1.36.59,2.7.94,4.05.08.31.21.74.46.88,2,1.12,4,2.15,6,3.29,1.16.68,2.2,1.56,3.34,2.27,1.82,1.13,3.7,2.15,5.51,3.29a33.82,33.82,0,0,1,2.75,2.05c2.14,1.69,4.27,3.41,6.42,5.09C466,221.12,466.76,221.55,467.8,222.26Z" transform="translate(1.61 -0.2)"/><path d="M27.24,222.13c1.33-1.1,2.63-2.23,4-3.27,1.67-1.26,3.5-2.3,5.06-3.66,2.25-2,4.89-3.26,7.38-4.82s4.78-3,7.18-4.41c.81-.49,1.68-.89,2.5-1.37a.82.82,0,0,0,.37-.5c.39-1.69.82-3.37,1.1-5.08.19-1.12-.35-1.49-1.37-1a10.65,10.65,0,0,0-2.24,1.52,21.34,21.34,0,0,1-6.56,4,8.88,8.88,0,0,0-2.91,1.88c-1.72,1.7-4,2.35-6,3.62a41.06,41.06,0,0,0-4.7,3.48c-1.82,1.59-2,4.07-2.94,6.14A30.1,30.1,0,0,0,27.05,222Z" transform="translate(1.61 -0.2)"/><path d="M433,275a11.79,11.79,0,0,0,.47,1.72c1.17,2.34,2.31,4.7,3.58,7,1.64,3,3.38,5.89,5.07,8.84a10.06,10.06,0,0,1,.62,1.28c.79,2,2.84,1.91,4.37,2.66A33.3,33.3,0,0,0,451,298a3.37,3.37,0,0,0,1.12-.07,26.76,26.76,0,0,0-1.84-2.23,11.28,11.28,0,0,1-2.45-4.34c-1.68-4.35-3.48-8.67-5.12-13-.79-2.12-2.52-2.64-4.39-2.92C436.63,275.13,435,275.11,433,275Z" transform="translate(1.61 -0.2)"/><path d="M61.76,275l-5.75.45c-3,.25-3.87,2.45-4.74,4.83-1,2.57-2.2,5-3.24,7.56a33.62,33.62,0,0,0-1.59,4.62c-.44,1.81-1.83,2.89-2.86,4.25-.25.34-.53.65-1,1.2.58.06.91.19,1.17.09,2.11-.77,4.23-1.55,6.31-2.42a3.37,3.37,0,0,0,1.54-1.24q3.12-5.28,6.1-10.64c1.24-2.25,2.35-4.57,3.5-6.88A16.29,16.29,0,0,0,61.76,275Z" transform="translate(1.61 -0.2)"/><path d="M-1.35,2.43c0,1.54,0,3.09,0,4.63A1.77,1.77,0,0,0-.73,8.15c1.25,1.15,2.58,2.2,3.82,3.37A30.23,30.23,0,0,0,5.3,14a95.46,95.46,0,0,1,8.25,7.45c1.36,1.31,3,2.35,4.43,3.58,1.85,1.58,3.65,3.22,5.46,4.85.5.46.91,1,1.42,1.48a2.35,2.35,0,0,0,.88.3,2.21,2.21,0,0,0,0-.92c-.55-1.22-1.2-2.4-1.76-3.62-1-2.2-1.85-4.47-3-6.6-.41-.77-1.44-1.23-2.2-1.81s-1.77-1.32-2.65-2c-1.15-.85-2.3-1.7-3.42-2.57C11.35,13,10,11.93,8.6,10.82,6.54,9.15,4.43,7.53,2.45,5.77,1.23,4.69.2,3.4-.91,2.21Z" transform="translate(1.61 -0.2)"/><path d="M74.52,274.56c-2.11,0-3.92-.11-5.72,0a8.44,8.44,0,0,0-3.69.9,5,5,0,0,0-1.9,2.67,58.61,58.61,0,0,1-5.14,11.14,34.19,34.19,0,0,1-2.67,3.51,2.79,2.79,0,0,0-.23,1c.39,0,1,.19,1.16,0,1.38-1.44,3.36-1.08,5-1.73a18.49,18.49,0,0,1,2-.35,2.91,2.91,0,0,0,2.37-1.86,23.24,23.24,0,0,1,2.45-4.05c2-3.2,4-6.39,6-9.61A5.48,5.48,0,0,0,74.52,274.56Z" transform="translate(1.61 -0.2)"/><path d="M423.84,274.54c-.78,0-1.56,0-2.33,0-.4,0-1.07,0-1.14.19a1.69,1.69,0,0,0,.06,1.36c1,1.65,2.17,3.22,3.2,4.87.76,1.23,1.37,2.56,2.11,3.81.64,1.07,1.37,2.1,2.05,3.15A7,7,0,0,1,429,290c.31,1.47,1.46,1.56,2.51,1.8,1.88.45,3.79.76,5.66,1.21.37.09.61.63,1,.78a4.6,4.6,0,0,0,1.3.11c-.09-.38-.05-.86-.28-1.13a46.44,46.44,0,0,1-7.73-14.55c-.51-1.47-1.27-2.93-3.36-3a22.58,22.58,0,0,1-4.23-.88Z" transform="translate(1.61 -0.2)"/><path d="M72.19,216.33c-.45.36-.91.72-1.35,1.09-1.7,1.42-3.23,3.11-5.12,4.18-2.37,1.33-2,3.27-1.91,5.29a11.89,11.89,0,0,1-.16,1.78c-.12,1-.22,2.05-.38,3.07-.44,2.84-.83,5.68-1.37,8.5-.35,1.8-.91,3.56-1.37,5.35a3.32,3.32,0,0,0,0,.71c.24-.06.45,0,.53-.14,2.13-2.49,4.39-4.9,6.31-7.54.9-1.24,1.19-2.94,1.68-4.45a58.86,58.86,0,0,0,2.31-10.69,49.52,49.52,0,0,1,1.25-4.86,13.49,13.49,0,0,0,.13-2.12Z" transform="translate(1.61 -0.2)"/><path d="M434.29,246.59c-.46-1.71-.85-3.05-1.18-4.4a69.53,69.53,0,0,1-1.74-11.42,64.19,64.19,0,0,1-.47-6.94c0-.42-.57-.9-1-1.28a18.31,18.31,0,0,0-2.06-1.77,28.09,28.09,0,0,1-4.75-4,1.23,1.23,0,0,0-.86-.22,2.18,2.18,0,0,0-.4,1.27c.3,1.52.76,3,1.1,4.51.38,1.68.63,3.38,1,5.05.61,2.54,1.29,5.07,1.95,7.59a7.48,7.48,0,0,1,.35.84c.49,3.21,2.85,5.25,4.77,7.55.72.86,1.49,1.67,2.25,2.49A12,12,0,0,0,434.29,246.59Z" transform="translate(1.61 -0.2)"/><path d="M435.07,295a15.76,15.76,0,0,1-2.08-.26c-1.86-.45-3.69-1.09-5.56-1.44a45.69,45.69,0,0,0-6.77-.83,65.71,65.71,0,0,0-7.42.36c-1.47.12-2.91.53-4.37.71-1.88.23-3.78.35-5.67.55a14.08,14.08,0,0,0-1.65.39l-.14.42a13.2,13.2,0,0,0,1.72,1.63,32.63,32.63,0,0,0,4.78,2.91,6.61,6.61,0,0,0,3.48.34c3-.46,5.9-1.16,8.85-1.74,4.06-.8,8.13-1.6,12.2-2.36a13.65,13.65,0,0,1,1.68.07,4.46,4.46,0,0,0,1-.32Z" transform="translate(1.61 -0.2)"/><path d="M93.13,294.35,90,293.91c-2.28-.31-4.55-.68-6.84-.91-2.51-.26-5-.53-7.55-.54a59.53,59.53,0,0,0-7,.51c-.91.11-1.76.66-2.67.84-1.93.39-3.88.68-5.82,1-.15,0-.28.17-.68.42a4.84,4.84,0,0,0,1,.46c3,.41,6.11.67,9.12,1.23,4.6.84,9.15,1.9,13.73,2.83a6.45,6.45,0,0,0,6.2-2,23,23,0,0,1,3-2.13,4.53,4.53,0,0,0,.66-.77Z" transform="translate(1.61 -0.2)"/><path d="M50.47,276.36c-1.11.28-2.21.66-3.34.83-3.13.46-4,3.18-5.39,5.34-.85,1.29-1.49,2.71-2.28,4-1.49,2.54-3,5.11-4.56,7.57-1,1.56-2.27,3-3.42,4.44-.28.36-.54.73-1,1.3,2.27,0,4.27.11,6.24-.06a3.23,3.23,0,0,0,1.79-1.34,33.14,33.14,0,0,0,3.07-4.41c2.15-4,4.15-8,6.25-12,.68-1.3,1.52-2.51,2.25-3.78a15.16,15.16,0,0,0,.67-1.61Z" transform="translate(1.61 -0.2)"/><path d="M464.17,299.87c-.44-.58-.73-.93-1-1.31-1.46-2.13-2.91-4.28-4.38-6.41-.41-.6-.95-1.13-1.31-1.75-1.54-2.62-3-5.28-4.55-7.9a15.75,15.75,0,0,0-2.43-3.66,11.18,11.18,0,0,0-3.58-1.86,19.16,19.16,0,0,0-3-.65,7.19,7.19,0,0,0,.35,1.56c1.89,3.67,3.79,7.34,5.75,11,1.19,2.19,2.41,4.37,3.77,6.45a46.18,46.18,0,0,0,3.37,4.17,1,1,0,0,0,.65.36C459.84,299.88,461.87,299.87,464.17,299.87Z" transform="translate(1.61 -0.2)"/><path d="M54.17,253c1.1-1,2-1.92,2.94-2.81.08-.08.09-.24.13-.36.85-3.43,1.8-6.83,2.52-10.29.47-2.26.55-4.6.89-6.9.31-2.12.76-4.21,1.1-6.32a4.32,4.32,0,0,0-.3-1.29c-1.76,1.57-3.29,3-4.84,4.33a38.34,38.34,0,0,1-3,2.47,3.33,3.33,0,0,0-1.25,3.35c.37,3.6.88,7.19,1.26,10.79.18,1.8.18,3.62.28,5.43C54,251.92,54.08,252.4,54.17,253Z" transform="translate(1.61 -0.2)"/><path d="M440.55,253.08c.14-1.34.26-2.44.36-3.54.27-2.82.52-5.66.79-8.48.2-2,.39-4,.63-6.05.21-1.77-.87-2.91-2-3.9-2.23-2-4.57-3.78-7.09-5.85a3.53,3.53,0,0,0-.26,1.17c.17,1.49.44,3,.66,4.45s.35,2.79.59,4.18c.46,2.73.88,5.46,1.46,8.16.48,2.23,1.16,4.4,1.75,6.6a1.15,1.15,0,0,0,.19.48C438.5,251.16,439.41,252,440.55,253.08Z" transform="translate(1.61 -0.2)"/><path d="M482.36,254.59c.44-1.49.87-3.05,1.36-4.59.56-1.72,1.15-3.44,1.79-5.14.87-2.3,1.79-4.58,2.72-6.86,1.13-2.78,2.26-5.56,3.47-8.31,1.52-3.43,3.05-6.86,4.7-10.24a35.46,35.46,0,0,1,2.31-3.38,3.13,3.13,0,0,0,.21-1.14c-.43.07-1,0-1.25.24a16.83,16.83,0,0,0-2.16,2.61c-1.59,2.46-3.16,4.94-4.62,7.48-1.18,2-2.18,4.17-3.3,6.23-.32.59-.81,1.07-1.18,1.63-.92,1.39-1.84,2.78-2.72,4.2-1.52,2.47-3,5-4.48,7.47a2,2,0,0,0,0,1.5C480.18,249.06,481.28,251.81,482.36,254.59Z" transform="translate(1.61 -0.2)"/><path d="M15.83,47.75c.3.49.62,1,.88,1.48,1.21,2.38,2.27,4.84,3.63,7.13A12,12,0,0,0,23.56,60c2.42,1.67,5.11,2.95,7.64,4.48,1.21.73,2.3,1.65,3.48,2.45a11.29,11.29,0,0,0,1.82,1c.28.13.76.21.93.06a1.08,1.08,0,0,0,.24-.93c-.47-1.82-1.34-3.6-1.43-5.42-.15-3.29-3.1-3.15-4.85-4.45a34.35,34.35,0,0,0-3.66-2.27c-1.47-.82-3.05-1.45-4.46-2.35-1.95-1.25-3.78-2.67-5.66-4-.48-.35-1-.69-1.46-1Z" transform="translate(1.61 -0.2)"/><path d="M481.09,47.45c-.82.63-1.59,1.34-2.46,1.88-3.46,2.15-6.92,4.29-10.43,6.36-1.9,1.12-3.91,2.05-5.85,3.12a1.79,1.79,0,0,0-.87.91q-1,3.64-1.88,7.32c-.2.86.35,1.32,1.09.89,1.67-1,3.24-2.11,4.91-3.09,1.51-.9,3.06-1.74,4.65-2.5a14.89,14.89,0,0,0,6.6-5.78c1.06-1.8,1.87-3.75,2.83-5.62.55-1.1,1.17-2.16,1.76-3.23Z" transform="translate(1.61 -0.2)"/><path d="M-1,286.27A22.92,22.92,0,0,1,0,284c1.77-3.25,3.63-6.46,5.34-9.75a3.94,3.94,0,0,0,.27-2.38c-.41-2.12-1-4.22-1.5-6.31-.43-1.72-.84-3.45-1.4-5.13C1.84,258,.87,255.55,0,253.12a17.35,17.35,0,0,0-1-2.7c0,6,.06,11.91,0,17.86s-.27,11.94-.42,17.9Z" transform="translate(1.61 -0.2)"/><path d="M14.21,257.41a8.12,8.12,0,0,0,1.48-1.17c1.92-2.42,4.57-3.9,7-5.6s4.85-3.34,7.26-5c2-1.44,4.06-3,6.13-4.39a34.8,34.8,0,0,1,5.13-3.28,10.72,10.72,0,0,0,3-2.32c1.34-1.3,1.63-2.9,2.1-4.5,0-.17,0-.55-.13-.56a1.25,1.25,0,0,0-.84.07c-.8.54-1.53,1.19-2.35,1.71-1.8,1.15-3.64,2.24-5.46,3.36-.52.32-1,.69-1.53,1-1.8,1.08-3.61,2.15-5.4,3.24a3.38,3.38,0,0,0-.67.59,6.75,6.75,0,0,1-2.46,1.8,14.78,14.78,0,0,0-3.76,2.55c-1.58,1.28-3,2.73-4.59,4C16.49,251.1,15.19,254.11,14.21,257.41Z" transform="translate(1.61 -0.2)"/><path d="M480.49,257.42c.07-.15.16-.25.14-.3-1.15-2.44-1.95-5-3.95-7.06a48.11,48.11,0,0,0-8.88-7.37c-2.46-1.55-4.61-3.63-7.43-4.7-1.61-.62-3-1.91-4.45-2.88s-3.15-2.06-4.71-3.1c-.62-.42-1.2-.92-1.84-1.32a2.75,2.75,0,0,0-.93-.16,7.86,7.86,0,0,0,0,.84c.1,2.46,1.8,4.07,3.26,5.71.76.86,2.1,1.19,3.13,1.84,1.93,1.24,3.81,2.54,5.72,3.8.46.31,1,.56,1.42.87,1.26.86,2.49,1.77,3.76,2.62s2.78,1.73,4.11,2.67c1.74,1.22,3.47,2.46,5.13,3.79C476.83,254.19,478.63,255.82,480.49,257.42Z" transform="translate(1.61 -0.2)"/><path d="M-1.17,217.16C-2,220.37-.18,222.57.9,225c1.21,2.73,2.34,5.48,3.51,8.22.69,1.61,1.4,3.21,2.05,4.83,1.34,3.32,2.73,6.63,3.94,10,.71,2,1.11,4.06,1.66,6.09a6.77,6.77,0,0,0,.35.79c.5-1.56.91-2.92,1.37-4.26.41-1.16.83-2.33,1.33-3.46s.84-1.91-.15-3a27.34,27.34,0,0,1-2.27-3.91c-1.43-2.37-3-4.68-4.35-7.07C7.07,231,6,228.74,4.71,226.59,2.85,223.47.87,220.41-1.17,217.16Z" transform="translate(1.61 -0.2)"/><path d="M444.55,235.17c-.18,1.28-.42,2.55-.5,3.83-.23,3.76-.37,7.52-.59,11.28-.27,4.59.46,8.91,3.29,12.7.54.73,1.05,1.47,1.74,2.45,0-1.62,0-2.95,0-4.28a39.31,39.31,0,0,1,1.42-10.34,9,9,0,0,0-.13-3.14c-.2-1.53-.54-3-.76-4.58-.17-1.24-.23-2.5-.4-3.74C448.42,237.92,446.13,235.49,444.55,235.17Z" transform="translate(1.61 -0.2)"/><path d="M46.07,265.12c2.28-2.74,4.26-5.46,4.82-9.08a38,38,0,0,0,0-9.65c-.22-2.27-.12-4.58-.24-6.87-.08-1.45-.3-2.9-.46-4.34l-.41-.16a11.34,11.34,0,0,0-1.45,1.11,6.74,6.74,0,0,0-1.76,2.16,30.48,30.48,0,0,0-.89,4.41c-.35,1.85-.76,3.69-1,5.55a7,7,0,0,0,.06,2.33c.47,2.67,1.15,5.32,1.49,8a35.39,35.39,0,0,1-.09,5.14C46.06,264.19,46.07,264.66,46.07,265.12Z" transform="translate(1.61 -0.2)"/><path d="M20,299.89c2.46,0,4.68.11,6.87-.08.63-.05,1.31-.9,1.76-1.53,1.36-1.87,2.63-3.8,3.91-5.72,1.87-2.79,3.69-5.61,5.58-8.38.87-1.28,1.87-2.47,2.75-3.74a4.63,4.63,0,0,0,.44-1.25,3.49,3.49,0,0,0-1.17,0c-2.42,1-4.85,2.07-7.18,3.28-.62.33-.89,1.29-1.36,1.93-1.93,2.66-3.84,5.33-5.81,7.95C24,294.83,22,297.23,20,299.89Z" transform="translate(1.61 -0.2)"/><path d="M474.68,299.89c-1.14-1.5-2.11-2.8-3.11-4.08q-3.68-4.71-7.36-9.4a2.28,2.28,0,0,1-.34-.55c-1.11-3.17-3.63-4.54-6.65-5.38a24,24,0,0,1-2.73-1.28,3.37,3.37,0,0,0-1.06-.06,3.14,3.14,0,0,0,.23,1.18c1.16,1.74,2.39,3.44,3.6,5.15,2.21,3.14,4.44,6.26,6.64,9.41,1,1.37,1.76,2.84,2.77,4.15a2.58,2.58,0,0,0,1.73.82C470.41,300,472.44,299.89,474.68,299.89Z" transform="translate(1.61 -0.2)"/><path d="M430.61,245.89a55.34,55.34,0,0,0-4.8-4.41,30.47,30.47,0,0,0-4.83-2.56c-2-.94-3.92-1.83-5.89-2.72a18.69,18.69,0,0,0-2-.72c-2.64-.82-5.26-1.73-7.94-2.4-1.41-.35-1.71.14-1.11,1.43.84,1.83,1.67,3.67,2.66,5.42a2.78,2.78,0,0,0,1.71,1.17c2.28.48,4.6.79,6.91,1.17.09,0,.17.08.26.07,2.34-.28,4.4.95,6.64,1.31s4.51,1.54,6.76,2.35a13.53,13.53,0,0,0,1.43.34Z" transform="translate(1.61 -0.2)"/><path d="M63.85,246.31a8,8,0,0,0,1.47-.13c2.29-.84,4.54-1.75,6.85-2.53a23.77,23.77,0,0,1,3-.53c1.39-.29,2.68-1,4.19-.87a13,13,0,0,0,2.77-.48,27.28,27.28,0,0,1,3.9-.62,2.22,2.22,0,0,0,2.07-1.26c.91-1.76,1.75-3.54,2.58-5.33.61-1.32.36-1.73-1-1.49a30.12,30.12,0,0,0-3.94,1.05c-1.79.55-3.59,1.07-5.32,1.76-2,.78-3.92,1.68-5.83,2.62-1.75.85-3.46,1.77-5.14,2.73A13.33,13.33,0,0,0,67,243C66,243.91,65.08,245,63.85,246.31Z" transform="translate(1.61 -0.2)"/><path d="M72.42,234.09a11.72,11.72,0,0,1,.86-1.11c1.5-1.42,3.07-2.77,4.5-4.26a9.06,9.06,0,0,0,2-2.85,29.88,29.88,0,0,0,2.21-10c0-.9.32-1.79.36-2.69,0-.29-.41-.89-.56-.87-2.4.34-4.9.54-6.74,2.36a3.19,3.19,0,0,0-.56,1.9c-.2,2.34-.22,4.7-.51,7-.26,2.15-.77,4.27-1.18,6.41-.26,1.28-.55,2.56-.82,3.84Z" transform="translate(1.61 -0.2)"/><path d="M422.71,233.83c-.24-1.2-.49-2.41-.7-3.62-.26-1.56-.46-3.12-.73-4.68-.23-1.35-.6-2.68-.76-4a33.51,33.51,0,0,1-.27-4.58,4.49,4.49,0,0,0-3-3.83c-1.32-.32-2.67-.48-4-.77-.8-.17-1.06.15-1,.88.25,1.91.44,3.84.81,5.74s.89,3.91,1.45,5.84a7.72,7.72,0,0,0,3.17,4.51,29.49,29.49,0,0,1,4.11,4.17c.17.18.36.33.54.5Z" transform="translate(1.61 -0.2)"/><path d="M453.36,179.88c.76-2.83,1.37-5.33,2.12-7.79a39.82,39.82,0,0,1,1.66-4.2c.73-1.66,1.55-3.28,2.26-4.93a1.07,1.07,0,0,0-.23-.91c-1.44-1.63-2.88-3.25-4.39-4.8-.4-.41-1-.55-1.32.28s-.54,1.63-.84,2.44c-1.11,2.92-2.26,5.82-3.31,8.76a2.88,2.88,0,0,0,0,1.9C450.57,173.66,451.93,176.65,453.36,179.88Z" transform="translate(1.61 -0.2)"/><path d="M41.34,180c.92-2.23,1.68-4.16,2.51-6.07.48-1.14,1-2.26,1.6-3.35.74-1.38-.31-2.41-.7-3.51-1-2.73-2.36-5.3-3-8.17-.54-2.3-.8-2.37-2.47-.84a50.31,50.31,0,0,0-3.72,4,1.18,1.18,0,0,0-.21,1c1.21,2.81,2.64,5.53,3.68,8.4C40,174.06,40.5,176.83,41.34,180Z" transform="translate(1.61 -0.2)"/><path d="M82.92,223.75c1.26-1.34,2.55-2.65,3.79-4,2.3-2.52,4.49-5.15,6.89-7.57,1.88-1.89,4.05-3.49,6-5.32a27,27,0,0,0,2.42-3.06,5.32,5.32,0,0,0-1.26.08c-2.21.89-4.4,1.8-6.59,2.71-.16.07-.3.24-.46.24-2.63.09-4.65,1.81-7,2.68a3.56,3.56,0,0,0-2.49,3.77,23.66,23.66,0,0,1-1.45,9.37,4,4,0,0,0-.11,1Z" transform="translate(1.61 -0.2)"/><path d="M392.92,204a12,12,0,0,0,2,2.68,67.55,67.55,0,0,1,9.92,9.65c1.91,2.14,4,4.12,6,6.2a6.39,6.39,0,0,1,.75,1.24l.38-.1a4.18,4.18,0,0,0-.1-1.13,27.21,27.21,0,0,1-1.47-9.38c0-2.1-.58-2.91-2.48-3.77-1.36-.62-2.65-1.37-4-2-.3-.14-.68-.09-1-.2-1.51-.55-3-1.12-4.52-1.69l-5.1-1.92Z" transform="translate(1.61 -0.2)"/><path d="M438.68,186.62c.06,1,.09,1.67.15,2.34a18.31,18.31,0,0,1,.3,2.92c-.14,2.42,1.27,3.54,3.21,4.53,3.15,1.62,6.21,3.44,9.3,5.19,1.92,1.09,3.86,2.18,5.73,3.35.75.47,1.3,1.22,2,1.74a20.94,20.94,0,0,0,2.2,1.23c0-2-1.19-3-2.19-4a27.74,27.74,0,0,1-2.22-2.1,19.18,19.18,0,0,0-4.87-4.29c-1.44-1-2.69-2.25-4-3.38-1-.88-2.08-1.77-3.16-2.61-1.25-1-2.57-1.85-3.8-2.84-.34-.27-.41-.86-.74-1.13A10.68,10.68,0,0,0,438.68,186.62Z" transform="translate(1.61 -0.2)"/><path d="M55.38,186.66l-1.61,1.56a6.47,6.47,0,0,1-.53.52c-2.47,2-4.94,4.09-7.45,6.08-2.07,1.66-4.22,3.23-6.32,4.85a10.79,10.79,0,0,0-1.08,1.06c-1.37,1.4-2.79,2.77-4.07,4.24a16,16,0,0,0-1.45,2.44l.47.46c1-.62,2-1.21,2.94-1.87.61-.41,1.12-1,1.75-1.37,2.61-1.6,5.23-3.18,7.88-4.71,1.52-.88,3.1-1.64,4.64-2.49s2.78-1.58,4.15-2.42a1.14,1.14,0,0,0,.48-.71c.2-1.53.32-3.08.52-4.62.06-.46.37-.89.39-1.34a5.56,5.56,0,0,0-.24-1.37Z" transform="translate(1.61 -0.2)"/><path d="M483.43,299.89c-1-1.9-2-3.7-2.92-5.49-.79-1.47-1.59-2.94-2.36-4.42-.22-.41-.3-.89-.51-1.3s-.38-.77-.68-.89c-1.38-.54-2.83-.88-4.17-1.48-2.54-1.12-5-2.38-7.52-3.56a5.83,5.83,0,0,0-1.34-.2c1.47,1.91,2.72,3.55,4,5.16,2.54,3.19,5.1,6.35,7.64,9.53.24.3.35.7.56,1a3.34,3.34,0,0,0,3.39,1.66A34.14,34.14,0,0,1,483.43,299.89Z" transform="translate(1.61 -0.2)"/><path d="M30.33,282.57a3.9,3.9,0,0,0-1,.29,38,38,0,0,1-8.88,4c-.93.25-1.83.6-2.73.93a1,1,0,0,0-.46.44c-1,2-2,4.06-3,6.08Q13,296.65,11.76,299c-.15.27-.49.43-.64.92a50.48,50.48,0,0,0,5.64-.08c.65-.08,1.3-.94,1.8-1.57,2.24-2.8,4.44-5.64,6.64-8.47l5.29-6.87Z" transform="translate(1.61 -0.2)"/><path d="M68.73,290.32c.65-.15,1.31-.27,2-.46a49.74,49.74,0,0,0,6.44-2c.93-.42,1.56-1.67,2.15-2.65,1.22-2,2.34-4.09,3.46-6.15.66-1.21,1.31-2.42,1.87-3.67.37-.82-.38-.87-.85-.87-1.54,0-3.07.18-4.6.14-2,0-2.29.65-3.23,2.43-1.5,2.85-2.94,5.73-4.54,8.51-.87,1.52-2,2.87-3,4.3Z" transform="translate(1.61 -0.2)"/><path d="M409.74,275c1.22,2.07,2.4,4,3.52,6,.71,1.26,1.29,2.6,2,3.88a9.71,9.71,0,0,0,1.61,2.48,6.11,6.11,0,0,0,2.18.9q2.85,1,5.72,1.87a8.17,8.17,0,0,0,1.22.2l.3-.29c-.43-.68-.85-1.36-1.27-2-1.63-2.57-3.31-5.11-4.85-7.73-.83-1.4-1.35-3-2.11-4.41a2,2,0,0,0-1.24-1c-2.12-.17-4.26-.19-6.39-.23C410.28,274.57,410.13,274.74,409.74,275Z" transform="translate(1.61 -0.2)"/><path d="M-1.35,21.76v1.13c0,11.31,0,22.62,0,33.92A8.68,8.68,0,0,0-.4,59.87c.14.33.69.5,1.34.93.08-1.77.15-3.2.22-4.62.1-2,.25-4,.29-6s-.07-3.8-.06-5.69c0-.72.15-1.44.2-2.16.19-3,.53-6,.49-9a39.31,39.31,0,0,0-.86-7.8c-.3-1.4-1.38-2.64-2.11-3.95Z" transform="translate(1.61 -0.2)"/><path d="M473,68.38c-.26.15-.42.19-.47.28-1.41,2.51-2.81,5-4.18,7.56a2.37,2.37,0,0,0-.33,1.23c.19,3.18.42,6.35.67,9.52.13,1.72.92,2.2,2.31,1.21,1.6-1.14,3.06-2.49,4.56-3.77.78-.66.43-1.45.23-2.26-.59-2.28-1.19-4.56-1.63-6.87-.36-1.84-.47-3.72-.72-5.58A7.57,7.57,0,0,0,473,68.38Z" transform="translate(1.61 -0.2)"/><path d="M24.14,68.43c-.16.92-.31,1.85-.47,2.78-.48,2.72-.93,5.45-1.44,8.16-.23,1.18-.58,2.35-.92,3.5s.41,1.6,1.06,2.15c1.1.94,2.24,1.85,3.39,2.73a5.65,5.65,0,0,0,1.35.72c1.05.43,1.46-.15,1.51-1.09.13-2.27.21-4.55.33-6.82a17.87,17.87,0,0,1,.23-1.79c.48-2.84-1.58-4.72-2.63-7a27,27,0,0,0-1.46-2.4,8.88,8.88,0,0,1-.48-1Z" transform="translate(1.61 -0.2)"/><path d="M46.23,175.92c.41-.34.84-.66,1.25-1,1.32-1.14,2.62-2.31,3.94-3.45.19-.17.46-.25.66-.41,1.28-1,2.57-2,3.81-3.12a1.93,1.93,0,0,0,.67-1.14c.21-2.19.32-4.39.48-6.59a15.53,15.53,0,0,1,.27-2.05,8.62,8.62,0,0,0-.55-6c-.94,1.89-1.77,3.53-2.58,5.19s-1.78,3.6-2.64,5.42c-1.23,2.61-2.41,5.23-3.64,7.84-.56,1.21-1.22,2.38-1.76,3.6a7.76,7.76,0,0,0-.34,1.55Z" transform="translate(1.61 -0.2)"/><path d="M438,152.37a9.49,9.49,0,0,0-.62,6.11,48.69,48.69,0,0,1,.64,7.74,2.49,2.49,0,0,0,1.2,2.11c1.08.8,2.07,1.7,3.14,2.51.75.57,1.6,1,2.31,1.62,1,.87,1.89,1.85,2.86,2.76a11,11,0,0,0,1.24.87,8,8,0,0,0-1.15-4.17c-1.14-2.36-2.25-4.73-3.37-7.09-.17-.35-.33-.7-.51-1.05-1.18-2.38-2.37-4.77-3.56-7.14C439.47,155.21,438.73,153.79,438,152.37Z" transform="translate(1.61 -0.2)"/><path d="M453.45,187.4c0-.55.09-.84,0-1-.92-1.69-1.28-3.66-2.78-5.07-2-1.85-3.8-3.85-5.79-5.69s-4.26-3.68-6.69-5.76c-.12,1.13-.26,1.87-.27,2.61a17.29,17.29,0,0,0,.12,3.22,3.71,3.71,0,0,0,1,2.23c1.67,1.23,3.55,2.17,5.29,3.32,1.35.9,2.58,2,3.93,2.89C449.84,185.21,451.53,186.2,453.45,187.4Z" transform="translate(1.61 -0.2)"/><path d="M41.27,187.59c2.16-1.56,4-2.93,5.86-4.22,1.24-.85,2.56-1.58,3.83-2.39,1.69-1.07,3.38-2.15,5-3.27a1.43,1.43,0,0,0,.57-1c.06-2.13,0-4.27,0-6.41l-.32-.24c-2.07,1.74-4.15,3.47-6.2,5.23-1.31,1.13-2.6,2.29-3.83,3.5a18.5,18.5,0,0,0-5,7.67A5,5,0,0,0,41.27,187.59Z" transform="translate(1.61 -0.2)"/><path d="M39.84,79.86c-.43-2.72-.81-5-1.15-7.26a2.34,2.34,0,0,0-1.6-1.95,59.74,59.74,0,0,1-5.77-3.27c-1.95-1.19-3.84-2.46-5.77-3.67a5.51,5.51,0,0,0-1.17-.34c.43,1,.75,1.86,1.12,2.67A21.43,21.43,0,0,0,35.51,77,21.05,21.05,0,0,1,38.13,79,12.41,12.41,0,0,0,39.84,79.86Z" transform="translate(1.61 -0.2)"/><path d="M472.58,63.32c-.69.39-1.39.75-2.07,1.16-2.46,1.47-4.9,3-7.37,4.42-1.25.74-2.57,1.35-3.77,2.15a2.31,2.31,0,0,0-.72,1.44c-.42,2.3-.76,4.62-1.17,7.19a4.3,4.3,0,0,0,1.26-.38c2.28-1.54,4.63-3,6.77-4.73A21.77,21.77,0,0,0,472.58,63.32Z" transform="translate(1.61 -0.2)"/><path d="M45.51,271.88c1.37-.59,2.73-1.2,4.1-1.76a59.18,59.18,0,0,0,6.67-2.76,26.17,26.17,0,0,1,4.64-2.06,65.15,65.15,0,0,1,8.29-2.36c3-.56,4.52-2.71,6.24-4.75a2.78,2.78,0,0,0,.29-.57c.21-.44.41-.87.61-1.31a3.9,3.9,0,0,0-1.3.16c-1.53.74-3,1.68-4.54,2.33-2.52,1-5.12,1.9-7.68,2.83-.67.24-1.36.42-2,.7-3,1.29-6,2.5-8.92,4A47.71,47.71,0,0,0,46.08,270c-.47.33-.61,1.13-.9,1.72Z" transform="translate(1.61 -0.2)"/><path d="M449.66,272c-.49-.9-.66-1.72-1.16-2.06a67,67,0,0,0-6.29-3.89c-1.53-.82-3.25-1.26-4.86-1.93s-3-1.43-4.58-2.07c-.76-.31-1.61-.37-2.38-.64-1.67-.59-3.35-1.15-5-1.88-1.35-.62-2.59-1.5-3.91-2.2a26.5,26.5,0,0,0-2.58-1.08c-.17-.06-.54,0-.57.09a.86.86,0,0,0,0,.69c1.47,1.9,2.76,3.88,4.94,5.19,1.59,1,3.37.69,4.94,1.43a23.52,23.52,0,0,0,2.83.76c2,.66,4.05,1.33,6,2.09.89.33,1.68.91,2.55,1.31q4.4,2,8.81,3.94A7.28,7.28,0,0,0,449.66,272Z" transform="translate(1.61 -0.2)"/><path d="M419.61,234.75a7.21,7.21,0,0,0-.74-1c-2.31-2.15-4.53-4.41-7-6.36-1-.77-2.49-.8-3.74-1.25-1.41-.52-2.76-1.23-4.2-1.67a23.16,23.16,0,0,0-3.81-.65,1.09,1.09,0,0,0-.38.8c.68,1.93,1.38,3.86,2.2,5.73.16.35.92.52,1.43.59,1.62.23,3.27.24,4.85.59,2.7.6,5.37,1.37,8,2.14a20.83,20.83,0,0,1,2.15,1A4.89,4.89,0,0,0,419.61,234.75Z" transform="translate(1.61 -0.2)"/><path d="M75.15,234.76a3.92,3.92,0,0,0,1.14-.12,20.65,20.65,0,0,1,7.63-2.37c1.21-.14,2.37-.61,3.58-.83s2.63-.38,4-.51a1.58,1.58,0,0,0,1.6-1.19c.54-1.66,1.21-3.27,1.81-4.91.29-.78.06-1.18-.82-1-1.3.22-2.6.12-3.84,1a10.68,10.68,0,0,1-3.93,1.31,9,9,0,0,0-4.83,2.43c-1.83,1.84-3.83,3.52-5.74,5.28A4.28,4.28,0,0,0,75.15,234.76Z" transform="translate(1.61 -0.2)"/><path d="M46.88,167c.19-.15.46-.26.55-.46.83-1.8,1.59-3.63,2.43-5.42.37-.78.91-1.47,1.27-2.25a2.35,2.35,0,0,0,.27-1.47c-.52-1.94-1.21-3.84-1.74-5.78-.29-1.05-.76-1.14-1.69-.75a18.43,18.43,0,0,0-5.33,4,1.2,1.2,0,0,0-.19,1c1.33,3.6,2.71,7.18,4.09,10.77C46.58,166.75,46.72,166.82,46.88,167Z" transform="translate(1.61 -0.2)"/><path d="M447.86,167.3c.4-1.24.64-2.15,1-3,1.08-2.73,2.21-5.43,3.26-8.17a1.57,1.57,0,0,0-.14-1.37,17,17,0,0,0-5.35-3.95c-.83-.33-1.29-.3-1.52.65-.34,1.37-.72,2.74-1.09,4.1a3.33,3.33,0,0,1-.41,1.09c-.71,1-.24,1.85.23,2.77,1.11,2.18,2.16,4.4,3.25,6.59C447.23,166.35,447.47,166.67,447.86,167.3Z" transform="translate(1.61 -0.2)"/><path d="M49.69,264.62c3.3-1.51,6.45-3,9.65-4.39,1.62-.69,3.49-.89,5-1.78,2.24-1.35,4.75-1.81,7.12-2.69A62.69,62.69,0,0,1,78.26,254c.22-.06.54-.1.63-.25.6-1,1.16-2,1.9-3.38a15.79,15.79,0,0,0-2.15.32c-1.82.55-3.6,1.23-5.42,1.73-1.28.36-3,.08-3.83.85-1.48,1.43-3.62.76-5,2.12-.26.26-.87.15-1.32.22-2.82.42-5,2.15-7.31,3.58a26.86,26.86,0,0,0-3.7,2.53A21.73,21.73,0,0,0,49.69,264.62Z" transform="translate(1.61 -0.2)"/><path d="M445,264.59a14.7,14.7,0,0,0-2.48-2.91c-2.86-2-5.86-3.76-8.83-5.57a5.65,5.65,0,0,0-1.43-.35c-1.91-.52-4.07-.65-5.66-1.66-2.18-1.39-4.65-1.2-6.87-2.07-1.21-.47-2.43-.93-3.67-1.33a20,20,0,0,0-2.21-.36,39.16,39.16,0,0,0,2.14,3.59c.19.26,1,0,1.44.15,3.44,1.06,6.9,2.1,10.29,3.28,2.14.75,4.17,1.79,6.29,2.61,1.45.56,3,.85,4.43,1.49,2.16,1,4.24,2.15,6.36,3.24Z" transform="translate(1.61 -0.2)"/><path d="M382,277.59c2.3.51,4.62.94,6.89,1.55s4.53,1.38,6.79,2.07,4.64,1.38,7.28,2.16c-.93-1.43-1.65-2.48-2.32-3.56-.79-1.27-1.51-2.57-2.29-3.85s-2.27-1.15-3.53-1.07a47,47,0,0,0-5.55.7c-1.08.19-2.1.82-3.22.13a.83.83,0,0,0-.63,0c-1.08.47-2.16,1-3.23,1.47Z" transform="translate(1.61 -0.2)"/><path d="M112.66,277.31c-1.2-.55-2.3-1.06-3.42-1.56a.7.7,0,0,0-.38,0c-2.92.57-5.65-.86-8.52-.78-1.4,0-3-.51-4,1-.85,1.27-1.54,2.65-2.35,4-.65,1-1.36,2.07-2.24,3.39Z" transform="translate(1.61 -0.2)"/><path d="M56.4,255.41a33,33,0,0,1,3.44-1.9c1.85-.76,3.78-1.34,5.68-2a25.34,25.34,0,0,1,3-1c1.27-.29,2.59-.38,3.88-.64,3.23-.68,6.46-1.42,9.69-2.11.86-.18,3.18-2.91,3.06-3.79,0-.25-.6-.67-.81-.61-1.47.42-2.92.94-4.38,1.42s-2.76,1-4.17,1.34c-4,1.07-8,2-11.94,3.16a13.84,13.84,0,0,0-7.24,5.27c-.14.19-.24.4-.37.6Z" transform="translate(1.61 -0.2)"/><path d="M438.79,255.3c-2-2-3.39-4.11-6-5.13a61.79,61.79,0,0,0-10.77-3.4c-2.1-.42-4.21-.77-6.28-1.31a25.43,25.43,0,0,1-3-1.32,18.05,18.05,0,0,0-2.3-.72c-1-.25-1.18.42-.81,1,1,1.59,1.66,3.43,4.16,3.53,1.83.07,3.63.87,5.46,1.26s4,.73,6,1.12c.88.17,1.75.43,2.62.66a34.9,34.9,0,0,1,10.21,4.34S438.26,255.34,438.79,255.3Z" transform="translate(1.61 -0.2)"/><path d="M76.69,30.76c-.67-.63-1.36-1.24-2-1.88-.86-.84-1.73-1.68-2.55-2.56a36.92,36.92,0,0,0-11.27-8.68A12.42,12.42,0,0,1,58.75,16a1.16,1.16,0,0,0-.9-.26c1,1.15,1.95,2.26,2.86,3.45s1.7,2.28,2.46,3.48c1.39,2.22,2.69,4.52,4.1,6.73a2.59,2.59,0,0,0,1.5,1.17c2.53.33,5.07.49,7.6.71Z" transform="translate(1.61 -0.2)"/><path d="M439.25,15.54c-.54.37-1.07.75-1.62,1.1-1.88,1.19-3.81,2.29-5.62,3.57a37.81,37.81,0,0,0-3.94,3.32c-1.7,1.58-3.3,3.26-5,4.87-.82.79-1.67,1.55-2.51,2.32l.25.47a40.57,40.57,0,0,1,4.79-.2c3.18.22,4.74-1.43,5.76-4.21a19.42,19.42,0,0,1,2.37-3.67c.69-1,1.31-2.14,2.09-3.12,1.14-1.44,2.38-2.79,3.58-4.19Z" transform="translate(1.61 -0.2)"/><path d="M458.06,198.93a9.63,9.63,0,0,0-2.11-5.16,29.29,29.29,0,0,0-4-4.39c-2.45-1.95-5.15-3.59-7.74-5.37l-.83-.59c-1.51-1.09-3-2.19-4.57-3.34-1,2.67-.2,4.4,2.06,5.59a28.36,28.36,0,0,1,3.12,2.15c1.42,1,2.83,2.07,4.26,3.09,2,1.46,4.07,2.87,6.06,4.38.56.43.88,1.17,1.41,1.67C456.46,197.66,457.28,198.28,458.06,198.93Z" transform="translate(1.61 -0.2)"/><path d="M55.94,180c-1.69,1.28-3.17,2.48-4.74,3.55s-3,1.74-4.4,2.68c-.81.54-1.5,1.26-2.26,1.87s-1.82,1.37-2.67,2.12a17.92,17.92,0,0,0-5.46,8.29c0,.1.07.23.16.46A10.42,10.42,0,0,0,38.86,197a13.73,13.73,0,0,1,4-3.5c2-1.38,3.91-3,5.89-4.46s3.85-2.64,5.73-4S56.62,182.84,55.94,180Z" transform="translate(1.61 -0.2)"/><path d="M413.16,286.3c-1-1.75-1.89-3.34-2.76-4.95-.32-.6-.53-1.25-.81-1.87-.67-1.49-1.27-3-2.06-4.43-.2-.36-1-.53-1.51-.54-1.66,0-3.32,0-5,.07-.86,0-1.11.88-.5,1.73s1.21,1.39,1.67,2.16c.92,1.55,1.71,3.17,2.63,4.72.37.62.86,1.39,1.47,1.59,2,.69,4.12,1.15,6.2,1.69C412.64,286.5,412.81,286.39,413.16,286.3Z" transform="translate(1.61 -0.2)"/><path d="M81.62,286.53a18,18,0,0,0,2-.42c1.83-.6,3.67-1.18,5.44-1.95a2.68,2.68,0,0,0,1.12-1.58c.73-2.29,2.27-4.05,3.65-5.92a5.88,5.88,0,0,0,.59-1.62,5.94,5.94,0,0,0-1.46-.48,37.15,37.15,0,0,0-4.22-.08A2.17,2.17,0,0,0,86.67,276c-1.49,3.36-3.29,6.57-5,9.84A3.68,3.68,0,0,0,81.62,286.53Z" transform="translate(1.61 -0.2)"/><path d="M80.07,290.09l4,.67c3.56.6,7.13,1.19,10.7,1.81,1.79.31,3-.88,4.27-1.74.77-.5,1.53-1,2.26-1.57a3.68,3.68,0,0,0,1-.95c.1-.18-.14-.84-.28-.86a19.51,19.51,0,0,0-2.42-.1c-1.14,0-2.28.08-3.42.09a30.67,30.67,0,0,1-4.7-.08c-2.72-.42-5.22.48-7.78,1a21.73,21.73,0,0,0-3.61,1.44Z" transform="translate(1.61 -0.2)"/><path d="M414.65,289.88a20.17,20.17,0,0,0-3.29-1.42,36.45,36.45,0,0,0-6.28-1.13c-2.26-.15-4.55.11-6.83.15-1,0-2-.07-3-.1a17.21,17.21,0,0,0-1.9,0,4.94,4.94,0,0,0-1,.33c.17.37.25.88.53,1.07a50.35,50.35,0,0,0,6,3.73c.8.38,2.08-.14,3.13-.34,2.29-.46,4.56-1,6.86-1.45,1.26-.23,2.56-.27,3.84-.41l1.93-.21Z" transform="translate(1.61 -0.2)"/><path d="M86.11,224.22l2.09-.85c1.09-.44,2.16-1,3.28-1.31,1.32-.38,2.74-.47,4-.92a2.25,2.25,0,0,0,1.25-1.49,15.82,15.82,0,0,1,3.47-7.16,20.41,20.41,0,0,0,2.15-4.31c.09-.21-.14-.66-.35-.85s-.59.1-.77.29c-.87.89-1.66,1.85-2.54,2.74-.71.72-1.49,1.37-2.25,2-.23.2-.58.31-.72.54-2.06,3.27-5.32,5.43-7.74,8.37a20.81,20.81,0,0,1-1.57,1.37,5.56,5.56,0,0,0-.64,1Z" transform="translate(1.61 -0.2)"/><path d="M408.88,223.72a6.17,6.17,0,0,0-.65-1.05c-1.43-1.45-2.89-2.86-4.33-4.29-.64-.64-1.25-1.31-1.91-1.93-1.11-1-2.37-1.88-3.05-3.39-.33-.74-1.54-1-2.19-1.69-1.06-1.07-2-2.28-3-3.38a4.75,4.75,0,0,0-1.16-.69c-.1.48-.4,1-.25,1.41A18.81,18.81,0,0,0,394,212c.74,1.16,1.79,2.13,2.48,3.31a10.8,10.8,0,0,1,1.36,3.43c.39,2.1.55,2.29,2.69,2.69a18.41,18.41,0,0,1,6.76,2.31,4.41,4.41,0,0,0,1.34.36Z" transform="translate(1.61 -0.2)"/><path d="M453.86,272.52c.34-1.69.67-3.37,1-5,.33-1.52.76-3,1-4.54a4.61,4.61,0,0,0-.23-2.11c-.53-1.67-1.16-3.31-1.8-4.94s-1.26-3.14-1.9-4.71l-.37,0c-.2.66-.66,1.36-.55,1.95.56,3,.08,6,.17,9a68.88,68.88,0,0,0,.79,8,9.36,9.36,0,0,0,1.36,2.59Z" transform="translate(1.61 -0.2)"/><path d="M42.79,251.16c-.14.16-.35.29-.41.47-.55,1.62-1.05,3.26-1.63,4.86-.51,1.42-1.17,2.78-1.65,4.2a5,5,0,0,0-.27,2.32c.46,2.6,1.07,5.16,1.61,7.74.13.58.22,1.17.32,1.75l.43.17c.5-.81,1.32-1.58,1.43-2.43a63.34,63.34,0,0,0,.78-10.17c-.08-2.18.13-4.3.17-6.44a18.42,18.42,0,0,0-.3-2.45Z" transform="translate(1.61 -0.2)"/><path d="M455.35,97.63c1.49-3.32,2.92-6.66,4.46-9.95s3.8-6.18,4.88-9.68l-5.6,3.75c-.7.46-1.74.78-2,1.43a14.78,14.78,0,0,0-.69,3.62c0,.25.06.53,0,.78-.35,2-.74,4.07-1.06,6.12-.19,1.28-.28,2.58-.42,3.88Z" transform="translate(1.61 -0.2)"/><path d="M32.44,78a8.25,8.25,0,0,0,.48,1.6c1.74,3.18,3.61,6.28,5.24,9.51,1.33,2.63,2.37,5.4,3.55,8.11a3.34,3.34,0,0,0,.25.4l.36-.05c-.09-1.23-.18-2.47-.29-3.7-.06-.72-.15-1.44-.26-2.15s-.29-1.65-.44-2.48-.3-1.59-.43-2.39c-.2-1.22-.31-2.46-.6-3.66a2,2,0,0,0-.94-1c-1.84-1.17-3.72-2.29-5.58-3.44-.39-.24-.72-.55-1.08-.82Z" transform="translate(1.61 -0.2)"/><path d="M480.22,289.59c.53.73,1.11,1.42,1.59,2.19,1.48,2.37,2.94,4.76,4.39,7.15.35.59.68,1,1.49,1,1.12-.08,2.25,0,3.48,0a14.58,14.58,0,0,0-1.77-5.39c-.94-2-2.69-2.8-4.67-3.41a30.5,30.5,0,0,1-3.37-1.51c-.26-.12-.54-.2-.82-.31Z" transform="translate(1.61 -0.2)"/><path d="M14.09,289.2,11,290.67a5.16,5.16,0,0,1-1.06.44,6.18,6.18,0,0,0-4.79,3.62c-.67,1.63-1.27,3.28-2,5.15,1.63,0,2.93.08,4.21,0a1.69,1.69,0,0,0,1.07-.93A35.28,35.28,0,0,1,14,290.34a3.75,3.75,0,0,0,.4-.83Z" transform="translate(1.61 -0.2)"/><path d="M53,155.51a7.86,7.86,0,0,1,.61-1.31c1.42-2,2.92-3.94,4.3-5.95,1.1-1.6.88-2.69-.67-4.13l-3.64,2.38a11.7,11.7,0,0,0-2.24,1.58,2.15,2.15,0,0,0-.44,1.75c.45,1.72,1.09,3.39,1.65,5.08Z" transform="translate(1.61 -0.2)"/><path d="M442.15,154.91c.57-1.69,1.18-3.37,1.69-5.08a2.47,2.47,0,0,0-1.33-2.73,58.23,58.23,0,0,0-5.13-2.88c-1.45,1.35-1.66,2.43-.56,4,1.38,2,2.88,4,4.3,5.94a8.55,8.55,0,0,1,.63,1.29Z" transform="translate(1.61 -0.2)"/><path d="M96.9,285.09a14.4,14.4,0,0,1,6.91.76,2.32,2.32,0,0,0,2-.55,19.78,19.78,0,0,1,4.83-3.59,3.88,3.88,0,0,0,1.51-1.82c.27-.58,0-1.06-.9-.76a26.11,26.11,0,0,1-2.92.62c-.13,0-.28,0-.37.07-3.23,2.4-7.14,2.94-10.86,4a3.38,3.38,0,0,0-.92.67Z" transform="translate(1.61 -0.2)"/><path d="M398.63,284.3a4.59,4.59,0,0,0-.82-.43c-2.76-.86-5.52-1.75-8.32-2.53a5.16,5.16,0,0,1-2.74-1.44c-.41-.46-1.48-.33-2.26-.48-.29-.05-.58-.12-.87-.16s-.61-.08-.92-.12c0,.4-.2,1,0,1.19a11.9,11.9,0,0,0,1.9,1.71,36.52,36.52,0,0,1,3.75,2.84,2.88,2.88,0,0,0,3.47.78,10.5,10.5,0,0,1,5.51-.62,4,4,0,0,0,1.31-.32Z" transform="translate(1.61 -0.2)"/><path d="M465.3,82.57c-2.3,4.72-4.48,9.17-6.59,13.51,2.18-1.22,4.46-2.43,6.68-3.74,1.09-.64,1.19-1.94.9-3.28-.38-1.77-.44-3.61-.66-5.41A6.92,6.92,0,0,0,465.3,82.57Z" transform="translate(1.61 -0.2)"/><path d="M31.86,82.92c-.11,1-.16,2-.33,3-.22,1.24-.53,2.46-.82,3.69a3.24,3.24,0,0,0,1.38,2.9c1.62.9,3.27,1.75,4.89,2.66a20,20,0,0,1,1.78,1.28c-2.29-4.69-4.46-9.14-6.64-13.59Z" transform="translate(1.61 -0.2)"/><path d="M446.88,274.06c-1-.42-2-.86-3-1.25-1.71-.63-3.45-1.17-5.14-1.86-2.53-1-5-2.15-7.52-3.25-.41-.18-.77-.5-1.18-.7a5.11,5.11,0,0,0-.89-.27c0,.32-.19.69-.08.94a36.77,36.77,0,0,0,1.85,3.52,1.81,1.81,0,0,0,1.21.74c2.78.3,5.58.38,8.33.79a33.06,33.06,0,0,1,4.63,1.46,14.93,14.93,0,0,0,1.64.35Z" transform="translate(1.61 -0.2)"/><path d="M48,274.6a22.42,22.42,0,0,0,4.29-1.17c2.22-1.1,4.56-1.17,6.9-1.35,1.16-.09,2.32-.09,3.48-.12s1.36-1.1,1.83-1.8a14.07,14.07,0,0,0,1.2-2.54.93.93,0,0,0-.09-.81c-.14-.13-.57-.08-.8,0-1.44.7-2.84,1.46-4.27,2.16-1.86.91-3.69,1.88-5.61,2.64-1.68.66-3.47,1-5.19,1.59a18.3,18.3,0,0,0-1.91.89Z" transform="translate(1.61 -0.2)"/><path d="M447,299.8c-3.36-1.86-7.1-1.35-10.65-1.49s-7.12.67-10.68,1.06l0,.43Z" transform="translate(1.61 -0.2)"/><path d="M68.76,299.82c-5.65-2.3-11.71-1.44-17.73-1.14a18.86,18.86,0,0,0-3.4.81l.06.33Z" transform="translate(1.61 -0.2)"/><path d="M498.66,297.07l-6.82-3.13a5.56,5.56,0,0,0,.27,1.14c.78,1.4,1.59,2.77,2.38,4.16.32.58.73.92,1.33.41C496.73,298.88,497.59,298.05,498.66,297.07Z" transform="translate(1.61 -0.2)"/><path d="M2.59,294.16a29.8,29.8,0,0,0-3,1.18c-.85.44-1.39,3.51-.76,4.2.19.2,1,.23,1.06.08,1-1.69,1.94-3.43,2.88-5.16C2.78,294.43,2.68,294.32,2.59,294.16Z" transform="translate(1.61 -0.2)"/><path d="M47.1,274.32l-2.8.67.14.59,2.8-.7Z" transform="translate(1.61 -0.2)"/><path d="M450.38,275l-2.79-.67-.15.5,2.76.8Z" transform="translate(1.61 -0.2)"/></svg>